<svg xmlns="http://www.w3.org/2000/svg" width="24" height="24" fill="none" viewBox="0 0 24 24"><path fill="#ffffd5" d="M15.88 11.38a.25.25 0 0 0-.25-.25h-.25a.25.25 0 0 0-.25.25v.25c0 .138.112.25.25.25h.25a.25.25 0 0 0 .25-.25zm-1 0a.25.25 0 0 0-.25-.25h-.25a.25.25 0 0 0-.25.25v.25c0 .138.112.25.25.25h.25a.25.25 0 0 0 .25-.25zm-1 0a.25.25 0 0 0-.25-.25h-.25a.25.25 0 0 0-.25.25v.25c0 .138.112.25.25.25h.25a.25.25 0 0 0 .25-.25zm-1 0a.25.25 0 0 0-.25-.25h-.25a.25.25 0 0 0-.25.25v.25c0 .138.112.25.25.25h.25a.25.25 0 0 0 .25-.25zm-1 0a.25.25 0 0 0-.25-.25h-.25a.25.25 0 0 0-.25.25v.25c0 .138.112.25.25.25h.25a.25.25 0 0 0 .25-.25zm-1 0a.25.25 0 0 0-.25-.25h-.25a.25.25 0 0 0-.25.25v.25c0 .138.112.25.25.25h.25a.25.25 0 0 0 .25-.25zm-1 0a.25.25 0 0 0-.25-.25h-.25a.25.25 0 0 0-.25.25v.25c0 .138.112.25.25.25h.25a.25.25 0 0 0 .25-.25zm-1 0a.25.25 0 0 0-.25-.25h-.25a.25.25 0 0 0-.25.25v.25c0 .138.112.25.25.25h.25a.25.25 0 0 0 .25-.25zm-1 0a.25.25 0 0 0-.25-.25h-.25a.25.25 0 0 0-.25.25v.25c0 .138.112.25.25.25h.25a.25.25 0 0 0 .25-.25zm-1 0a.25.25 0 0 0-.25-.25h-.25a.25.25 0 0 0-.25.25v.25c0 .138.112.25.25.25h.25a.25.25 0 0 0 .25-.25zm0-1a.25.25 0 0 0-.25-.25h-.25a.25.25 0 0 0-.25.25v.25c0 .138.112.25.25.25h.25a.25.25 0 0 0 .25-.25zm1-1a.25.25 0 0 0-.25-.25h-.25a.25.25 0 0 0-.25.25v.25c0 .138.112.25.25.25h.25a.25.25 0 0 0 .25-.25zm0 1a.25.25 0 0 0-.25-.25h-.25a.25.25 0 0 0-.25.25v.25c0 .138.112.25.25.25h.25a.25.25 0 0 0 .25-.25zm1-2a.25.25 0 0 0-.25-.25h-.25a.25.25 0 0 0-.25.25v.25c0 .138.112.25.25.25h.25a.25.25 0 0 0 .25-.25zm0 1a.25.25 0 0 0-.25-.25h-.25a.25.25 0 0 0-.25.25v.25c0 .138.112.25.25.25h.25a.25.25 0 0 0 .25-.25zm1-2a.25.25 0 0 0-.25-.25h-.25a.25.25 0 0 0-.25.25v.25c0 .138.112.25.25.25h.25a.25.25 0 0 0 .25-.25zm0 1a.25.25 0 0 0-.25-.25h-.25a.25.25 0 0 0-.25.25v.25c0 .138.112.25.25.25h.25a.25.25 0 0 0 .25-.25zm-4 3a.25.25 0 0 0-.25-.25h-.25a.25.25 0 0 0-.25.25v.25c0 .138.112.25.25.25h.25a.25.25 0 0 0 .25-.25zm10 1a.25.25 0 0 0-.25-.25h-.25a.25.25 0 0 0-.25.25v.25c0 .138.112.25.25.25h.25a.25.25 0 0 0 .25-.25zm-1 0a.25.25 0 0 0-.25-.25h-.25a.25.25 0 0 0-.25.25v.25c0 .138.112.25.25.25h.25a.25.25 0 0 0 .25-.25zm-1 0a.25.25 0 0 0-.25-.25h-.25a.25.25 0 0 0-.25.25v.25c0 .138.112.25.25.25h.25a.25.25 0 0 0 .25-.25zm-1 0a.25.25 0 0 0-.25-.25h-.25a.25.25 0 0 0-.25.25v.25c0 .138.112.25.25.25h.25a.25.25 0 0 0 .25-.25zm-1 0a.25.25 0 0 0-.25-.25h-.25a.25.25 0 0 0-.25.25v.25c0 .138.112.25.25.25h.25a.25.25 0 0 0 .25-.25zm-1 0a.25.25 0 0 0-.25-.25h-.25a.25.25 0 0 0-.25.25v.25c0 .138.112.25.25.25h.25a.25.25 0 0 0 .25-.25zm-1 0a.25.25 0 0 0-.25-.25h-.25a.25.25 0 0 0-.25.25v.25c0 .138.112.25.25.25h.25a.25.25 0 0 0 .25-.25zm-1 0a.25.25 0 0 0-.25-.25h-.25a.25.25 0 0 0-.25.25v.25c0 .138.112.25.25.25h.25a.25.25 0 0 0 .25-.25zm-1 0a.25.25 0 0 0-.25-.25h-.25a.25.25 0 0 0-.25.25v.25c0 .138.112.25.25.25h.25a.25.25 0 0 0 .25-.25zm-1 0a.25.25 0 0 0-.25-.25h-.25a.25.25 0 0 0-.25.25v.25c0 .138.112.25.25.25h.25a.25.25 0 0 0 .25-.25zm0 1a.25.25 0 0 0-.25-.25h-.25a.25.25 0 0 0-.25.25v.25c0 .138.112.25.25.25h.25a.25.25 0 0 0 .25-.25zm1 1a.25.25 0 0 0-.25-.25h-.25a.25.25 0 0 0-.25.25v.25c0 .138.112.25.25.25h.25a.25.25 0 0 0 .25-.25zm0-1a.25.25 0 0 0-.25-.25h-.25a.25.25 0 0 0-.25.25v.25c0 .138.112.25.25.25h.25a.25.25 0 0 0 .25-.25zm1 2a.25.25 0 0 0-.25-.25h-.25a.25.25 0 0 0-.25.25v.25c0 .138.112.25.25.25h.25a.25.25 0 0 0 .25-.25zm0-1a.25.25 0 0 0-.25-.25h-.25a.25.25 0 0 0-.25.25v.25c0 .138.112.25.25.25h.25a.25.25 0 0 0 .25-.25zm1 2a.25.25 0 0 0-.25-.25h-.25a.25.25 0 0 0-.25.25v.25c0 .138.112.25.25.25h.25a.25.25 0 0 0 .25-.25zm0-1a.25.25 0 0 0-.25-.25h-.25a.25.25 0 0 0-.25.25v.25c0 .138.112.25.25.25h.25a.25.25 0 0 0 .25-.25zm-4-3a.25.25 0 0 0-.25-.25h-.25a.25.25 0 0 0-.25.25v.25c0 .138.112.25.25.25h.25a.25.25 0 0 0 .25-.25zm-1-.5a.25.25 0 0 0-.25-.25h-.25a.25.25 0 0 0-.25.25v.25c0 .138.112.25.25.25h.25a.25.25 0 0 0 .25-.25zm6 5.5a.25.25 0 0 0-.25-.25h-.25a.25.25 0 0 0-.25.25v.25c0 .138.112.25.25.25h.25a.25.25 0 0 0 .25-.25zm0-1a.25.25 0 0 0-.25-.25h-.25a.25.25 0 0 0-.25.25v.25c0 .138.112.25.25.25h.25a.25.25 0 0 0 .25-.25zm1 2a.25.25 0 0 0-.25-.25h-.25a.25.25 0 0 0-.25.25v.25c0 .138.112.25.25.25h.25a.25.25 0 0 0 .25-.25zm0-1a.25.25 0 0 0-.25-.25h-.25a.25.25 0 0 0-.25.25v.25c0 .138.112.25.25.25h.25a.25.25 0 0 0 .25-.25zm-1-10a.25.25 0 0 0-.25-.25h-.25a.25.25 0 0 0-.25.25v.25c0 .138.112.25.25.25h.25a.25.25 0 0 0 .25-.25zm0-1a.25.25 0 0 0-.25-.25h-.25a.25.25 0 0 0-.25.25v.25c0 .138.112.25.25.25h.25a.25.25 0 0 0 .25-.25zm1 0a.25.25 0 0 0-.25-.25h-.25a.25.25 0 0 0-.25.25v.25c0 .138.112.25.25.25h.25a.25.25 0 0 0 .25-.25zm0-1a.25.25 0 0 0-.25-.25h-.25a.25.25 0 0 0-.25.25v.25c0 .138.112.25.25.25h.25a.25.25 0 0 0 .25-.25zm5 6a.25.25 0 0 0-.25-.25h-.25a.25.25 0 0 0-.25.25v.25c0 .138.112.25.25.25h.25a.25.25 0 0 0 .25-.25zm0 1a.25.25 0 0 0-.25-.25h-.25a.25.25 0 0 0-.25.25v.25c0 .138.112.25.25.25h.25a.25.25 0 0 0 .25-.25zm1-1a.25.25 0 0 0-.25-.25h-.25a.25.25 0 0 0-.25.25v.25c0 .138.112.25.25.25h.25a.25.25 0 0 0 .25-.25zm0 1a.25.25 0 0 0-.25-.25h-.25a.25.25 0 0 0-.25.25v.25c0 .138.112.25.25.25h.25a.25.25 0 0 0 .25-.25zm1-1a.25.25 0 0 0-.25-.25h-.25a.25.25 0 0 0-.25.25v.25c0 .138.112.25.25.25h.25a.25.25 0 0 0 .25-.25zm0 1a.25.25 0 0 0-.25-.25h-.25a.25.25 0 0 0-.25.25v.25c0 .138.112.25.25.25h.25a.25.25 0 0 0 .25-.25zm1-1a.25.25 0 0 0-.25-.25h-.25a.25.25 0 0 0-.25.25v.25c0 .138.112.25.25.25h.25a.25.25 0 0 0 .25-.25zm0 1a.25.25 0 0 0-.25-.25h-.25a.25.25 0 0 0-.25.25v.25c0 .138.112.25.25.25h.25a.25.25 0 0 0 .25-.25z"/></svg>