<svg xmlns="http://www.w3.org/2000/svg" width="24" height="24" fill="none" viewBox="0 0 24 24"><path fill="#ae463b" d="M3.13 7.88a.25.25 0 0 1 .25-.25h.25a.25.25 0 0 1 .25.25v.25a.25.25 0 0 1-.25.25h-.25a.25.25 0 0 1-.25-.25zm0 2a.25.25 0 0 1 .25-.25h.25a.25.25 0 0 1 .25.25v.25a.25.25 0 0 1-.25.25h-.25a.25.25 0 0 1-.25-.25zm0 2a.25.25 0 0 1 .25-.25h.25a.25.25 0 0 1 .25.25v.25a.25.25 0 0 1-.25.25h-.25a.25.25 0 0 1-.25-.25zm0 2a.25.25 0 0 1 .25-.25h.25a.25.25 0 0 1 .25.25v.25a.25.25 0 0 1-.25.25h-.25a.25.25 0 0 1-.25-.25zm0 2a.25.25 0 0 1 .25-.25h.25a.25.25 0 0 1 .25.25v.25a.25.25 0 0 1-.25.25h-.25a.25.25 0 0 1-.25-.25zm0 2a.25.25 0 0 1 .25-.25h.25a.25.25 0 0 1 .25.25v.25a.25.25 0 0 1-.25.25h-.25a.25.25 0 0 1-.25-.25zm0 2a.25.25 0 0 1 .25-.25h.25a.25.25 0 0 1 .25.25v.25a.25.25 0 0 1-.25.25h-.25a.25.25 0 0 1-.25-.25zm2 0a.25.25 0 0 1 .25-.25h.25a.25.25 0 0 1 .25.25v.25a.25.25 0 0 1-.25.25h-.25a.25.25 0 0 1-.25-.25zm2 0a.25.25 0 0 1 .25-.25h.25a.25.25 0 0 1 .25.25v.25a.25.25 0 0 1-.25.25h-.25a.25.25 0 0 1-.25-.25zm2 0a.25.25 0 0 1 .25-.25h.25a.25.25 0 0 1 .25.25v.25a.25.25 0 0 1-.25.25h-.25a.25.25 0 0 1-.25-.25zm2 0a.25.25 0 0 1 .25-.25h.25a.25.25 0 0 1 .25.25v.25a.25.25 0 0 1-.25.25h-.25a.25.25 0 0 1-.25-.25zm2 0a.25.25 0 0 1 .25-.25h.25a.25.25 0 0 1 .25.25v.25a.25.25 0 0 1-.25.25h-.25a.25.25 0 0 1-.25-.25zm2 0a.25.25 0 0 1 .25-.25h.25a.25.25 0 0 1 .25.25v.25a.25.25 0 0 1-.25.25h-.25a.25.25 0 0 1-.25-.25zm2 0a.25.25 0 0 1 .25-.25h.25a.25.25 0 0 1 .25.25v.25a.25.25 0 0 1-.25.25h-.25a.25.25 0 0 1-.25-.25zm2 0a.25.25 0 0 1 .25-.25h.25a.25.25 0 0 1 .25.25v.25a.25.25 0 0 1-.25.25h-.25a.25.25 0 0 1-.25-.25zm0-2a.25.25 0 0 1 .25-.25h.25a.25.25 0 0 1 .25.25v.25a.25.25 0 0 1-.25.25h-.25a.25.25 0 0 1-.25-.25zm0-2a.25.25 0 0 1 .25-.25h.25a.25.25 0 0 1 .25.25v.25a.25.25 0 0 1-.25.25h-.25a.25.25 0 0 1-.25-.25zm0-2a.25.25 0 0 1 .25-.25h.25a.25.25 0 0 1 .25.25v.25a.25.25 0 0 1-.25.25h-.25a.25.25 0 0 1-.25-.25zm0-2a.25.25 0 0 1 .25-.25h.25a.25.25 0 0 1 .25.25v.25a.25.25 0 0 1-.25.25h-.25a.25.25 0 0 1-.25-.25zm-2 0a.25.25 0 0 1 .25-.25h.25a.25.25 0 0 1 .25.25v.25a.25.25 0 0 1-.25.25h-.25a.25.25 0 0 1-.25-.25zm-2 0a.25.25 0 0 1 .25-.25h.25a.25.25 0 0 1 .25.25v.25a.25.25 0 0 1-.25.25h-.25a.25.25 0 0 1-.25-.25zm0 2a.25.25 0 0 1 .25-.25h.25a.25.25 0 0 1 .25.25v.25a.25.25 0 0 1-.25.25h-.25a.25.25 0 0 1-.25-.25zm0 2a.25.25 0 0 1 .25-.25h.25a.25.25 0 0 1 .25.25v.25a.25.25 0 0 1-.25.25h-.25a.25.25 0 0 1-.25-.25zm0 2a.25.25 0 0 1 .25-.25h.25a.25.25 0 0 1 .25.25v.25a.25.25 0 0 1-.25.25h-.25a.25.25 0 0 1-.25-.25zm2-2a.25.25 0 0 1 .25-.25h.25a.25.25 0 0 1 .25.25v.25a.25.25 0 0 1-.25.25h-.25a.25.25 0 0 1-.25-.25zm-6 0a.25.25 0 0 1 .25-.25h.25a.25.25 0 0 1 .25.25v.25a.25.25 0 0 1-.25.25h-.25a.25.25 0 0 1-.25-.25zm-6 0a.25.25 0 0 1 .25-.25h.25a.25.25 0 0 1 .25.25v.25a.25.25 0 0 1-.25.25h-.25a.25.25 0 0 1-.25-.25zm0-4a.25.25 0 0 1 .25-.25h.25a.25.25 0 0 1 .25.25v.25a.25.25 0 0 1-.25.25h-.25a.25.25 0 0 1-.25-.25zm6 0a.25.25 0 0 1 .25-.25h.25a.25.25 0 0 1 .25.25v.25a.25.25 0 0 1-.25.25h-.25a.25.25 0 0 1-.25-.25zm-2-2a.25.25 0 0 1 .25-.25h.25a.25.25 0 0 1 .25.25v.25a.25.25 0 0 1-.25.25h-.25a.25.25 0 0 1-.25-.25zm0 2a.25.25 0 0 1 .25-.25h.25a.25.25 0 0 1 .25.25v.25a.25.25 0 0 1-.25.25h-.25a.25.25 0 0 1-.25-.25zm0 2a.25.25 0 0 1 .25-.25h.25a.25.25 0 0 1 .25.25v.25a.25.25 0 0 1-.25.25h-.25a.25.25 0 0 1-.25-.25zm0 2a.25.25 0 0 1 .25-.25h.25a.25.25 0 0 1 .25.25v.25a.25.25 0 0 1-.25.25h-.25a.25.25 0 0 1-.25-.25zm0 2a.25.25 0 0 1 .25-.25h.25a.25.25 0 0 1 .25.25v.25a.25.25 0 0 1-.25.25h-.25a.25.25 0 0 1-.25-.25zm-2-8a.25.25 0 0 1 .25-.25h.25a.25.25 0 0 1 .25.25v.25a.25.25 0 0 1-.25.25h-.25a.25.25 0 0 1-.25-.25zm0 2a.25.25 0 0 1 .25-.25h.25a.25.25 0 0 1 .25.25v.25a.25.25 0 0 1-.25.25h-.25a.25.25 0 0 1-.25-.25zm0 2a.25.25 0 0 1 .25-.25h.25a.25.25 0 0 1 .25.25v.25a.25.25 0 0 1-.25.25h-.25a.25.25 0 0 1-.25-.25zm0 2a.25.25 0 0 1 .25-.25h.25a.25.25 0 0 1 .25.25v.25a.25.25 0 0 1-.25.25h-.25a.25.25 0 0 1-.25-.25zm0 2a.25.25 0 0 1 .25-.25h.25a.25.25 0 0 1 .25.25v.25a.25.25 0 0 1-.25.25h-.25a.25.25 0 0 1-.25-.25zm-2-10a.25.25 0 0 1 .25-.25h.25a.25.25 0 0 1 .25.25v.25a.25.25 0 0 1-.25.25h-.25a.25.25 0 0 1-.25-.25zm2 0a.25.25 0 0 1 .25-.25h.25a.25.25 0 0 1 .25.25v.25a.25.25 0 0 1-.25.25h-.25a.25.25 0 0 1-.25-.25zm2 0a.25.25 0 0 1 .25-.25h.25a.25.25 0 0 1 .25.25v.25a.25.25 0 0 1-.25.25h-.25a.25.25 0 0 1-.25-.25zm0-1a.25.25 0 0 1 .25-.25h.25a.25.25 0 0 1 .25.25v.25a.25.25 0 0 1-.25.25h-.25a.25.25 0 0 1-.25-.25zm0-1a.25.25 0 0 1 .25-.25h.25a.25.25 0 0 1 .25.25v.25a.25.25 0 0 1-.25.25h-.25a.25.25 0 0 1-.25-.25zm2 2a.25.25 0 0 1 .25-.25h.25a.25.25 0 0 1 .25.25v.25a.25.25 0 0 1-.25.25h-.25a.25.25 0 0 1-.25-.25zm2 0a.25.25 0 0 1 .25-.25h.25a.25.25 0 0 1 .25.25v.25a.25.25 0 0 1-.25.25h-.25a.25.25 0 0 1-.25-.25zm0 2a.25.25 0 0 1 .25-.25h.25a.25.25 0 0 1 .25.25v.25a.25.25 0 0 1-.25.25h-.25a.25.25 0 0 1-.25-.25zm0 2a.25.25 0 0 1 .25-.25h.25a.25.25 0 0 1 .25.25v.25a.25.25 0 0 1-.25.25h-.25a.25.25 0 0 1-.25-.25zm0 2a.25.25 0 0 1 .25-.25h.25a.25.25 0 0 1 .25.25v.25a.25.25 0 0 1-.25.25h-.25a.25.25 0 0 1-.25-.25zm0 2a.25.25 0 0 1 .25-.25h.25a.25.25 0 0 1 .25.25v.25a.25.25 0 0 1-.25.25h-.25a.25.25 0 0 1-.25-.25zm0 2a.25.25 0 0 1 .25-.25h.25a.25.25 0 0 1 .25.25v.25a.25.25 0 0 1-.25.25h-.25a.25.25 0 0 1-.25-.25z"/><path fill="#ae463b" d="M13.13 19.88a.25.25 0 0 1 .25-.25h.25a.25.25 0 0 1 .25.25v.25a.25.25 0 0 1-.25.25h-.25a.25.25 0 0 1-.25-.25zm-9-12a.25.25 0 0 1 .25-.25h.25a.25.25 0 0 1 .25.25v.25a.25.25 0 0 1-.25.25h-.25a.25.25 0 0 1-.25-.25zm0 2a.25.25 0 0 1 .25-.25h.25a.25.25 0 0 1 .25.25v.25a.25.25 0 0 1-.25.25h-.25a.25.25 0 0 1-.25-.25zm0 2a.25.25 0 0 1 .25-.25h.25a.25.25 0 0 1 .25.25v.25a.25.25 0 0 1-.25.25h-.25a.25.25 0 0 1-.25-.25zm0 2a.25.25 0 0 1 .25-.25h.25a.25.25 0 0 1 .25.25v.25a.25.25 0 0 1-.25.25h-.25a.25.25 0 0 1-.25-.25zm0 2a.25.25 0 0 1 .25-.25h.25a.25.25 0 0 1 .25.25v.25a.25.25 0 0 1-.25.25h-.25a.25.25 0 0 1-.25-.25zm0 2a.25.25 0 0 1 .25-.25h.25a.25.25 0 0 1 .25.25v.25a.25.25 0 0 1-.25.25h-.25a.25.25 0 0 1-.25-.25zm0 2a.25.25 0 0 1 .25-.25h.25a.25.25 0 0 1 .25.25v.25a.25.25 0 0 1-.25.25h-.25a.25.25 0 0 1-.25-.25zm2 0a.25.25 0 0 1 .25-.25h.25a.25.25 0 0 1 .25.25v.25a.25.25 0 0 1-.25.25h-.25a.25.25 0 0 1-.25-.25zm2 0a.25.25 0 0 1 .25-.25h.25a.25.25 0 0 1 .25.25v.25a.25.25 0 0 1-.25.25h-.25a.25.25 0 0 1-.25-.25zm2 0a.25.25 0 0 1 .25-.25h.25a.25.25 0 0 1 .25.25v.25a.25.25 0 0 1-.25.25h-.25a.25.25 0 0 1-.25-.25zm2 0a.25.25 0 0 1 .25-.25h.25a.25.25 0 0 1 .25.25v.25a.25.25 0 0 1-.25.25h-.25a.25.25 0 0 1-.25-.25zm2 0a.25.25 0 0 1 .25-.25h.25a.25.25 0 0 1 .25.25v.25a.25.25 0 0 1-.25.25h-.25a.25.25 0 0 1-.25-.25zm2 0a.25.25 0 0 1 .25-.25h.25a.25.25 0 0 1 .25.25v.25a.25.25 0 0 1-.25.25h-.25a.25.25 0 0 1-.25-.25zm2 0a.25.25 0 0 1 .25-.25h.25a.25.25 0 0 1 .25.25v.25a.25.25 0 0 1-.25.25h-.25a.25.25 0 0 1-.25-.25zm2 0a.25.25 0 0 1 .25-.25h.25a.25.25 0 0 1 .25.25v.25a.25.25 0 0 1-.25.25h-.25a.25.25 0 0 1-.25-.25zm0-2a.25.25 0 0 1 .25-.25h.25a.25.25 0 0 1 .25.25v.25a.25.25 0 0 1-.25.25h-.25a.25.25 0 0 1-.25-.25zm0-2a.25.25 0 0 1 .25-.25h.25a.25.25 0 0 1 .25.25v.25a.25.25 0 0 1-.25.25h-.25a.25.25 0 0 1-.25-.25zm0-2a.25.25 0 0 1 .25-.25h.25a.25.25 0 0 1 .25.25v.25a.25.25 0 0 1-.25.25h-.25a.25.25 0 0 1-.25-.25zm0-2a.25.25 0 0 1 .25-.25h.25a.25.25 0 0 1 .25.25v.25a.25.25 0 0 1-.25.25h-.25a.25.25 0 0 1-.25-.25zm-2 0a.25.25 0 0 1 .25-.25h.25a.25.25 0 0 1 .25.25v.25a.25.25 0 0 1-.25.25h-.25a.25.25 0 0 1-.25-.25zm-2 0a.25.25 0 0 1 .25-.25h.25a.25.25 0 0 1 .25.25v.25a.25.25 0 0 1-.25.25h-.25a.25.25 0 0 1-.25-.25zm0 2a.25.25 0 0 1 .25-.25h.25a.25.25 0 0 1 .25.25v.25a.25.25 0 0 1-.25.25h-.25a.25.25 0 0 1-.25-.25zm0 2a.25.25 0 0 1 .25-.25h.25a.25.25 0 0 1 .25.25v.25a.25.25 0 0 1-.25.25h-.25a.25.25 0 0 1-.25-.25zm0 2a.25.25 0 0 1 .25-.25h.25a.25.25 0 0 1 .25.25v.25a.25.25 0 0 1-.25.25h-.25a.25.25 0 0 1-.25-.25zm2-2a.25.25 0 0 1 .25-.25h.25a.25.25 0 0 1 .25.25v.25a.25.25 0 0 1-.25.25h-.25a.25.25 0 0 1-.25-.25zm-6 0a.25.25 0 0 1 .25-.25h.25a.25.25 0 0 1 .25.25v.25a.25.25 0 0 1-.25.25h-.25a.25.25 0 0 1-.25-.25zm-6 0a.25.25 0 0 1 .25-.25h.25a.25.25 0 0 1 .25.25v.25a.25.25 0 0 1-.25.25h-.25a.25.25 0 0 1-.25-.25zm0-4a.25.25 0 0 1 .25-.25h.25a.25.25 0 0 1 .25.25v.25a.25.25 0 0 1-.25.25h-.25a.25.25 0 0 1-.25-.25zm6 0a.25.25 0 0 1 .25-.25h.25a.25.25 0 0 1 .25.25v.25a.25.25 0 0 1-.25.25h-.25a.25.25 0 0 1-.25-.25zm-2-2a.25.25 0 0 1 .25-.25h.25a.25.25 0 0 1 .25.25v.25a.25.25 0 0 1-.25.25h-.25a.25.25 0 0 1-.25-.25zm0 2a.25.25 0 0 1 .25-.25h.25a.25.25 0 0 1 .25.25v.25a.25.25 0 0 1-.25.25h-.25a.25.25 0 0 1-.25-.25zm0 2a.25.25 0 0 1 .25-.25h.25a.25.25 0 0 1 .25.25v.25a.25.25 0 0 1-.25.25h-.25a.25.25 0 0 1-.25-.25zm0 2a.25.25 0 0 1 .25-.25h.25a.25.25 0 0 1 .25.25v.25a.25.25 0 0 1-.25.25h-.25a.25.25 0 0 1-.25-.25zm0 2a.25.25 0 0 1 .25-.25h.25a.25.25 0 0 1 .25.25v.25a.25.25 0 0 1-.25.25h-.25a.25.25 0 0 1-.25-.25zm-2-8a.25.25 0 0 1 .25-.25h.25a.25.25 0 0 1 .25.25v.25a.25.25 0 0 1-.25.25h-.25a.25.25 0 0 1-.25-.25zm0 2a.25.25 0 0 1 .25-.25h.25a.25.25 0 0 1 .25.25v.25a.25.25 0 0 1-.25.25h-.25a.25.25 0 0 1-.25-.25zm0 2a.25.25 0 0 1 .25-.25h.25a.25.25 0 0 1 .25.25v.25a.25.25 0 0 1-.25.25h-.25a.25.25 0 0 1-.25-.25zm0 2a.25.25 0 0 1 .25-.25h.25a.25.25 0 0 1 .25.25v.25a.25.25 0 0 1-.25.25h-.25a.25.25 0 0 1-.25-.25zm0 2a.25.25 0 0 1 .25-.25h.25a.25.25 0 0 1 .25.25v.25a.25.25 0 0 1-.25.25h-.25a.25.25 0 0 1-.25-.25zm-2-10a.25.25 0 0 1 .25-.25h.25a.25.25 0 0 1 .25.25v.25a.25.25 0 0 1-.25.25h-.25a.25.25 0 0 1-.25-.25zm2 0a.25.25 0 0 1 .25-.25h.25a.25.25 0 0 1 .25.25v.25a.25.25 0 0 1-.25.25h-.25a.25.25 0 0 1-.25-.25zm2 0a.25.25 0 0 1 .25-.25h.25a.25.25 0 0 1 .25.25v.25a.25.25 0 0 1-.25.25h-.25a.25.25 0 0 1-.25-.25zm0-1a.25.25 0 0 1 .25-.25h.25a.25.25 0 0 1 .25.25v.25a.25.25 0 0 1-.25.25h-.25a.25.25 0 0 1-.25-.25zm0-1a.25.25 0 0 1 .25-.25h.25a.25.25 0 0 1 .25.25v.25a.25.25 0 0 1-.25.25h-.25a.25.25 0 0 1-.25-.25zm0-1a.25.25 0 0 1 .25-.25h.25a.25.25 0 0 1 .25.25v.25a.25.25 0 0 1-.25.25h-.25a.25.25 0 0 1-.25-.25zm1 0a.25.25 0 0 1 .25-.25h.25a.25.25 0 0 1 .25.25v.25a.25.25 0 0 1-.25.25h-.25a.25.25 0 0 1-.25-.25zm1 0a.25.25 0 0 1 .25-.25h.25a.25.25 0 0 1 .25.25v.25a.25.25 0 0 1-.25.25h-.25a.25.25 0 0 1-.25-.25zm1 0a.25.25 0 0 1 .25-.25h.25a.25.25 0 0 1 .25.25v.25a.25.25 0 0 1-.25.25h-.25a.25.25 0 0 1-.25-.25zm0 1a.25.25 0 0 1 .25-.25h.25a.25.25 0 0 1 .25.25v.25a.25.25 0 0 1-.25.25h-.25a.25.25 0 0 1-.25-.25zm0 1a.25.25 0 0 1 .25-.25h.25a.25.25 0 0 1 .25.25v.25a.25.25 0 0 1-.25.25h-.25a.25.25 0 0 1-.25-.25zm1 0a.25.25 0 0 1 .25-.25h.25a.25.25 0 0 1 .25.25v.25a.25.25 0 0 1-.25.25h-.25a.25.25 0 0 1-.25-.25zm0-1a.25.25 0 0 1 .25-.25h.25a.25.25 0 0 1 .25.25v.25a.25.25 0 0 1-.25.25h-.25a.25.25 0 0 1-.25-.25zm-2-2a.25.25 0 0 1 .25-.25h.25a.25.25 0 0 1 .25.25v.25a.25.25 0 0 1-.25.25h-.25a.25.25 0 0 1-.25-.25zm-1 0a.25.25 0 0 1 .25-.25h.25a.25.25 0 0 1 .25.25v.25a.25.25 0 0 1-.25.25h-.25a.25.25 0 0 1-.25-.25zm.5-1a.25.25 0 0 1 .25-.25h.25a.25.25 0 0 1 .25.25v.25a.25.25 0 0 1-.25.25h-.25a.25.25 0 0 1-.25-.25zm.5 5a.25.25 0 0 1 .25-.25h.25a.25.25 0 0 1 .25.25v.25a.25.25 0 0 1-.25.25h-.25a.25.25 0 0 1-.25-.25zm2 0a.25.25 0 0 1 .25-.25h.25a.25.25 0 0 1 .25.25v.25a.25.25 0 0 1-.25.25h-.25a.25.25 0 0 1-.25-.25zm0 2a.25.25 0 0 1 .25-.25h.25a.25.25 0 0 1 .25.25v.25a.25.25 0 0 1-.25.25h-.25a.25.25 0 0 1-.25-.25zm0 2a.25.25 0 0 1 .25-.25h.25a.25.25 0 0 1 .25.25v.25a.25.25 0 0 1-.25.25h-.25a.25.25 0 0 1-.25-.25zm0 2a.25.25 0 0 1 .25-.25h.25a.25.25 0 0 1 .25.25v.25a.25.25 0 0 1-.25.25h-.25a.25.25 0 0 1-.25-.25zm0 2a.25.25 0 0 1 .25-.25h.25a.25.25 0 0 1 .25.25v.25a.25.25 0 0 1-.25.25h-.25a.25.25 0 0 1-.25-.25zm0 2a.25.25 0 0 1 .25-.25h.25a.25.25 0 0 1 .25.25v.25a.25.25 0 0 1-.25.25h-.25a.25.25 0 0 1-.25-.25z"/><path fill="#ae463b" d="M14.13 19.88a.25.25 0 0 1 .25-.25h.25a.25.25 0 0 1 .25.25v.25a.25.25 0 0 1-.25.25h-.25a.25.25 0 0 1-.25-.25zm-11-11a.25.25 0 0 1 .25-.25h.25a.25.25 0 0 1 .25.25v.25a.25.25 0 0 1-.25.25h-.25a.25.25 0 0 1-.25-.25zm0 2a.25.25 0 0 1 .25-.25h.25a.25.25 0 0 1 .25.25v.25a.25.25 0 0 1-.25.25h-.25a.25.25 0 0 1-.25-.25zm0 2a.25.25 0 0 1 .25-.25h.25a.25.25 0 0 1 .25.25v.25a.25.25 0 0 1-.25.25h-.25a.25.25 0 0 1-.25-.25zm0 2a.25.25 0 0 1 .25-.25h.25a.25.25 0 0 1 .25.25v.25a.25.25 0 0 1-.25.25h-.25a.25.25 0 0 1-.25-.25zm0 2a.25.25 0 0 1 .25-.25h.25a.25.25 0 0 1 .25.25v.25a.25.25 0 0 1-.25.25h-.25a.25.25 0 0 1-.25-.25zm0 2a.25.25 0 0 1 .25-.25h.25a.25.25 0 0 1 .25.25v.25a.25.25 0 0 1-.25.25h-.25a.25.25 0 0 1-.25-.25zm0 2a.25.25 0 0 1 .25-.25h.25a.25.25 0 0 1 .25.25v.25a.25.25 0 0 1-.25.25h-.25a.25.25 0 0 1-.25-.25zm2 0a.25.25 0 0 1 .25-.25h.25a.25.25 0 0 1 .25.25v.25a.25.25 0 0 1-.25.25h-.25a.25.25 0 0 1-.25-.25zm2 0a.25.25 0 0 1 .25-.25h.25a.25.25 0 0 1 .25.25v.25a.25.25 0 0 1-.25.25h-.25a.25.25 0 0 1-.25-.25zm2 0a.25.25 0 0 1 .25-.25h.25a.25.25 0 0 1 .25.25v.25a.25.25 0 0 1-.25.25h-.25a.25.25 0 0 1-.25-.25zm2 0a.25.25 0 0 1 .25-.25h.25a.25.25 0 0 1 .25.25v.25a.25.25 0 0 1-.25.25h-.25a.25.25 0 0 1-.25-.25zm2 0a.25.25 0 0 1 .25-.25h.25a.25.25 0 0 1 .25.25v.25a.25.25 0 0 1-.25.25h-.25a.25.25 0 0 1-.25-.25zm2 0a.25.25 0 0 1 .25-.25h.25a.25.25 0 0 1 .25.25v.25a.25.25 0 0 1-.25.25h-.25a.25.25 0 0 1-.25-.25zm2 0a.25.25 0 0 1 .25-.25h.25a.25.25 0 0 1 .25.25v.25a.25.25 0 0 1-.25.25h-.25a.25.25 0 0 1-.25-.25zm2 0a.25.25 0 0 1 .25-.25h.25a.25.25 0 0 1 .25.25v.25a.25.25 0 0 1-.25.25h-.25a.25.25 0 0 1-.25-.25zm0-2a.25.25 0 0 1 .25-.25h.25a.25.25 0 0 1 .25.25v.25a.25.25 0 0 1-.25.25h-.25a.25.25 0 0 1-.25-.25zm0-2a.25.25 0 0 1 .25-.25h.25a.25.25 0 0 1 .25.25v.25a.25.25 0 0 1-.25.25h-.25a.25.25 0 0 1-.25-.25zm0-2a.25.25 0 0 1 .25-.25h.25a.25.25 0 0 1 .25.25v.25a.25.25 0 0 1-.25.25h-.25a.25.25 0 0 1-.25-.25zm0-2a.25.25 0 0 1 .25-.25h.25a.25.25 0 0 1 .25.25v.25a.25.25 0 0 1-.25.25h-.25a.25.25 0 0 1-.25-.25zm-2 0a.25.25 0 0 1 .25-.25h.25a.25.25 0 0 1 .25.25v.25a.25.25 0 0 1-.25.25h-.25a.25.25 0 0 1-.25-.25zm-2 0a.25.25 0 0 1 .25-.25h.25a.25.25 0 0 1 .25.25v.25a.25.25 0 0 1-.25.25h-.25a.25.25 0 0 1-.25-.25zm0 2a.25.25 0 0 1 .25-.25h.25a.25.25 0 0 1 .25.25v.25a.25.25 0 0 1-.25.25h-.25a.25.25 0 0 1-.25-.25zm0 2a.25.25 0 0 1 .25-.25h.25a.25.25 0 0 1 .25.25v.25a.25.25 0 0 1-.25.25h-.25a.25.25 0 0 1-.25-.25zm0 2a.25.25 0 0 1 .25-.25h.25a.25.25 0 0 1 .25.25v.25a.25.25 0 0 1-.25.25h-.25a.25.25 0 0 1-.25-.25zm2-2a.25.25 0 0 1 .25-.25h.25a.25.25 0 0 1 .25.25v.25a.25.25 0 0 1-.25.25h-.25a.25.25 0 0 1-.25-.25zm-6 0a.25.25 0 0 1 .25-.25h.25a.25.25 0 0 1 .25.25v.25a.25.25 0 0 1-.25.25h-.25a.25.25 0 0 1-.25-.25zm-6 0a.25.25 0 0 1 .25-.25h.25a.25.25 0 0 1 .25.25v.25a.25.25 0 0 1-.25.25h-.25a.25.25 0 0 1-.25-.25zm0-4a.25.25 0 0 1 .25-.25h.25a.25.25 0 0 1 .25.25v.25a.25.25 0 0 1-.25.25h-.25a.25.25 0 0 1-.25-.25zm6 0a.25.25 0 0 1 .25-.25h.25a.25.25 0 0 1 .25.25v.25a.25.25 0 0 1-.25.25h-.25a.25.25 0 0 1-.25-.25zm-2-2a.25.25 0 0 1 .25-.25h.25a.25.25 0 0 1 .25.25v.25a.25.25 0 0 1-.25.25h-.25a.25.25 0 0 1-.25-.25zm0 2a.25.25 0 0 1 .25-.25h.25a.25.25 0 0 1 .25.25v.25a.25.25 0 0 1-.25.25h-.25a.25.25 0 0 1-.25-.25zm0 2a.25.25 0 0 1 .25-.25h.25a.25.25 0 0 1 .25.25v.25a.25.25 0 0 1-.25.25h-.25a.25.25 0 0 1-.25-.25zm0 2a.25.25 0 0 1 .25-.25h.25a.25.25 0 0 1 .25.25v.25a.25.25 0 0 1-.25.25h-.25a.25.25 0 0 1-.25-.25zm0 2a.25.25 0 0 1 .25-.25h.25a.25.25 0 0 1 .25.25v.25a.25.25 0 0 1-.25.25h-.25a.25.25 0 0 1-.25-.25zm-2-8a.25.25 0 0 1 .25-.25h.25a.25.25 0 0 1 .25.25v.25a.25.25 0 0 1-.25.25h-.25a.25.25 0 0 1-.25-.25zm0 2a.25.25 0 0 1 .25-.25h.25a.25.25 0 0 1 .25.25v.25a.25.25 0 0 1-.25.25h-.25a.25.25 0 0 1-.25-.25zm0 2a.25.25 0 0 1 .25-.25h.25a.25.25 0 0 1 .25.25v.25a.25.25 0 0 1-.25.25h-.25a.25.25 0 0 1-.25-.25zm0 2a.25.25 0 0 1 .25-.25h.25a.25.25 0 0 1 .25.25v.25a.25.25 0 0 1-.25.25h-.25a.25.25 0 0 1-.25-.25zm0 2a.25.25 0 0 1 .25-.25h.25a.25.25 0 0 1 .25.25v.25a.25.25 0 0 1-.25.25h-.25a.25.25 0 0 1-.25-.25zm-2-10a.25.25 0 0 1 .25-.25h.25a.25.25 0 0 1 .25.25v.25a.25.25 0 0 1-.25.25h-.25a.25.25 0 0 1-.25-.25zm2 0a.25.25 0 0 1 .25-.25h.25a.25.25 0 0 1 .25.25v.25a.25.25 0 0 1-.25.25h-.25a.25.25 0 0 1-.25-.25zm2 0a.25.25 0 0 1 .25-.25h.25a.25.25 0 0 1 .25.25v.25a.25.25 0 0 1-.25.25h-.25a.25.25 0 0 1-.25-.25zm2 0a.25.25 0 0 1 .25-.25h.25a.25.25 0 0 1 .25.25v.25a.25.25 0 0 1-.25.25h-.25a.25.25 0 0 1-.25-.25zm2 0a.25.25 0 0 1 .25-.25h.25a.25.25 0 0 1 .25.25v.25a.25.25 0 0 1-.25.25h-.25a.25.25 0 0 1-.25-.25zm0 2a.25.25 0 0 1 .25-.25h.25a.25.25 0 0 1 .25.25v.25a.25.25 0 0 1-.25.25h-.25a.25.25 0 0 1-.25-.25zm0 2a.25.25 0 0 1 .25-.25h.25a.25.25 0 0 1 .25.25v.25a.25.25 0 0 1-.25.25h-.25a.25.25 0 0 1-.25-.25zm0 2a.25.25 0 0 1 .25-.25h.25a.25.25 0 0 1 .25.25v.25a.25.25 0 0 1-.25.25h-.25a.25.25 0 0 1-.25-.25zm0 2a.25.25 0 0 1 .25-.25h.25a.25.25 0 0 1 .25.25v.25a.25.25 0 0 1-.25.25h-.25a.25.25 0 0 1-.25-.25zm0 2a.25.25 0 0 1 .25-.25h.25a.25.25 0 0 1 .25.25v.25a.25.25 0 0 1-.25.25h-.25a.25.25 0 0 1-.25-.25z"/><path fill="#ae463b" d="M13.13 20.88a.25.25 0 0 1 .25-.25h.25a.25.25 0 0 1 .25.25v.25a.25.25 0 0 1-.25.25h-.25a.25.25 0 0 1-.25-.25zm-9-12a.25.25 0 0 1 .25-.25h.25a.25.25 0 0 1 .25.25v.25a.25.25 0 0 1-.25.25h-.25a.25.25 0 0 1-.25-.25zm0 2a.25.25 0 0 1 .25-.25h.25a.25.25 0 0 1 .25.25v.25a.25.25 0 0 1-.25.25h-.25a.25.25 0 0 1-.25-.25zm0 2a.25.25 0 0 1 .25-.25h.25a.25.25 0 0 1 .25.25v.25a.25.25 0 0 1-.25.25h-.25a.25.25 0 0 1-.25-.25zm0 2a.25.25 0 0 1 .25-.25h.25a.25.25 0 0 1 .25.25v.25a.25.25 0 0 1-.25.25h-.25a.25.25 0 0 1-.25-.25zm0 2a.25.25 0 0 1 .25-.25h.25a.25.25 0 0 1 .25.25v.25a.25.25 0 0 1-.25.25h-.25a.25.25 0 0 1-.25-.25zm0 2a.25.25 0 0 1 .25-.25h.25a.25.25 0 0 1 .25.25v.25a.25.25 0 0 1-.25.25h-.25a.25.25 0 0 1-.25-.25zm0 2a.25.25 0 0 1 .25-.25h.25a.25.25 0 0 1 .25.25v.25a.25.25 0 0 1-.25.25h-.25a.25.25 0 0 1-.25-.25zm2 0a.25.25 0 0 1 .25-.25h.25a.25.25 0 0 1 .25.25v.25a.25.25 0 0 1-.25.25h-.25a.25.25 0 0 1-.25-.25zm2 0a.25.25 0 0 1 .25-.25h.25a.25.25 0 0 1 .25.25v.25a.25.25 0 0 1-.25.25h-.25a.25.25 0 0 1-.25-.25zm2 0a.25.25 0 0 1 .25-.25h.25a.25.25 0 0 1 .25.25v.25a.25.25 0 0 1-.25.25h-.25a.25.25 0 0 1-.25-.25zm2 0a.25.25 0 0 1 .25-.25h.25a.25.25 0 0 1 .25.25v.25a.25.25 0 0 1-.25.25h-.25a.25.25 0 0 1-.25-.25zm2 0a.25.25 0 0 1 .25-.25h.25a.25.25 0 0 1 .25.25v.25a.25.25 0 0 1-.25.25h-.25a.25.25 0 0 1-.25-.25zm2 0a.25.25 0 0 1 .25-.25h.25a.25.25 0 0 1 .25.25v.25a.25.25 0 0 1-.25.25h-.25a.25.25 0 0 1-.25-.25zm2 0a.25.25 0 0 1 .25-.25h.25a.25.25 0 0 1 .25.25v.25a.25.25 0 0 1-.25.25h-.25a.25.25 0 0 1-.25-.25zm2 0a.25.25 0 0 1 .25-.25h.25a.25.25 0 0 1 .25.25v.25a.25.25 0 0 1-.25.25h-.25a.25.25 0 0 1-.25-.25zm0-2a.25.25 0 0 1 .25-.25h.25a.25.25 0 0 1 .25.25v.25a.25.25 0 0 1-.25.25h-.25a.25.25 0 0 1-.25-.25zm0-2a.25.25 0 0 1 .25-.25h.25a.25.25 0 0 1 .25.25v.25a.25.25 0 0 1-.25.25h-.25a.25.25 0 0 1-.25-.25zm0-2a.25.25 0 0 1 .25-.25h.25a.25.25 0 0 1 .25.25v.25a.25.25 0 0 1-.25.25h-.25a.25.25 0 0 1-.25-.25zm0-2a.25.25 0 0 1 .25-.25h.25a.25.25 0 0 1 .25.25v.25a.25.25 0 0 1-.25.25h-.25a.25.25 0 0 1-.25-.25zm-2 0a.25.25 0 0 1 .25-.25h.25a.25.25 0 0 1 .25.25v.25a.25.25 0 0 1-.25.25h-.25a.25.25 0 0 1-.25-.25zm-2 0a.25.25 0 0 1 .25-.25h.25a.25.25 0 0 1 .25.25v.25a.25.25 0 0 1-.25.25h-.25a.25.25 0 0 1-.25-.25zm0 2a.25.25 0 0 1 .25-.25h.25a.25.25 0 0 1 .25.25v.25a.25.25 0 0 1-.25.25h-.25a.25.25 0 0 1-.25-.25zm0 2a.25.25 0 0 1 .25-.25h.25a.25.25 0 0 1 .25.25v.25a.25.25 0 0 1-.25.25h-.25a.25.25 0 0 1-.25-.25zm0 2a.25.25 0 0 1 .25-.25h.25a.25.25 0 0 1 .25.25v.25a.25.25 0 0 1-.25.25h-.25a.25.25 0 0 1-.25-.25zm2-2a.25.25 0 0 1 .25-.25h.25a.25.25 0 0 1 .25.25v.25a.25.25 0 0 1-.25.25h-.25a.25.25 0 0 1-.25-.25zm-6 0a.25.25 0 0 1 .25-.25h.25a.25.25 0 0 1 .25.25v.25a.25.25 0 0 1-.25.25h-.25a.25.25 0 0 1-.25-.25zm-6 0a.25.25 0 0 1 .25-.25h.25a.25.25 0 0 1 .25.25v.25a.25.25 0 0 1-.25.25h-.25a.25.25 0 0 1-.25-.25zm0-4a.25.25 0 0 1 .25-.25h.25a.25.25 0 0 1 .25.25v.25a.25.25 0 0 1-.25.25h-.25a.25.25 0 0 1-.25-.25zm6 0a.25.25 0 0 1 .25-.25h.25a.25.25 0 0 1 .25.25v.25a.25.25 0 0 1-.25.25h-.25a.25.25 0 0 1-.25-.25zm-2-2a.25.25 0 0 1 .25-.25h.25a.25.25 0 0 1 .25.25v.25a.25.25 0 0 1-.25.25h-.25a.25.25 0 0 1-.25-.25zm0 2a.25.25 0 0 1 .25-.25h.25a.25.25 0 0 1 .25.25v.25a.25.25 0 0 1-.25.25h-.25a.25.25 0 0 1-.25-.25zm0 2a.25.25 0 0 1 .25-.25h.25a.25.25 0 0 1 .25.25v.25a.25.25 0 0 1-.25.25h-.25a.25.25 0 0 1-.25-.25zm0 2a.25.25 0 0 1 .25-.25h.25a.25.25 0 0 1 .25.25v.25a.25.25 0 0 1-.25.25h-.25a.25.25 0 0 1-.25-.25zm0 2a.25.25 0 0 1 .25-.25h.25a.25.25 0 0 1 .25.25v.25a.25.25 0 0 1-.25.25h-.25a.25.25 0 0 1-.25-.25zm-2-8a.25.25 0 0 1 .25-.25h.25a.25.25 0 0 1 .25.25v.25a.25.25 0 0 1-.25.25h-.25a.25.25 0 0 1-.25-.25zm0 2a.25.25 0 0 1 .25-.25h.25a.25.25 0 0 1 .25.25v.25a.25.25 0 0 1-.25.25h-.25a.25.25 0 0 1-.25-.25zm0 2a.25.25 0 0 1 .25-.25h.25a.25.25 0 0 1 .25.25v.25a.25.25 0 0 1-.25.25h-.25a.25.25 0 0 1-.25-.25zm0 2a.25.25 0 0 1 .25-.25h.25a.25.25 0 0 1 .25.25v.25a.25.25 0 0 1-.25.25h-.25a.25.25 0 0 1-.25-.25zm0 2a.25.25 0 0 1 .25-.25h.25a.25.25 0 0 1 .25.25v.25a.25.25 0 0 1-.25.25h-.25a.25.25 0 0 1-.25-.25zm-2-10a.25.25 0 0 1 .25-.25h.25a.25.25 0 0 1 .25.25v.25a.25.25 0 0 1-.25.25h-.25a.25.25 0 0 1-.25-.25zm2 0a.25.25 0 0 1 .25-.25h.25a.25.25 0 0 1 .25.25v.25a.25.25 0 0 1-.25.25h-.25a.25.25 0 0 1-.25-.25zm2 0a.25.25 0 0 1 .25-.25h.25a.25.25 0 0 1 .25.25v.25a.25.25 0 0 1-.25.25h-.25a.25.25 0 0 1-.25-.25zm2 0a.25.25 0 0 1 .25-.25h.25a.25.25 0 0 1 .25.25v.25a.25.25 0 0 1-.25.25h-.25a.25.25 0 0 1-.25-.25zm2 0a.25.25 0 0 1 .25-.25h.25a.25.25 0 0 1 .25.25v.25a.25.25 0 0 1-.25.25h-.25a.25.25 0 0 1-.25-.25zm0 2a.25.25 0 0 1 .25-.25h.25a.25.25 0 0 1 .25.25v.25a.25.25 0 0 1-.25.25h-.25a.25.25 0 0 1-.25-.25zm0 2a.25.25 0 0 1 .25-.25h.25a.25.25 0 0 1 .25.25v.25a.25.25 0 0 1-.25.25h-.25a.25.25 0 0 1-.25-.25zm0 2a.25.25 0 0 1 .25-.25h.25a.25.25 0 0 1 .25.25v.25a.25.25 0 0 1-.25.25h-.25a.25.25 0 0 1-.25-.25zm0 2a.25.25 0 0 1 .25-.25h.25a.25.25 0 0 1 .25.25v.25a.25.25 0 0 1-.25.25h-.25a.25.25 0 0 1-.25-.25zm0 2a.25.25 0 0 1 .25-.25h.25a.25.25 0 0 1 .25.25v.25a.25.25 0 0 1-.25.25h-.25a.25.25 0 0 1-.25-.25z"/><path fill="#ae463b" d="M14.13 20.88a.25.25 0 0 1 .25-.25h.25a.25.25 0 0 1 .25.25v.25a.25.25 0 0 1-.25.25h-.25a.25.25 0 0 1-.25-.25z"/></svg>