<svg xmlns="http://www.w3.org/2000/svg" width="24" height="24" fill="none" viewBox="0 0 24 24"><path fill="#79f0ee" d="M6.13 2.38a.25.25 0 0 1 .25-.25h.25a.25.25 0 0 1 .25.25v.25a.25.25 0 0 1-.25.25h-.25a.25.25 0 0 1-.25-.25zm0 1a.25.25 0 0 1 .25-.25h.25a.25.25 0 0 1 .25.25v.25a.25.25 0 0 1-.25.25h-.25a.25.25 0 0 1-.25-.25zm0 1a.25.25 0 0 1 .25-.25h.25a.25.25 0 0 1 .25.25v.25a.25.25 0 0 1-.25.25h-.25a.25.25 0 0 1-.25-.25zm2 0a.25.25 0 0 1 .25-.25h.25a.25.25 0 0 1 .25.25v.25a.25.25 0 0 1-.25.25h-.25a.25.25 0 0 1-.25-.25zm2 0a.25.25 0 0 1 .25-.25h.25a.25.25 0 0 1 .25.25v.25a.25.25 0 0 1-.25.25h-.25a.25.25 0 0 1-.25-.25zm2 0a.25.25 0 0 1 .25-.25h.25a.25.25 0 0 1 .25.25v.25a.25.25 0 0 1-.25.25h-.25a.25.25 0 0 1-.25-.25zm2 0a.25.25 0 0 1 .25-.25h.25a.25.25 0 0 1 .25.25v.25a.25.25 0 0 1-.25.25h-.25a.25.25 0 0 1-.25-.25zm2 0a.25.25 0 0 1 .25-.25h.25a.25.25 0 0 1 .25.25v.25a.25.25 0 0 1-.25.25h-.25a.25.25 0 0 1-.25-.25zm0-2a.25.25 0 0 1 .25-.25h.25a.25.25 0 0 1 .25.25v.25a.25.25 0 0 1-.25.25h-.25a.25.25 0 0 1-.25-.25zm1 6a.25.25 0 0 1 .25-.25h.25a.25.25 0 0 1 .25.25v.25a.25.25 0 0 1-.25.25h-.25a.25.25 0 0 1-.25-.25zm-2 0a.25.25 0 0 1 .25-.25h.25a.25.25 0 0 1 .25.25v.25a.25.25 0 0 1-.25.25h-.25a.25.25 0 0 1-.25-.25zm-2 0a.25.25 0 0 1 .25-.25h.25a.25.25 0 0 1 .25.25v.25a.25.25 0 0 1-.25.25h-.25a.25.25 0 0 1-.25-.25zm-2 0a.25.25 0 0 1 .25-.25h.25a.25.25 0 0 1 .25.25v.25a.25.25 0 0 1-.25.25h-.25a.25.25 0 0 1-.25-.25zm-2 0a.25.25 0 0 1 .25-.25h.25a.25.25 0 0 1 .25.25v.25a.25.25 0 0 1-.25.25h-.25a.25.25 0 0 1-.25-.25zm-2 0a.25.25 0 0 1 .25-.25h.25a.25.25 0 0 1 .25.25v.25a.25.25 0 0 1-.25.25h-.25a.25.25 0 0 1-.25-.25zm-2 0a.25.25 0 0 1 .25-.25h.25a.25.25 0 0 1 .25.25v.25a.25.25 0 0 1-.25.25h-.25a.25.25 0 0 1-.25-.25zm2 4a.25.25 0 0 1 .25-.25h.25a.25.25 0 0 1 .25.25v.25a.25.25 0 0 1-.25.25h-.25a.25.25 0 0 1-.25-.25zm4 0a.25.25 0 0 1 .25-.25h.25a.25.25 0 0 1 .25.25v.25a.25.25 0 0 1-.25.25h-.25a.25.25 0 0 1-.25-.25zm4 0a.25.25 0 0 1 .25-.25h.25a.25.25 0 0 1 .25.25v.25a.25.25 0 0 1-.25.25h-.25a.25.25 0 0 1-.25-.25zm0 4a.25.25 0 0 1 .25-.25h.25a.25.25 0 0 1 .25.25v.25a.25.25 0 0 1-.25.25h-.25a.25.25 0 0 1-.25-.25zm-4 0a.25.25 0 0 1 .25-.25h.25a.25.25 0 0 1 .25.25v.25a.25.25 0 0 1-.25.25h-.25a.25.25 0 0 1-.25-.25zm-4 0a.25.25 0 0 1 .25-.25h.25a.25.25 0 0 1 .25.25v.25a.25.25 0 0 1-.25.25h-.25a.25.25 0 0 1-.25-.25zm11-12a.25.25 0 0 1 .25-.25h.25a.25.25 0 0 1 .25.25v.25a.25.25 0 0 1-.25.25h-.25a.25.25 0 0 1-.25-.25zm-12 1a.25.25 0 0 1 .25-.25h.25a.25.25 0 0 1 .25.25v.25a.25.25 0 0 1-.25.25h-.25a.25.25 0 0 1-.25-.25zm2 0a.25.25 0 0 1 .25-.25h.25a.25.25 0 0 1 .25.25v.25a.25.25 0 0 1-.25.25h-.25a.25.25 0 0 1-.25-.25zm2 0a.25.25 0 0 1 .25-.25h.25a.25.25 0 0 1 .25.25v.25a.25.25 0 0 1-.25.25h-.25a.25.25 0 0 1-.25-.25zm2 0a.25.25 0 0 1 .25-.25h.25a.25.25 0 0 1 .25.25v.25a.25.25 0 0 1-.25.25h-.25a.25.25 0 0 1-.25-.25zm2 0a.25.25 0 0 1 .25-.25h.25a.25.25 0 0 1 .25.25v.25a.25.25 0 0 1-.25.25h-.25a.25.25 0 0 1-.25-.25zm2 0a.25.25 0 0 1 .25-.25h.25a.25.25 0 0 1 .25.25v.25a.25.25 0 0 1-.25.25h-.25a.25.25 0 0 1-.25-.25zm0-2a.25.25 0 0 1 .25-.25h.25a.25.25 0 0 1 .25.25v.25a.25.25 0 0 1-.25.25h-.25a.25.25 0 0 1-.25-.25zm1 6a.25.25 0 0 1 .25-.25h.25a.25.25 0 0 1 .25.25v.25a.25.25 0 0 1-.25.25h-.25a.25.25 0 0 1-.25-.25zm-2 0a.25.25 0 0 1 .25-.25h.25a.25.25 0 0 1 .25.25v.25a.25.25 0 0 1-.25.25h-.25a.25.25 0 0 1-.25-.25zm-2 0a.25.25 0 0 1 .25-.25h.25a.25.25 0 0 1 .25.25v.25a.25.25 0 0 1-.25.25h-.25a.25.25 0 0 1-.25-.25zm-2 0a.25.25 0 0 1 .25-.25h.25a.25.25 0 0 1 .25.25v.25a.25.25 0 0 1-.25.25h-.25a.25.25 0 0 1-.25-.25zm-2 0a.25.25 0 0 1 .25-.25h.25a.25.25 0 0 1 .25.25v.25a.25.25 0 0 1-.25.25h-.25a.25.25 0 0 1-.25-.25zm-2 0a.25.25 0 0 1 .25-.25h.25a.25.25 0 0 1 .25.25v.25a.25.25 0 0 1-.25.25h-.25a.25.25 0 0 1-.25-.25zm-2 0a.25.25 0 0 1 .25-.25h.25a.25.25 0 0 1 .25.25v.25a.25.25 0 0 1-.25.25h-.25a.25.25 0 0 1-.25-.25zm2 4a.25.25 0 0 1 .25-.25h.25a.25.25 0 0 1 .25.25v.25a.25.25 0 0 1-.25.25h-.25a.25.25 0 0 1-.25-.25zm4 0a.25.25 0 0 1 .25-.25h.25a.25.25 0 0 1 .25.25v.25a.25.25 0 0 1-.25.25h-.25a.25.25 0 0 1-.25-.25zm4 0a.25.25 0 0 1 .25-.25h.25a.25.25 0 0 1 .25.25v.25a.25.25 0 0 1-.25.25h-.25a.25.25 0 0 1-.25-.25zm0 4a.25.25 0 0 1 .25-.25h.25a.25.25 0 0 1 .25.25v.25a.25.25 0 0 1-.25.25h-.25a.25.25 0 0 1-.25-.25zm-4 0a.25.25 0 0 1 .25-.25h.25a.25.25 0 0 1 .25.25v.25a.25.25 0 0 1-.25.25h-.25a.25.25 0 0 1-.25-.25zm-4 0a.25.25 0 0 1 .25-.25h.25a.25.25 0 0 1 .25.25v.25a.25.25 0 0 1-.25.25h-.25a.25.25 0 0 1-.25-.25zm11-12a.25.25 0 0 1 .25-.25h.25a.25.25 0 0 1 .25.25v.25a.25.25 0 0 1-.25.25h-.25a.25.25 0 0 1-.25-.25zm-11-3a.25.25 0 0 1 .25-.25h.25a.25.25 0 0 1 .25.25v.25a.25.25 0 0 1-.25.25h-.25a.25.25 0 0 1-.25-.25zm0 1a.25.25 0 0 1 .25-.25h.25a.25.25 0 0 1 .25.25v.25a.25.25 0 0 1-.25.25h-.25a.25.25 0 0 1-.25-.25zm0 1a.25.25 0 0 1 .25-.25h.25a.25.25 0 0 1 .25.25v.25a.25.25 0 0 1-.25.25h-.25a.25.25 0 0 1-.25-.25zm2 0a.25.25 0 0 1 .25-.25h.25a.25.25 0 0 1 .25.25v.25a.25.25 0 0 1-.25.25h-.25a.25.25 0 0 1-.25-.25zm2 0a.25.25 0 0 1 .25-.25h.25a.25.25 0 0 1 .25.25v.25a.25.25 0 0 1-.25.25h-.25a.25.25 0 0 1-.25-.25zm2 0a.25.25 0 0 1 .25-.25h.25a.25.25 0 0 1 .25.25v.25a.25.25 0 0 1-.25.25h-.25a.25.25 0 0 1-.25-.25zm2 0a.25.25 0 0 1 .25-.25h.25a.25.25 0 0 1 .25.25v.25a.25.25 0 0 1-.25.25h-.25a.25.25 0 0 1-.25-.25zm2 0a.25.25 0 0 1 .25-.25h.25a.25.25 0 0 1 .25.25v.25a.25.25 0 0 1-.25.25h-.25a.25.25 0 0 1-.25-.25zm0-2a.25.25 0 0 1 .25-.25h.25a.25.25 0 0 1 .25.25v.25a.25.25 0 0 1-.25.25h-.25a.25.25 0 0 1-.25-.25zm1 6a.25.25 0 0 1 .25-.25h.25a.25.25 0 0 1 .25.25v.25a.25.25 0 0 1-.25.25h-.25a.25.25 0 0 1-.25-.25zm-2 0a.25.25 0 0 1 .25-.25h.25a.25.25 0 0 1 .25.25v.25a.25.25 0 0 1-.25.25h-.25a.25.25 0 0 1-.25-.25zm-2 0a.25.25 0 0 1 .25-.25h.25a.25.25 0 0 1 .25.25v.25a.25.25 0 0 1-.25.25h-.25a.25.25 0 0 1-.25-.25zm-2 0a.25.25 0 0 1 .25-.25h.25a.25.25 0 0 1 .25.25v.25a.25.25 0 0 1-.25.25h-.25a.25.25 0 0 1-.25-.25zm-2 0a.25.25 0 0 1 .25-.25h.25a.25.25 0 0 1 .25.25v.25a.25.25 0 0 1-.25.25h-.25a.25.25 0 0 1-.25-.25zm-2 0a.25.25 0 0 1 .25-.25h.25a.25.25 0 0 1 .25.25v.25a.25.25 0 0 1-.25.25h-.25a.25.25 0 0 1-.25-.25zm-2 0a.25.25 0 0 1 .25-.25h.25a.25.25 0 0 1 .25.25v.25a.25.25 0 0 1-.25.25h-.25a.25.25 0 0 1-.25-.25zm2 4a.25.25 0 0 1 .25-.25h.25a.25.25 0 0 1 .25.25v.25a.25.25 0 0 1-.25.25h-.25a.25.25 0 0 1-.25-.25zm4 0a.25.25 0 0 1 .25-.25h.25a.25.25 0 0 1 .25.25v.25a.25.25 0 0 1-.25.25h-.25a.25.25 0 0 1-.25-.25zm4 0a.25.25 0 0 1 .25-.25h.25a.25.25 0 0 1 .25.25v.25a.25.25 0 0 1-.25.25h-.25a.25.25 0 0 1-.25-.25zm0 4a.25.25 0 0 1 .25-.25h.25a.25.25 0 0 1 .25.25v.25a.25.25 0 0 1-.25.25h-.25a.25.25 0 0 1-.25-.25zm-4 0a.25.25 0 0 1 .25-.25h.25a.25.25 0 0 1 .25.25v.25a.25.25 0 0 1-.25.25h-.25a.25.25 0 0 1-.25-.25zm-4 0a.25.25 0 0 1 .25-.25h.25a.25.25 0 0 1 .25.25v.25a.25.25 0 0 1-.25.25h-.25a.25.25 0 0 1-.25-.25zm11-12a.25.25 0 0 1 .25-.25h.25a.25.25 0 0 1 .25.25v.25a.25.25 0 0 1-.25.25h-.25a.25.25 0 0 1-.25-.25zm-12 1a.25.25 0 0 1 .25-.25h.25a.25.25 0 0 1 .25.25v.25a.25.25 0 0 1-.25.25h-.25a.25.25 0 0 1-.25-.25zm2 0a.25.25 0 0 1 .25-.25h.25a.25.25 0 0 1 .25.25v.25a.25.25 0 0 1-.25.25h-.25a.25.25 0 0 1-.25-.25zm2 0a.25.25 0 0 1 .25-.25h.25a.25.25 0 0 1 .25.25v.25a.25.25 0 0 1-.25.25h-.25a.25.25 0 0 1-.25-.25zm2 0a.25.25 0 0 1 .25-.25h.25a.25.25 0 0 1 .25.25v.25a.25.25 0 0 1-.25.25h-.25a.25.25 0 0 1-.25-.25zm2 0a.25.25 0 0 1 .25-.25h.25a.25.25 0 0 1 .25.25v.25a.25.25 0 0 1-.25.25h-.25a.25.25 0 0 1-.25-.25zm2 0a.25.25 0 0 1 .25-.25h.25a.25.25 0 0 1 .25.25v.25a.25.25 0 0 1-.25.25h-.25a.25.25 0 0 1-.25-.25zm0-2a.25.25 0 0 1 .25-.25h.25a.25.25 0 0 1 .25.25v.25a.25.25 0 0 1-.25.25h-.25a.25.25 0 0 1-.25-.25zm1 6a.25.25 0 0 1 .25-.25h.25a.25.25 0 0 1 .25.25v.25a.25.25 0 0 1-.25.25h-.25a.25.25 0 0 1-.25-.25zm-2 0a.25.25 0 0 1 .25-.25h.25a.25.25 0 0 1 .25.25v.25a.25.25 0 0 1-.25.25h-.25a.25.25 0 0 1-.25-.25zm-2 0a.25.25 0 0 1 .25-.25h.25a.25.25 0 0 1 .25.25v.25a.25.25 0 0 1-.25.25h-.25a.25.25 0 0 1-.25-.25zm-2 0a.25.25 0 0 1 .25-.25h.25a.25.25 0 0 1 .25.25v.25a.25.25 0 0 1-.25.25h-.25a.25.25 0 0 1-.25-.25zm-2 0a.25.25 0 0 1 .25-.25h.25a.25.25 0 0 1 .25.25v.25a.25.25 0 0 1-.25.25h-.25a.25.25 0 0 1-.25-.25zm-2 0a.25.25 0 0 1 .25-.25h.25a.25.25 0 0 1 .25.25v.25a.25.25 0 0 1-.25.25h-.25a.25.25 0 0 1-.25-.25zm-2 0a.25.25 0 0 1 .25-.25h.25a.25.25 0 0 1 .25.25v.25a.25.25 0 0 1-.25.25h-.25a.25.25 0 0 1-.25-.25zm2 4a.25.25 0 0 1 .25-.25h.25a.25.25 0 0 1 .25.25v.25a.25.25 0 0 1-.25.25h-.25a.25.25 0 0 1-.25-.25zm4 0a.25.25 0 0 1 .25-.25h.25a.25.25 0 0 1 .25.25v.25a.25.25 0 0 1-.25.25h-.25a.25.25 0 0 1-.25-.25zm4 0a.25.25 0 0 1 .25-.25h.25a.25.25 0 0 1 .25.25v.25a.25.25 0 0 1-.25.25h-.25a.25.25 0 0 1-.25-.25zm0 4a.25.25 0 0 1 .25-.25h.25a.25.25 0 0 1 .25.25v.25a.25.25 0 0 1-.25.25h-.25a.25.25 0 0 1-.25-.25zm-4 0a.25.25 0 0 1 .25-.25h.25a.25.25 0 0 1 .25.25v.25a.25.25 0 0 1-.25.25h-.25a.25.25 0 0 1-.25-.25zm-4 0a.25.25 0 0 1 .25-.25h.25a.25.25 0 0 1 .25.25v.25a.25.25 0 0 1-.25.25h-.25a.25.25 0 0 1-.25-.25zm11-12a.25.25 0 0 1 .25-.25h.25a.25.25 0 0 1 .25.25v.25a.25.25 0 0 1-.25.25h-.25a.25.25 0 0 1-.25-.25zm0 1a.25.25 0 0 1 .25-.25h.25a.25.25 0 0 1 .25.25v.25a.25.25 0 0 1-.25.25h-.25a.25.25 0 0 1-.25-.25zm0 1a.25.25 0 0 1 .25-.25h.25a.25.25 0 0 1 .25.25v.25a.25.25 0 0 1-.25.25h-.25a.25.25 0 0 1-.25-.25zm0 1a.25.25 0 0 1 .25-.25h.25a.25.25 0 0 1 .25.25v.25a.25.25 0 0 1-.25.25h-.25a.25.25 0 0 1-.25-.25zm0 1a.25.25 0 0 1 .25-.25h.25a.25.25 0 0 1 .25.25v.25a.25.25 0 0 1-.25.25h-.25a.25.25 0 0 1-.25-.25zm0 1a.25.25 0 0 1 .25-.25h.25a.25.25 0 0 1 .25.25v.25a.25.25 0 0 1-.25.25h-.25a.25.25 0 0 1-.25-.25zm0 1a.25.25 0 0 1 .25-.25h.25a.25.25 0 0 1 .25.25v.25a.25.25 0 0 1-.25.25h-.25a.25.25 0 0 1-.25-.25zm0 1a.25.25 0 0 1 .25-.25h.25a.25.25 0 0 1 .25.25v.25a.25.25 0 0 1-.25.25h-.25a.25.25 0 0 1-.25-.25zm0 1a.25.25 0 0 1 .25-.25h.25a.25.25 0 0 1 .25.25v.25a.25.25 0 0 1-.25.25h-.25a.25.25 0 0 1-.25-.25zm0 1a.25.25 0 0 1 .25-.25h.25a.25.25 0 0 1 .25.25v.25a.25.25 0 0 1-.25.25h-.25a.25.25 0 0 1-.25-.25zm0 1a.25.25 0 0 1 .25-.25h.25a.25.25 0 0 1 .25.25v.25a.25.25 0 0 1-.25.25h-.25a.25.25 0 0 1-.25-.25zm0 1a.25.25 0 0 1 .25-.25h.25a.25.25 0 0 1 .25.25v.25a.25.25 0 0 1-.25.25h-.25a.25.25 0 0 1-.25-.25zm0 1a.25.25 0 0 1 .25-.25h.25a.25.25 0 0 1 .25.25v.25a.25.25 0 0 1-.25.25h-.25a.25.25 0 0 1-.25-.25zm0 1a.25.25 0 0 1 .25-.25h.25a.25.25 0 0 1 .25.25v.25a.25.25 0 0 1-.25.25h-.25a.25.25 0 0 1-.25-.25zm0 1a.25.25 0 0 1 .25-.25h.25a.25.25 0 0 1 .25.25v.25a.25.25 0 0 1-.25.25h-.25a.25.25 0 0 1-.25-.25zm0 1a.25.25 0 0 1 .25-.25h.25a.25.25 0 0 1 .25.25v.25a.25.25 0 0 1-.25.25h-.25a.25.25 0 0 1-.25-.25zm0 1a.25.25 0 0 1 .25-.25h.25a.25.25 0 0 1 .25.25v.25a.25.25 0 0 1-.25.25h-.25a.25.25 0 0 1-.25-.25zm-1-1a.25.25 0 0 1 .25-.25h.25a.25.25 0 0 1 .25.25v.25a.25.25 0 0 1-.25.25h-.25a.25.25 0 0 1-.25-.25zm-1 0a.25.25 0 0 1 .25-.25h.25a.25.25 0 0 1 .25.25v.25a.25.25 0 0 1-.25.25h-.25a.25.25 0 0 1-.25-.25zm-1 0a.25.25 0 0 1 .25-.25h.25a.25.25 0 0 1 .25.25v.25a.25.25 0 0 1-.25.25h-.25a.25.25 0 0 1-.25-.25zm-1 0a.25.25 0 0 1 .25-.25h.25a.25.25 0 0 1 .25.25v.25a.25.25 0 0 1-.25.25h-.25a.25.25 0 0 1-.25-.25zm-1 0a.25.25 0 0 1 .25-.25h.25a.25.25 0 0 1 .25.25v.25a.25.25 0 0 1-.25.25h-.25a.25.25 0 0 1-.25-.25zm-1 0a.25.25 0 0 1 .25-.25h.25a.25.25 0 0 1 .25.25v.25a.25.25 0 0 1-.25.25h-.25a.25.25 0 0 1-.25-.25zm-1 0a.25.25 0 0 1 .25-.25h.25a.25.25 0 0 1 .25.25v.25a.25.25 0 0 1-.25.25h-.25a.25.25 0 0 1-.25-.25zm-1 0a.25.25 0 0 1 .25-.25h.25a.25.25 0 0 1 .25.25v.25a.25.25 0 0 1-.25.25h-.25a.25.25 0 0 1-.25-.25zm-1 0a.25.25 0 0 1 .25-.25h.25a.25.25 0 0 1 .25.25v.25a.25.25 0 0 1-.25.25h-.25a.25.25 0 0 1-.25-.25zm-1 0a.25.25 0 0 1 .25-.25h.25a.25.25 0 0 1 .25.25v.25a.25.25 0 0 1-.25.25h-.25a.25.25 0 0 1-.25-.25zm-1 0a.25.25 0 0 1 .25-.25h.25a.25.25 0 0 1 .25.25v.25a.25.25 0 0 1-.25.25h-.25a.25.25 0 0 1-.25-.25zm-1 0a.25.25 0 0 1 .25-.25h.25a.25.25 0 0 1 .25.25v.25a.25.25 0 0 1-.25.25h-.25a.25.25 0 0 1-.25-.25zm-1 0a.25.25 0 0 1 .25-.25h.25a.25.25 0 0 1 .25.25v.25a.25.25 0 0 1-.25.25h-.25a.25.25 0 0 1-.25-.25zm-1 0a.25.25 0 0 1 .25-.25h.25a.25.25 0 0 1 .25.25v.25a.25.25 0 0 1-.25.25h-.25a.25.25 0 0 1-.25-.25zm-1 0a.25.25 0 0 1 .25-.25h.25a.25.25 0 0 1 .25.25v.25a.25.25 0 0 1-.25.25h-.25a.25.25 0 0 1-.25-.25zm0-1a.25.25 0 0 1 .25-.25h.25a.25.25 0 0 1 .25.25v.25a.25.25 0 0 1-.25.25h-.25a.25.25 0 0 1-.25-.25zm0-1a.25.25 0 0 1 .25-.25h.25a.25.25 0 0 1 .25.25v.25a.25.25 0 0 1-.25.25h-.25a.25.25 0 0 1-.25-.25zm0-1a.25.25 0 0 1 .25-.25h.25a.25.25 0 0 1 .25.25v.25a.25.25 0 0 1-.25.25h-.25a.25.25 0 0 1-.25-.25zm0-1a.25.25 0 0 1 .25-.25h.25a.25.25 0 0 1 .25.25v.25a.25.25 0 0 1-.25.25h-.25a.25.25 0 0 1-.25-.25zm0-1a.25.25 0 0 1 .25-.25h.25a.25.25 0 0 1 .25.25v.25a.25.25 0 0 1-.25.25h-.25a.25.25 0 0 1-.25-.25zm0-1a.25.25 0 0 1 .25-.25h.25a.25.25 0 0 1 .25.25v.25a.25.25 0 0 1-.25.25h-.25a.25.25 0 0 1-.25-.25zm0-1a.25.25 0 0 1 .25-.25h.25a.25.25 0 0 1 .25.25v.25a.25.25 0 0 1-.25.25h-.25a.25.25 0 0 1-.25-.25zm0-1a.25.25 0 0 1 .25-.25h.25a.25.25 0 0 1 .25.25v.25a.25.25 0 0 1-.25.25h-.25a.25.25 0 0 1-.25-.25zm0-1a.25.25 0 0 1 .25-.25h.25a.25.25 0 0 1 .25.25v.25a.25.25 0 0 1-.25.25h-.25a.25.25 0 0 1-.25-.25zm0-1a.25.25 0 0 1 .25-.25h.25a.25.25 0 0 1 .25.25v.25a.25.25 0 0 1-.25.25h-.25a.25.25 0 0 1-.25-.25zm0-1a.25.25 0 0 1 .25-.25h.25a.25.25 0 0 1 .25.25v.25a.25.25 0 0 1-.25.25h-.25a.25.25 0 0 1-.25-.25zm0-1a.25.25 0 0 1 .25-.25h.25a.25.25 0 0 1 .25.25v.25a.25.25 0 0 1-.25.25h-.25a.25.25 0 0 1-.25-.25zm0-1a.25.25 0 0 1 .25-.25h.25a.25.25 0 0 1 .25.25v.25a.25.25 0 0 1-.25.25h-.25a.25.25 0 0 1-.25-.25zm0-1a.25.25 0 0 1 .25-.25h.25a.25.25 0 0 1 .25.25v.25a.25.25 0 0 1-.25.25h-.25a.25.25 0 0 1-.25-.25zm0-1a.25.25 0 0 1 .25-.25h.25a.25.25 0 0 1 .25.25v.25a.25.25 0 0 1-.25.25h-.25a.25.25 0 0 1-.25-.25zm1 0a.25.25 0 0 1 .25-.25h.25a.25.25 0 0 1 .25.25v.25a.25.25 0 0 1-.25.25h-.25a.25.25 0 0 1-.25-.25zm-1-1a.25.25 0 0 1 .25-.25h.25a.25.25 0 0 1 .25.25v.25a.25.25 0 0 1-.25.25h-.25a.25.25 0 0 1-.25-.25zm1 0a.25.25 0 0 1 .25-.25h.25a.25.25 0 0 1 .25.25v.25a.25.25 0 0 1-.25.25h-.25a.25.25 0 0 1-.25-.25zm-2 16a.25.25 0 0 1 .25-.25h.25a.25.25 0 0 1 .25.25v.25a.25.25 0 0 1-.25.25h-.25a.25.25 0 0 1-.25-.25zm0-1a.25.25 0 0 1 .25-.25h.25a.25.25 0 0 1 .25.25v.25a.25.25 0 0 1-.25.25h-.25a.25.25 0 0 1-.25-.25zm0-1a.25.25 0 0 1 .25-.25h.25a.25.25 0 0 1 .25.25v.25a.25.25 0 0 1-.25.25h-.25a.25.25 0 0 1-.25-.25zm0-1a.25.25 0 0 1 .25-.25h.25a.25.25 0 0 1 .25.25v.25a.25.25 0 0 1-.25.25h-.25a.25.25 0 0 1-.25-.25zm0-1a.25.25 0 0 1 .25-.25h.25a.25.25 0 0 1 .25.25v.25a.25.25 0 0 1-.25.25h-.25a.25.25 0 0 1-.25-.25zm0-1a.25.25 0 0 1 .25-.25h.25a.25.25 0 0 1 .25.25v.25a.25.25 0 0 1-.25.25h-.25a.25.25 0 0 1-.25-.25zm0-1a.25.25 0 0 1 .25-.25h.25a.25.25 0 0 1 .25.25v.25a.25.25 0 0 1-.25.25h-.25a.25.25 0 0 1-.25-.25zm0-1a.25.25 0 0 1 .25-.25h.25a.25.25 0 0 1 .25.25v.25a.25.25 0 0 1-.25.25h-.25a.25.25 0 0 1-.25-.25zm0-1a.25.25 0 0 1 .25-.25h.25a.25.25 0 0 1 .25.25v.25a.25.25 0 0 1-.25.25h-.25a.25.25 0 0 1-.25-.25zm0-1a.25.25 0 0 1 .25-.25h.25a.25.25 0 0 1 .25.25v.25a.25.25 0 0 1-.25.25h-.25a.25.25 0 0 1-.25-.25zm0-1a.25.25 0 0 1 .25-.25h.25a.25.25 0 0 1 .25.25v.25a.25.25 0 0 1-.25.25h-.25a.25.25 0 0 1-.25-.25zm0-1a.25.25 0 0 1 .25-.25h.25a.25.25 0 0 1 .25.25v.25a.25.25 0 0 1-.25.25h-.25a.25.25 0 0 1-.25-.25zm0-1a.25.25 0 0 1 .25-.25h.25a.25.25 0 0 1 .25.25v.25a.25.25 0 0 1-.25.25h-.25a.25.25 0 0 1-.25-.25zm0-1a.25.25 0 0 1 .25-.25h.25a.25.25 0 0 1 .25.25v.25a.25.25 0 0 1-.25.25h-.25a.25.25 0 0 1-.25-.25zm0-1a.25.25 0 0 1 .25-.25h.25a.25.25 0 0 1 .25.25v.25a.25.25 0 0 1-.25.25h-.25a.25.25 0 0 1-.25-.25zm0-1a.25.25 0 0 1 .25-.25h.25a.25.25 0 0 1 .25.25v.25a.25.25 0 0 1-.25.25h-.25a.25.25 0 0 1-.25-.25zm15 16a.25.25 0 0 1 .25-.25h.25a.25.25 0 0 1 .25.25v.25a.25.25 0 0 1-.25.25h-.25a.25.25 0 0 1-.25-.25zm-1 0a.25.25 0 0 1 .25-.25h.25a.25.25 0 0 1 .25.25v.25a.25.25 0 0 1-.25.25h-.25a.25.25 0 0 1-.25-.25zm-1 0a.25.25 0 0 1 .25-.25h.25a.25.25 0 0 1 .25.25v.25a.25.25 0 0 1-.25.25h-.25a.25.25 0 0 1-.25-.25zm-1 0a.25.25 0 0 1 .25-.25h.25a.25.25 0 0 1 .25.25v.25a.25.25 0 0 1-.25.25h-.25a.25.25 0 0 1-.25-.25zm-1 0a.25.25 0 0 1 .25-.25h.25a.25.25 0 0 1 .25.25v.25a.25.25 0 0 1-.25.25h-.25a.25.25 0 0 1-.25-.25zm-1 0a.25.25 0 0 1 .25-.25h.25a.25.25 0 0 1 .25.25v.25a.25.25 0 0 1-.25.25h-.25a.25.25 0 0 1-.25-.25zm-1 0a.25.25 0 0 1 .25-.25h.25a.25.25 0 0 1 .25.25v.25a.25.25 0 0 1-.25.25h-.25a.25.25 0 0 1-.25-.25zm-1 0a.25.25 0 0 1 .25-.25h.25a.25.25 0 0 1 .25.25v.25a.25.25 0 0 1-.25.25h-.25a.25.25 0 0 1-.25-.25zm-1 0a.25.25 0 0 1 .25-.25h.25a.25.25 0 0 1 .25.25v.25a.25.25 0 0 1-.25.25h-.25a.25.25 0 0 1-.25-.25zm-1 0a.25.25 0 0 1 .25-.25h.25a.25.25 0 0 1 .25.25v.25a.25.25 0 0 1-.25.25h-.25a.25.25 0 0 1-.25-.25zm-1 0a.25.25 0 0 1 .25-.25h.25a.25.25 0 0 1 .25.25v.25a.25.25 0 0 1-.25.25h-.25a.25.25 0 0 1-.25-.25zm-1 0a.25.25 0 0 1 .25-.25h.25a.25.25 0 0 1 .25.25v.25a.25.25 0 0 1-.25.25h-.25a.25.25 0 0 1-.25-.25zm-1 0a.25.25 0 0 1 .25-.25h.25a.25.25 0 0 1 .25.25v.25a.25.25 0 0 1-.25.25h-.25a.25.25 0 0 1-.25-.25zm-1 0a.25.25 0 0 1 .25-.25h.25a.25.25 0 0 1 .25.25v.25a.25.25 0 0 1-.25.25h-.25a.25.25 0 0 1-.25-.25zm-1 0a.25.25 0 0 1 .25-.25h.25a.25.25 0 0 1 .25.25v.25a.25.25 0 0 1-.25.25h-.25a.25.25 0 0 1-.25-.25zm16-16a.25.25 0 0 1 .25-.25h.25a.25.25 0 0 1 .25.25v.25a.25.25 0 0 1-.25.25h-.25a.25.25 0 0 1-.25-.25zm0 1a.25.25 0 0 1 .25-.25h.25a.25.25 0 0 1 .25.25v.25a.25.25 0 0 1-.25.25h-.25a.25.25 0 0 1-.25-.25zm0 1a.25.25 0 0 1 .25-.25h.25a.25.25 0 0 1 .25.25v.25a.25.25 0 0 1-.25.25h-.25a.25.25 0 0 1-.25-.25zm0 1a.25.25 0 0 1 .25-.25h.25a.25.25 0 0 1 .25.25v.25a.25.25 0 0 1-.25.25h-.25a.25.25 0 0 1-.25-.25zm0 1a.25.25 0 0 1 .25-.25h.25a.25.25 0 0 1 .25.25v.25a.25.25 0 0 1-.25.25h-.25a.25.25 0 0 1-.25-.25zm0 1a.25.25 0 0 1 .25-.25h.25a.25.25 0 0 1 .25.25v.25a.25.25 0 0 1-.25.25h-.25a.25.25 0 0 1-.25-.25zm0 1a.25.25 0 0 1 .25-.25h.25a.25.25 0 0 1 .25.25v.25a.25.25 0 0 1-.25.25h-.25a.25.25 0 0 1-.25-.25zm0 1a.25.25 0 0 1 .25-.25h.25a.25.25 0 0 1 .25.25v.25a.25.25 0 0 1-.25.25h-.25a.25.25 0 0 1-.25-.25zm0 1a.25.25 0 0 1 .25-.25h.25a.25.25 0 0 1 .25.25v.25a.25.25 0 0 1-.25.25h-.25a.25.25 0 0 1-.25-.25zm0 1a.25.25 0 0 1 .25-.25h.25a.25.25 0 0 1 .25.25v.25a.25.25 0 0 1-.25.25h-.25a.25.25 0 0 1-.25-.25zm0 1a.25.25 0 0 1 .25-.25h.25a.25.25 0 0 1 .25.25v.25a.25.25 0 0 1-.25.25h-.25a.25.25 0 0 1-.25-.25zm0 1a.25.25 0 0 1 .25-.25h.25a.25.25 0 0 1 .25.25v.25a.25.25 0 0 1-.25.25h-.25a.25.25 0 0 1-.25-.25zm0 1a.25.25 0 0 1 .25-.25h.25a.25.25 0 0 1 .25.25v.25a.25.25 0 0 1-.25.25h-.25a.25.25 0 0 1-.25-.25zm0 1a.25.25 0 0 1 .25-.25h.25a.25.25 0 0 1 .25.25v.25a.25.25 0 0 1-.25.25h-.25a.25.25 0 0 1-.25-.25zm0 1a.25.25 0 0 1 .25-.25h.25a.25.25 0 0 1 .25.25v.25a.25.25 0 0 1-.25.25h-.25a.25.25 0 0 1-.25-.25zm0 1a.25.25 0 0 1 .25-.25h.25a.25.25 0 0 1 .25.25v.25a.25.25 0 0 1-.25.25h-.25a.25.25 0 0 1-.25-.25z"/></svg>