<svg xmlns="http://www.w3.org/2000/svg" width="16" height="16" fill="none" viewBox="0 0 16 16"><path fill="#2d88be" d="M4.087 1.587c0-.092.075-.167.167-.167h.166c.092 0 .167.075.167.167v.166a.167.167 0 0 1-.167.167h-.166a.167.167 0 0 1-.167-.167zm0 .666c0-.092.075-.166.167-.166h.166c.092 0 .167.074.167.166v.167a.167.167 0 0 1-.167.167h-.166a.167.167 0 0 1-.167-.167zm0 .667c0-.092.075-.167.167-.167h.166c.092 0 .167.075.167.167v.167a.167.167 0 0 1-.167.166h-.166a.167.167 0 0 1-.167-.166zm1.333 0c0-.092.075-.167.167-.167h.167c.092 0 .166.075.166.167v.167a.167.167 0 0 1-.166.166h-.167a.167.167 0 0 1-.167-.166zm1.334 0c0-.092.074-.167.166-.167h.167c.092 0 .167.075.167.167v.167a.167.167 0 0 1-.167.166H6.92a.167.167 0 0 1-.166-.166zm1.333 0c0-.092.075-.167.167-.167h.166c.092 0 .167.075.167.167v.167a.167.167 0 0 1-.167.166h-.166a.167.167 0 0 1-.167-.166zm1.333 0c0-.092.075-.167.167-.167h.167c.092 0 .166.075.166.167v.167a.167.167 0 0 1-.166.166h-.167a.167.167 0 0 1-.167-.166zm1.334 0c0-.092.074-.167.166-.167h.167c.092 0 .167.075.167.167v.167a.167.167 0 0 1-.167.166h-.167a.167.167 0 0 1-.166-.166zm0-1.333c0-.092.074-.167.166-.167h.167c.092 0 .167.075.167.167v.166a.167.167 0 0 1-.167.167h-.167a.167.167 0 0 1-.166-.167zm.666 4c0-.092.075-.167.167-.167h.167c.092 0 .166.075.166.167v.166a.167.167 0 0 1-.166.167h-.167a.167.167 0 0 1-.167-.167zm-1.333 0c0-.092.075-.167.167-.167h.166c.092 0 .167.075.167.167v.166a.167.167 0 0 1-.167.167h-.166a.167.167 0 0 1-.167-.167zm-1.333 0c0-.092.074-.167.166-.167h.167c.092 0 .167.075.167.167v.166a.167.167 0 0 1-.167.167H8.92a.167.167 0 0 1-.166-.167zm-1.334 0c0-.092.075-.167.167-.167h.167c.092 0 .166.075.166.167v.166a.167.167 0 0 1-.166.167h-.167a.167.167 0 0 1-.167-.167zm-1.333 0c0-.092.075-.167.167-.167h.166c.092 0 .167.075.167.167v.166a.167.167 0 0 1-.167.167h-.166a.167.167 0 0 1-.167-.167zm-1.333 0c0-.092.074-.167.166-.167h.167c.092 0 .167.075.167.167v.166a.167.167 0 0 1-.167.167H4.92a.167.167 0 0 1-.166-.167zm-1.334 0c0-.092.075-.167.167-.167h.167c.092 0 .166.075.166.167v.166a.167.167 0 0 1-.166.167h-.167a.167.167 0 0 1-.167-.167zm1.334 2.666c0-.092.074-.166.166-.166h.167c.092 0 .167.074.167.166v.167a.167.167 0 0 1-.167.167H4.92a.167.167 0 0 1-.166-.167zm2.666 0c0-.092.075-.166.167-.166h.167c.092 0 .166.074.166.166v.167a.167.167 0 0 1-.166.167h-.167a.167.167 0 0 1-.167-.167zm2.667 0c0-.092.075-.166.167-.166h.166c.092 0 .167.074.167.166v.167a.167.167 0 0 1-.167.167h-.166a.167.167 0 0 1-.167-.167zm0 2.667c0-.092.075-.167.167-.167h.166c.092 0 .167.075.167.167v.167a.167.167 0 0 1-.167.166h-.166a.167.167 0 0 1-.167-.166zm-2.667 0c0-.092.075-.167.167-.167h.167c.092 0 .166.075.166.167v.167a.167.167 0 0 1-.166.166h-.167a.167.167 0 0 1-.167-.166zm-2.666 0c0-.092.074-.167.166-.167h.167c.092 0 .167.075.167.167v.167a.167.167 0 0 1-.167.166H4.92a.167.167 0 0 1-.166-.166zm7.333-8c0-.092.075-.167.167-.167h.166c.092 0 .167.075.167.167v.167a.167.167 0 0 1-.167.166h-.166a.167.167 0 0 1-.167-.166zm-8 .667c0-.092.075-.167.167-.167h.166c.092 0 .167.075.167.167v.166a.167.167 0 0 1-.167.167h-.166a.167.167 0 0 1-.167-.167zm1.333 0c0-.092.075-.167.167-.167h.167c.092 0 .166.075.166.167v.166a.167.167 0 0 1-.166.167h-.167a.167.167 0 0 1-.167-.167zm1.334 0c0-.092.074-.167.166-.167h.167c.092 0 .167.075.167.167v.166a.167.167 0 0 1-.167.167H6.92a.167.167 0 0 1-.166-.167zm1.333 0c0-.092.075-.167.167-.167h.166c.092 0 .167.075.167.167v.166a.167.167 0 0 1-.167.167h-.166a.167.167 0 0 1-.167-.167zm1.333 0c0-.092.075-.167.167-.167h.167c.092 0 .166.075.166.167v.166a.167.167 0 0 1-.166.167h-.167a.167.167 0 0 1-.167-.167zm1.334 0c0-.092.074-.167.166-.167h.167c.092 0 .167.075.167.167v.166a.167.167 0 0 1-.167.167h-.167a.167.167 0 0 1-.166-.167zm0-1.334c0-.092.074-.166.166-.166h.167c.092 0 .167.074.167.166v.167a.167.167 0 0 1-.167.167h-.167a.167.167 0 0 1-.166-.167zm.666 4c0-.092.075-.166.167-.166h.167c.092 0 .166.074.166.166v.167a.167.167 0 0 1-.166.167h-.167a.167.167 0 0 1-.167-.167zm-1.333 0c0-.092.075-.166.167-.166h.166c.092 0 .167.074.167.166v.167a.167.167 0 0 1-.167.167h-.166a.167.167 0 0 1-.167-.167zm-1.333 0c0-.092.074-.166.166-.166h.167c.092 0 .167.074.167.166v.167a.167.167 0 0 1-.167.167H8.92a.167.167 0 0 1-.166-.167zm-1.334 0c0-.092.075-.166.167-.166h.167c.092 0 .166.074.166.166v.167a.167.167 0 0 1-.166.167h-.167a.167.167 0 0 1-.167-.167zm-1.333 0c0-.092.075-.166.167-.166h.166c.092 0 .167.074.167.166v.167a.167.167 0 0 1-.167.167h-.166a.167.167 0 0 1-.167-.167zm-1.333 0c0-.092.074-.166.166-.166h.167c.092 0 .167.074.167.166v.167a.167.167 0 0 1-.167.167H4.92a.167.167 0 0 1-.166-.167zm-1.334 0c0-.092.075-.166.167-.166h.167c.092 0 .166.074.166.166v.167a.167.167 0 0 1-.166.167h-.167a.167.167 0 0 1-.167-.167zM4.754 8.92c0-.092.074-.167.166-.167h.167c.092 0 .167.075.167.167v.167a.167.167 0 0 1-.167.166H4.92a.167.167 0 0 1-.166-.166zm2.666 0c0-.092.075-.167.167-.167h.167c.092 0 .166.075.166.167v.167a.167.167 0 0 1-.166.166h-.167a.167.167 0 0 1-.167-.166zm2.667 0c0-.092.075-.167.167-.167h.166c.092 0 .167.075.167.167v.167a.167.167 0 0 1-.167.166h-.166a.167.167 0 0 1-.167-.166zm0 2.667c0-.092.075-.167.167-.167h.166c.092 0 .167.075.167.167v.166a.167.167 0 0 1-.167.167h-.166a.167.167 0 0 1-.167-.167zm-2.667 0c0-.092.075-.167.167-.167h.167c.092 0 .166.075.166.167v.166a.167.167 0 0 1-.166.167h-.167a.167.167 0 0 1-.167-.167zm-2.666 0c0-.092.074-.167.166-.167h.167c.092 0 .167.075.167.167v.166a.167.167 0 0 1-.167.167H4.92a.167.167 0 0 1-.166-.167zm7.333-8c0-.092.075-.167.167-.167h.166c.092 0 .167.075.167.167v.166a.167.167 0 0 1-.167.167h-.166a.167.167 0 0 1-.167-.167zm-7.333-2c0-.092.074-.167.166-.167h.167c.092 0 .167.075.167.167v.166a.167.167 0 0 1-.167.167H4.92a.167.167 0 0 1-.166-.167zm0 .666c0-.092.074-.166.166-.166h.167c.092 0 .167.074.167.166v.167a.167.167 0 0 1-.167.167H4.92a.167.167 0 0 1-.166-.167zm0 .667c0-.092.074-.167.166-.167h.167c.092 0 .167.075.167.167v.167a.167.167 0 0 1-.167.166H4.92a.167.167 0 0 1-.166-.166zm1.333 0c0-.092.075-.167.167-.167h.166c.092 0 .167.075.167.167v.167a.167.167 0 0 1-.167.166h-.166a.167.167 0 0 1-.167-.166zm1.333 0c0-.092.075-.167.167-.167h.167c.092 0 .166.075.166.167v.167a.167.167 0 0 1-.166.166h-.167a.167.167 0 0 1-.167-.166zm1.334 0c0-.092.074-.167.166-.167h.167c.092 0 .167.075.167.167v.167a.167.167 0 0 1-.167.166H8.92a.167.167 0 0 1-.166-.166zm1.333 0c0-.092.075-.167.167-.167h.166c.092 0 .167.075.167.167v.167a.167.167 0 0 1-.167.166h-.166a.167.167 0 0 1-.167-.166zm1.333 0c0-.092.075-.167.167-.167h.167c.092 0 .166.075.166.167v.167a.167.167 0 0 1-.166.166h-.167a.167.167 0 0 1-.167-.166zm0-1.333c0-.092.075-.167.167-.167h.167c.092 0 .166.075.166.167v.166a.167.167 0 0 1-.166.167h-.167a.167.167 0 0 1-.167-.167zm.667 4c0-.092.075-.167.167-.167h.166c.092 0 .167.075.167.167v.166a.167.167 0 0 1-.167.167h-.166a.167.167 0 0 1-.167-.167zm-1.333 0c0-.092.074-.167.166-.167h.167c.092 0 .167.075.167.167v.166a.167.167 0 0 1-.167.167h-.167a.167.167 0 0 1-.166-.167zm-1.334 0c0-.092.075-.167.167-.167h.167c.092 0 .166.075.166.167v.166a.167.167 0 0 1-.166.167h-.167a.167.167 0 0 1-.167-.167zm-1.333 0c0-.092.075-.167.167-.167h.166c.092 0 .167.075.167.167v.166a.167.167 0 0 1-.167.167h-.166a.167.167 0 0 1-.167-.167zm-1.333 0c0-.092.074-.167.166-.167h.167c.092 0 .167.075.167.167v.166a.167.167 0 0 1-.167.167H6.92a.167.167 0 0 1-.166-.167zm-1.334 0c0-.092.075-.167.167-.167h.167c.092 0 .166.075.166.167v.166a.167.167 0 0 1-.166.167h-.167a.167.167 0 0 1-.167-.167zm-1.333 0c0-.092.075-.167.167-.167h.166c.092 0 .167.075.167.167v.166a.167.167 0 0 1-.167.167h-.166a.167.167 0 0 1-.167-.167zM5.42 8.253c0-.092.075-.166.167-.166h.167c.092 0 .166.074.166.166v.167a.167.167 0 0 1-.166.167h-.167a.167.167 0 0 1-.167-.167zm2.667 0c0-.092.075-.166.167-.166h.166c.092 0 .167.074.167.166v.167a.167.167 0 0 1-.167.167h-.166a.167.167 0 0 1-.167-.167zm2.667 0c0-.092.074-.166.166-.166h.167c.092 0 .167.074.167.166v.167a.167.167 0 0 1-.167.167h-.167a.167.167 0 0 1-.166-.167zm0 2.667c0-.092.074-.167.166-.167h.167c.092 0 .167.075.167.167v.167a.167.167 0 0 1-.167.166h-.167a.167.167 0 0 1-.166-.166zm-2.667 0c0-.092.075-.167.167-.167h.166c.092 0 .167.075.167.167v.167a.167.167 0 0 1-.167.166h-.166a.167.167 0 0 1-.167-.166zm-2.667 0c0-.092.075-.167.167-.167h.167c.092 0 .166.075.166.167v.167a.167.167 0 0 1-.166.166h-.167a.167.167 0 0 1-.167-.166zm7.334-8c0-.092.074-.167.166-.167h.167c.092 0 .167.075.167.167v.167a.167.167 0 0 1-.167.166h-.167a.167.167 0 0 1-.166-.166zm-8 .667c0-.092.074-.167.166-.167h.167c.092 0 .167.075.167.167v.166a.167.167 0 0 1-.167.167H4.92a.167.167 0 0 1-.166-.167zm1.333 0c0-.092.075-.167.167-.167h.166c.092 0 .167.075.167.167v.166a.167.167 0 0 1-.167.167h-.166a.167.167 0 0 1-.167-.167zm1.333 0c0-.092.075-.167.167-.167h.167c.092 0 .166.075.166.167v.166a.167.167 0 0 1-.166.167h-.167a.167.167 0 0 1-.167-.167zm1.334 0c0-.092.074-.167.166-.167h.167c.092 0 .167.075.167.167v.166a.167.167 0 0 1-.167.167H8.92a.167.167 0 0 1-.166-.167zm1.333 0c0-.092.075-.167.167-.167h.166c.092 0 .167.075.167.167v.166a.167.167 0 0 1-.167.167h-.166a.167.167 0 0 1-.167-.167zm1.333 0c0-.092.075-.167.167-.167h.167c.092 0 .166.075.166.167v.166a.167.167 0 0 1-.166.167h-.167a.167.167 0 0 1-.167-.167zm0-1.334c0-.092.075-.166.167-.166h.167c.092 0 .166.074.166.166v.167a.167.167 0 0 1-.166.167h-.167a.167.167 0 0 1-.167-.167zm.667 4c0-.092.075-.166.167-.166h.166c.092 0 .167.074.167.166v.167a.167.167 0 0 1-.167.167h-.166a.167.167 0 0 1-.167-.167zm-1.333 0c0-.092.074-.166.166-.166h.167c.092 0 .167.074.167.166v.167a.167.167 0 0 1-.167.167h-.167a.167.167 0 0 1-.166-.167zm-1.334 0c0-.092.075-.166.167-.166h.167c.092 0 .166.074.166.166v.167a.167.167 0 0 1-.166.167h-.167a.167.167 0 0 1-.167-.167zm-1.333 0c0-.092.075-.166.167-.166h.166c.092 0 .167.074.167.166v.167a.167.167 0 0 1-.167.167h-.166a.167.167 0 0 1-.167-.167zm-1.333 0c0-.092.074-.166.166-.166h.167c.092 0 .167.074.167.166v.167a.167.167 0 0 1-.167.167H6.92a.167.167 0 0 1-.166-.167zm-1.334 0c0-.092.075-.166.167-.166h.167c.092 0 .166.074.166.166v.167a.167.167 0 0 1-.166.167h-.167a.167.167 0 0 1-.167-.167zm-1.333 0c0-.092.075-.166.167-.166h.166c.092 0 .167.074.167.166v.167a.167.167 0 0 1-.167.167h-.166a.167.167 0 0 1-.167-.167zM5.42 8.92c0-.092.075-.167.167-.167h.167c.092 0 .166.075.166.167v.167a.167.167 0 0 1-.166.166h-.167a.167.167 0 0 1-.167-.166zm2.667 0c0-.092.075-.167.167-.167h.166c.092 0 .167.075.167.167v.167a.167.167 0 0 1-.167.166h-.166a.167.167 0 0 1-.167-.166zm2.667 0c0-.092.074-.167.166-.167h.167c.092 0 .167.075.167.167v.167a.167.167 0 0 1-.167.166h-.167a.167.167 0 0 1-.166-.166zm0 2.667c0-.092.074-.167.166-.167h.167c.092 0 .167.075.167.167v.166a.167.167 0 0 1-.167.167h-.167a.167.167 0 0 1-.166-.167zm-2.667 0c0-.092.075-.167.167-.167h.166c.092 0 .167.075.167.167v.166a.167.167 0 0 1-.167.167h-.166a.167.167 0 0 1-.167-.167zm-2.667 0c0-.092.075-.167.167-.167h.167c.092 0 .166.075.166.167v.166a.167.167 0 0 1-.166.167h-.167a.167.167 0 0 1-.167-.167zm7.334-8c0-.092.074-.167.166-.167h.167c.092 0 .167.075.167.167v.166a.167.167 0 0 1-.167.167h-.167a.167.167 0 0 1-.166-.167zm0 .666c0-.092.074-.166.166-.166h.167c.092 0 .167.074.167.166v.167a.167.167 0 0 1-.167.167h-.167a.167.167 0 0 1-.166-.167zm0 .667c0-.092.074-.167.166-.167h.167c.092 0 .167.075.167.167v.167a.167.167 0 0 1-.167.166h-.167a.167.167 0 0 1-.166-.166zm0 .667c0-.092.074-.167.166-.167h.167c.092 0 .167.075.167.167v.166a.167.167 0 0 1-.167.167h-.167a.167.167 0 0 1-.166-.167zm0 .666c0-.092.074-.166.166-.166h.167c.092 0 .167.074.167.166v.167a.167.167 0 0 1-.167.167h-.167a.167.167 0 0 1-.166-.167zm0 .667c0-.092.074-.167.166-.167h.167c.092 0 .167.075.167.167v.167a.167.167 0 0 1-.167.166h-.167a.167.167 0 0 1-.166-.166zm0 .667c0-.092.074-.167.166-.167h.167c.092 0 .167.075.167.167v.166a.167.167 0 0 1-.167.167h-.167a.167.167 0 0 1-.166-.167zm0 .666c0-.092.074-.166.166-.166h.167c.092 0 .167.074.167.166v.167a.167.167 0 0 1-.167.167h-.167a.167.167 0 0 1-.166-.167zm0 .667c0-.092.074-.167.166-.167h.167c.092 0 .167.075.167.167v.167a.167.167 0 0 1-.167.166h-.167a.167.167 0 0 1-.166-.166zm0 .667c0-.092.074-.167.166-.167h.167c.092 0 .167.075.167.167v.166a.167.167 0 0 1-.167.167h-.167a.167.167 0 0 1-.166-.167zm0 .666c0-.092.074-.166.166-.166h.167c.092 0 .167.074.167.166v.167a.167.167 0 0 1-.167.167h-.167a.167.167 0 0 1-.166-.167zm0 .667c0-.092.074-.167.166-.167h.167c.092 0 .167.075.167.167v.167a.167.167 0 0 1-.167.166h-.167a.167.167 0 0 1-.166-.166zm0 .667c0-.092.074-.167.166-.167h.167c.092 0 .167.075.167.167v.166a.167.167 0 0 1-.167.167h-.167a.167.167 0 0 1-.166-.167zm0 .666c0-.092.074-.166.166-.166h.167c.092 0 .167.074.167.166v.167a.167.167 0 0 1-.167.167h-.167a.167.167 0 0 1-.166-.167zm0 .667c0-.092.074-.167.166-.167h.167c.092 0 .167.075.167.167v.167a.167.167 0 0 1-.167.166h-.167a.167.167 0 0 1-.166-.166zm0 .667c0-.092.074-.167.166-.167h.167c.092 0 .167.075.167.167v.166a.167.167 0 0 1-.167.167h-.167a.167.167 0 0 1-.166-.167zm0 .666c0-.092.074-.166.166-.166h.167c.092 0 .167.074.167.166v.167a.167.167 0 0 1-.167.167h-.167a.167.167 0 0 1-.166-.167zm-.667-.666c0-.092.075-.167.167-.167h.166c.092 0 .167.075.167.167v.166a.167.167 0 0 1-.167.167h-.166a.167.167 0 0 1-.167-.167zm-.667 0c0-.092.075-.167.167-.167h.167c.092 0 .166.075.166.167v.166a.167.167 0 0 1-.166.167h-.167a.167.167 0 0 1-.167-.167zm-.666 0c0-.092.074-.167.166-.167h.167c.092 0 .167.075.167.167v.166a.167.167 0 0 1-.167.167h-.167a.167.167 0 0 1-.166-.167zm-.667 0c0-.092.075-.167.167-.167h.166c.092 0 .167.075.167.167v.166a.167.167 0 0 1-.167.167h-.166a.167.167 0 0 1-.167-.167zm-.667 0c0-.092.075-.167.167-.167h.167c.092 0 .166.075.166.167v.166a.167.167 0 0 1-.166.167h-.167a.167.167 0 0 1-.167-.167zm-.666 0c0-.092.074-.167.166-.167h.167c.092 0 .167.075.167.167v.166a.167.167 0 0 1-.167.167H8.92a.167.167 0 0 1-.166-.167zm-.667 0c0-.092.075-.167.167-.167h.166c.092 0 .167.075.167.167v.166a.167.167 0 0 1-.167.167h-.166a.167.167 0 0 1-.167-.167zm-.667 0c0-.092.075-.167.167-.167h.167c.092 0 .166.075.166.167v.166a.167.167 0 0 1-.166.167h-.167a.167.167 0 0 1-.167-.167zm-.666 0c0-.092.074-.167.166-.167h.167c.092 0 .167.075.167.167v.166a.167.167 0 0 1-.167.167H6.92a.167.167 0 0 1-.166-.167zm-.667 0c0-.092.075-.167.167-.167h.166c.092 0 .167.075.167.167v.166a.167.167 0 0 1-.167.167h-.166a.167.167 0 0 1-.167-.167zm-.667 0c0-.092.075-.167.167-.167h.167c.092 0 .166.075.166.167v.166a.167.167 0 0 1-.166.167h-.167a.167.167 0 0 1-.167-.167zm-.666 0c0-.092.074-.167.166-.167h.167c.092 0 .167.075.167.167v.166a.167.167 0 0 1-.167.167H4.92a.167.167 0 0 1-.166-.167zm-.667 0c0-.092.075-.167.167-.167h.166c.092 0 .167.075.167.167v.166a.167.167 0 0 1-.167.167h-.166a.167.167 0 0 1-.167-.167zm-.667 0c0-.092.075-.167.167-.167h.167c.092 0 .166.075.166.167v.166a.167.167 0 0 1-.166.167h-.167a.167.167 0 0 1-.167-.167zm-.666 0c0-.092.074-.167.166-.167h.167c.092 0 .167.075.167.167v.166a.167.167 0 0 1-.167.167H2.92a.167.167 0 0 1-.166-.167zm0-.667c0-.092.074-.167.166-.167h.167c.092 0 .167.075.167.167v.167a.167.167 0 0 1-.167.166H2.92a.167.167 0 0 1-.166-.166zm0-.667c0-.092.074-.166.166-.166h.167c.092 0 .167.074.167.166v.167a.167.167 0 0 1-.167.167H2.92a.167.167 0 0 1-.166-.167zm0-.666c0-.092.074-.167.166-.167h.167c.092 0 .167.075.167.167v.166a.167.167 0 0 1-.167.167H2.92a.167.167 0 0 1-.166-.167zm0-.667c0-.092.074-.167.166-.167h.167c.092 0 .167.075.167.167v.167a.167.167 0 0 1-.167.166H2.92a.167.167 0 0 1-.166-.166zm0-.667c0-.092.074-.166.166-.166h.167c.092 0 .167.074.167.166v.167a.167.167 0 0 1-.167.167H2.92a.167.167 0 0 1-.166-.167zm0-.666c0-.092.074-.167.166-.167h.167c.092 0 .167.075.167.167v.166a.167.167 0 0 1-.167.167H2.92a.167.167 0 0 1-.166-.167zm0-.667c0-.092.074-.167.166-.167h.167c.092 0 .167.075.167.167v.167a.167.167 0 0 1-.167.166H2.92a.167.167 0 0 1-.166-.166zm0-.667c0-.092.074-.166.166-.166h.167c.092 0 .167.074.167.166v.167a.167.167 0 0 1-.167.167H2.92a.167.167 0 0 1-.166-.167zm0-.666c0-.092.074-.167.166-.167h.167c.092 0 .167.075.167.167v.166a.167.167 0 0 1-.167.167H2.92a.167.167 0 0 1-.166-.167zm0-.667c0-.092.074-.167.166-.167h.167c.092 0 .167.075.167.167v.167a.167.167 0 0 1-.167.166H2.92a.167.167 0 0 1-.166-.166zm0-.667c0-.092.074-.166.166-.166h.167c.092 0 .167.074.167.166v.167a.167.167 0 0 1-.167.167H2.92a.167.167 0 0 1-.166-.167zm0-.666c0-.092.074-.167.166-.167h.167c.092 0 .167.075.167.167v.166a.167.167 0 0 1-.167.167H2.92a.167.167 0 0 1-.166-.167zm0-.667c0-.092.074-.167.166-.167h.167c.092 0 .167.075.167.167v.167a.167.167 0 0 1-.167.166H2.92a.167.167 0 0 1-.166-.166zm0-.667c0-.092.074-.166.166-.166h.167c.092 0 .167.074.167.166v.167a.167.167 0 0 1-.167.167H2.92a.167.167 0 0 1-.166-.167zm0-.666c0-.092.074-.167.166-.167h.167c.092 0 .167.075.167.167v.166a.167.167 0 0 1-.167.167H2.92a.167.167 0 0 1-.166-.167zm.666 0c0-.092.075-.167.167-.167h.167c.092 0 .166.075.166.167v.166a.167.167 0 0 1-.166.167h-.167a.167.167 0 0 1-.167-.167zm-.666-.667c0-.092.074-.167.166-.167h.167c.092 0 .167.075.167.167v.167a.167.167 0 0 1-.167.166H2.92a.167.167 0 0 1-.166-.166zm.666 0c0-.092.075-.167.167-.167h.167c.092 0 .166.075.166.167v.167a.167.167 0 0 1-.166.166h-.167a.167.167 0 0 1-.167-.166zM2.087 13.587c0-.092.075-.167.167-.167h.166c.092 0 .167.075.167.167v.166a.167.167 0 0 1-.167.167h-.166a.167.167 0 0 1-.167-.167zm0-.667c0-.092.075-.167.167-.167h.166c.092 0 .167.075.167.167v.167a.167.167 0 0 1-.167.166h-.166a.167.167 0 0 1-.167-.166zm0-.667c0-.092.075-.166.167-.166h.166c.092 0 .167.074.167.166v.167a.167.167 0 0 1-.167.167h-.166a.167.167 0 0 1-.167-.167zm0-.666c0-.092.075-.167.167-.167h.166c.092 0 .167.075.167.167v.166a.167.167 0 0 1-.167.167h-.166a.167.167 0 0 1-.167-.167zm0-.667c0-.092.075-.167.167-.167h.166c.092 0 .167.075.167.167v.167a.167.167 0 0 1-.167.166h-.166a.167.167 0 0 1-.167-.166zm0-.667c0-.092.075-.166.167-.166h.166c.092 0 .167.074.167.166v.167a.167.167 0 0 1-.167.167h-.166a.167.167 0 0 1-.167-.167zm0-.666c0-.092.075-.167.167-.167h.166c.092 0 .167.075.167.167v.166a.167.167 0 0 1-.167.167h-.166a.167.167 0 0 1-.167-.167zm0-.667c0-.092.075-.167.167-.167h.166c.092 0 .167.075.167.167v.167a.167.167 0 0 1-.167.166h-.166a.167.167 0 0 1-.167-.166zm0-.667c0-.092.075-.166.167-.166h.166c.092 0 .167.074.167.166v.167a.167.167 0 0 1-.167.167h-.166a.167.167 0 0 1-.167-.167zm0-.666c0-.092.075-.167.167-.167h.166c.092 0 .167.075.167.167v.166a.167.167 0 0 1-.167.167h-.166a.167.167 0 0 1-.167-.167zm0-.667c0-.092.075-.167.167-.167h.166c.092 0 .167.075.167.167v.167a.167.167 0 0 1-.167.166h-.166a.167.167 0 0 1-.167-.166zm0-.667c0-.092.075-.166.167-.166h.166c.092 0 .167.074.167.166v.167a.167.167 0 0 1-.167.167h-.166a.167.167 0 0 1-.167-.167zm0-.666c0-.092.075-.167.167-.167h.166c.092 0 .167.075.167.167v.166a.167.167 0 0 1-.167.167h-.166a.167.167 0 0 1-.167-.167zm0-.667c0-.092.075-.167.167-.167h.166c.092 0 .167.075.167.167v.167a.167.167 0 0 1-.167.166h-.166a.167.167 0 0 1-.167-.166zm0-.667c0-.092.075-.166.167-.166h.166c.092 0 .167.074.167.166v.167a.167.167 0 0 1-.167.167h-.166a.167.167 0 0 1-.167-.167zm0-.666c0-.092.075-.167.167-.167h.166c.092 0 .167.075.167.167v.166a.167.167 0 0 1-.167.167h-.166a.167.167 0 0 1-.167-.167zm10 10.666c0-.092.075-.166.167-.166h.166c.092 0 .167.074.167.166v.167a.167.167 0 0 1-.167.167h-.166a.167.167 0 0 1-.167-.167zm-.667 0c0-.092.075-.166.167-.166h.167c.092 0 .166.074.166.166v.167a.167.167 0 0 1-.166.167h-.167a.167.167 0 0 1-.167-.167zm-.666 0c0-.092.074-.166.166-.166h.167c.092 0 .167.074.167.166v.167a.167.167 0 0 1-.167.167h-.167a.167.167 0 0 1-.166-.167zm-.667 0c0-.092.075-.166.167-.166h.166c.092 0 .167.074.167.166v.167a.167.167 0 0 1-.167.167h-.166a.167.167 0 0 1-.167-.167zm-.667 0c0-.092.075-.166.167-.166h.167c.092 0 .166.074.166.166v.167a.167.167 0 0 1-.166.167h-.167a.167.167 0 0 1-.167-.167zm-.666 0c0-.092.074-.166.166-.166h.167c.092 0 .167.074.167.166v.167a.167.167 0 0 1-.167.167H8.92a.167.167 0 0 1-.166-.167zm-.667 0c0-.092.075-.166.167-.166h.166c.092 0 .167.074.167.166v.167a.167.167 0 0 1-.167.167h-.166a.167.167 0 0 1-.167-.167zm-.667 0c0-.092.075-.166.167-.166h.167c.092 0 .166.074.166.166v.167a.167.167 0 0 1-.166.167h-.167a.167.167 0 0 1-.167-.167zm-.666 0c0-.092.074-.166.166-.166h.167c.092 0 .167.074.167.166v.167a.167.167 0 0 1-.167.167H6.92a.167.167 0 0 1-.166-.167zm-.667 0c0-.092.075-.166.167-.166h.166c.092 0 .167.074.167.166v.167a.167.167 0 0 1-.167.167h-.166a.167.167 0 0 1-.167-.167zm-.667 0c0-.092.075-.166.167-.166h.167c.092 0 .166.074.166.166v.167a.167.167 0 0 1-.166.167h-.167a.167.167 0 0 1-.167-.167zm-.666 0c0-.092.074-.166.166-.166h.167c.092 0 .167.074.167.166v.167a.167.167 0 0 1-.167.167H4.92a.167.167 0 0 1-.166-.167zm-.667 0c0-.092.075-.166.167-.166h.166c.092 0 .167.074.167.166v.167a.167.167 0 0 1-.167.167h-.166a.167.167 0 0 1-.167-.167zm-.667 0c0-.092.075-.166.167-.166h.167c.092 0 .166.074.166.166v.167a.167.167 0 0 1-.166.167h-.167a.167.167 0 0 1-.167-.167zm-.666 0c0-.092.074-.166.166-.166h.167c.092 0 .167.074.167.166v.167a.167.167 0 0 1-.167.167H2.92a.167.167 0 0 1-.166-.167zM13.42 3.587c0-.092.075-.167.167-.167h.167c.092 0 .166.075.166.167v.166a.167.167 0 0 1-.166.167h-.167a.167.167 0 0 1-.167-.167zm0 .666c0-.092.075-.166.167-.166h.167c.092 0 .166.074.166.166v.167a.167.167 0 0 1-.166.167h-.167a.167.167 0 0 1-.167-.167zm0 .667c0-.092.075-.167.167-.167h.167c.092 0 .166.075.166.167v.167a.167.167 0 0 1-.166.166h-.167a.167.167 0 0 1-.167-.166zm0 .667c0-.092.075-.167.167-.167h.167c.092 0 .166.075.166.167v.166a.167.167 0 0 1-.166.167h-.167a.167.167 0 0 1-.167-.167zm0 .666c0-.092.075-.166.167-.166h.167c.092 0 .166.074.166.166v.167a.167.167 0 0 1-.166.167h-.167a.167.167 0 0 1-.167-.167zm0 .667c0-.092.075-.167.167-.167h.167c.092 0 .166.075.166.167v.167a.167.167 0 0 1-.166.166h-.167a.167.167 0 0 1-.167-.166zm0 .667c0-.092.075-.167.167-.167h.167c.092 0 .166.075.166.167v.166a.167.167 0 0 1-.166.167h-.167a.167.167 0 0 1-.167-.167zm0 .666c0-.092.075-.166.167-.166h.167c.092 0 .166.074.166.166v.167a.167.167 0 0 1-.166.167h-.167a.167.167 0 0 1-.167-.167zm0 .667c0-.092.075-.167.167-.167h.167c.092 0 .166.075.166.167v.167a.167.167 0 0 1-.166.166h-.167a.167.167 0 0 1-.167-.166zm0 .667c0-.092.075-.167.167-.167h.167c.092 0 .166.075.166.167v.166a.167.167 0 0 1-.166.167h-.167a.167.167 0 0 1-.167-.167zm0 .666c0-.092.075-.166.167-.166h.167c.092 0 .166.074.166.166v.167a.167.167 0 0 1-.166.167h-.167a.167.167 0 0 1-.167-.167zm0 .667c0-.092.075-.167.167-.167h.167c.092 0 .166.075.166.167v.167a.167.167 0 0 1-.166.166h-.167a.167.167 0 0 1-.167-.166zm0 .667c0-.092.075-.167.167-.167h.167c.092 0 .166.075.166.167v.166a.167.167 0 0 1-.166.167h-.167a.167.167 0 0 1-.167-.167zm0 .666c0-.092.075-.166.167-.166h.167c.092 0 .166.074.166.166v.167a.167.167 0 0 1-.166.167h-.167a.167.167 0 0 1-.167-.167zm0 .667c0-.092.075-.167.167-.167h.167c.092 0 .166.075.166.167v.167a.167.167 0 0 1-.166.166h-.167a.167.167 0 0 1-.167-.166zm0 .667c0-.092.075-.167.167-.167h.167c.092 0 .166.075.166.167v.166a.167.167 0 0 1-.166.167h-.167a.167.167 0 0 1-.167-.167z"/></svg>