<svg xmlns="http://www.w3.org/2000/svg" width="24" height="24" fill="none" viewBox="0 0 24 24"><path fill="#5ec598" d="M11.13 5.38a.25.25 0 0 1 .25-.25h.25a.25.25 0 0 1 .25.25v.25a.25.25 0 0 1-.25.25h-.25a.25.25 0 0 1-.25-.25zm-2 0a.25.25 0 0 1 .25-.25h.25a.25.25 0 0 1 .25.25v.25a.25.25 0 0 1-.25.25h-.25a.25.25 0 0 1-.25-.25zm4 0a.25.25 0 0 1 .25-.25h.25a.25.25 0 0 1 .25.25v.25a.25.25 0 0 1-.25.25h-.25a.25.25 0 0 1-.25-.25zm2 0a.25.25 0 0 1 .25-.25h.25a.25.25 0 0 1 .25.25v.25a.25.25 0 0 1-.25.25h-.25a.25.25 0 0 1-.25-.25zm-8 2a.25.25 0 0 1 .25-.25h.25a.25.25 0 0 1 .25.25v.25a.25.25 0 0 1-.25.25h-.25a.25.25 0 0 1-.25-.25zm8 0a.25.25 0 0 1 .25-.25h.25a.25.25 0 0 1 .25.25v.25a.25.25 0 0 1-.25.25h-.25a.25.25 0 0 1-.25-.25zm2 0a.25.25 0 0 1 .25-.25h.25a.25.25 0 0 1 .25.25v.25a.25.25 0 0 1-.25.25h-.25a.25.25 0 0 1-.25-.25zm-12 2a.25.25 0 0 1 .25-.25h.25a.25.25 0 0 1 .25.25v.25a.25.25 0 0 1-.25.25h-.25a.25.25 0 0 1-.25-.25zm12 0a.25.25 0 0 1 .25-.25h.25a.25.25 0 0 1 .25.25v.25a.25.25 0 0 1-.25.25h-.25a.25.25 0 0 1-.25-.25zm-12 2a.25.25 0 0 1 .25-.25h.25a.25.25 0 0 1 .25.25v.25a.25.25 0 0 1-.25.25h-.25a.25.25 0 0 1-.25-.25zm1 0a.25.25 0 0 1 .25-.25h.25a.25.25 0 0 1 .25.25v.25a.25.25 0 0 1-.25.25h-.25a.25.25 0 0 1-.25-.25zm11 0a.25.25 0 0 1 .25-.25h.25a.25.25 0 0 1 .25.25v.25a.25.25 0 0 1-.25.25h-.25a.25.25 0 0 1-.25-.25zm3 0a.25.25 0 0 1 .25-.25h.25a.25.25 0 0 1 .25.25v.25a.25.25 0 0 1-.25.25h-.25a.25.25 0 0 1-.25-.25zm1 0a.25.25 0 0 1 .25-.25h.25a.25.25 0 0 1 .25.25v.25a.25.25 0 0 1-.25.25h-.25a.25.25 0 0 1-.25-.25zm-2 0a.25.25 0 0 1 .25-.25h.25a.25.25 0 0 1 .25.25v.25a.25.25 0 0 1-.25.25h-.25a.25.25 0 0 1-.25-.25zm-14 2a.25.25 0 0 1 .25-.25h.25a.25.25 0 0 1 .25.25v.25a.25.25 0 0 1-.25.25h-.25a.25.25 0 0 1-.25-.25zm14 0a.25.25 0 0 1 .25-.25h.25a.25.25 0 0 1 .25.25v.25a.25.25 0 0 1-.25.25h-.25a.25.25 0 0 1-.25-.25zm-12 2a.25.25 0 0 1 .25-.25h.25a.25.25 0 0 1 .25.25v.25a.25.25 0 0 1-.25.25h-.25a.25.25 0 0 1-.25-.25zm-2 0a.25.25 0 0 1 .25-.25h.25a.25.25 0 0 1 .25.25v.25a.25.25 0 0 1-.25.25h-.25a.25.25 0 0 1-.25-.25zm12 0a.25.25 0 0 1 .25-.25h.25a.25.25 0 0 1 .25.25v.25a.25.25 0 0 1-.25.25h-.25a.25.25 0 0 1-.25-.25zm-8 2a.25.25 0 0 1 .25-.25h.25a.25.25 0 0 1 .25.25v.25a.25.25 0 0 1-.25.25h-.25a.25.25 0 0 1-.25-.25zm-2 0a.25.25 0 0 1 .25-.25h.25a.25.25 0 0 1 .25.25v.25a.25.25 0 0 1-.25.25h-.25a.25.25 0 0 1-.25-.25zm8 0a.25.25 0 0 1 .25-.25h.25a.25.25 0 0 1 .25.25v.25a.25.25 0 0 1-.25.25h-.25a.25.25 0 0 1-.25-.25zm-4 2a.25.25 0 0 1 .25-.25h.25a.25.25 0 0 1 .25.25v.25a.25.25 0 0 1-.25.25h-.25a.25.25 0 0 1-.25-.25zm2 0a.25.25 0 0 1 .25-.25h.25a.25.25 0 0 1 .25.25v.25a.25.25 0 0 1-.25.25h-.25a.25.25 0 0 1-.25-.25zm-2-15a.25.25 0 0 1 .25-.25h.25a.25.25 0 0 1 .25.25v.25a.25.25 0 0 1-.25.25h-.25a.25.25 0 0 1-.25-.25zm0-1a.25.25 0 0 1 .25-.25h.25a.25.25 0 0 1 .25.25v.25a.25.25 0 0 1-.25.25h-.25a.25.25 0 0 1-.25-.25zm0-1a.25.25 0 0 1 .25-.25h.25a.25.25 0 0 1 .25.25v.25a.25.25 0 0 1-.25.25h-.25a.25.25 0 0 1-.25-.25zm0 4a.25.25 0 0 1 .25-.25h.25a.25.25 0 0 1 .25.25v.25a.25.25 0 0 1-.25.25h-.25a.25.25 0 0 1-.25-.25zm0 11a.25.25 0 0 1 .25-.25h.25a.25.25 0 0 1 .25.25v.25a.25.25 0 0 1-.25.25h-.25a.25.25 0 0 1-.25-.25zm0-6a.25.25 0 0 1 .25-.25h.25a.25.25 0 0 1 .25.25v.25a.25.25 0 0 1-.25.25h-.25a.25.25 0 0 1-.25-.25zm0-1a.25.25 0 0 1 .25-.25h.25a.25.25 0 0 1 .25.25v.25a.25.25 0 0 1-.25.25h-.25a.25.25 0 0 1-.25-.25zm-1 1a.25.25 0 0 1 .25-.25h.25a.25.25 0 0 1 .25.25v.25a.25.25 0 0 1-.25.25h-.25a.25.25 0 0 1-.25-.25zm1 1a.25.25 0 0 1 .25-.25h.25a.25.25 0 0 1 .25.25v.25a.25.25 0 0 1-.25.25h-.25a.25.25 0 0 1-.25-.25zm0 1a.25.25 0 0 1 .25-.25h.25a.25.25 0 0 1 .25.25v.25a.25.25 0 0 1-.25.25h-.25a.25.25 0 0 1-.25-.25zm-1-1a.25.25 0 0 1 .25-.25h.25a.25.25 0 0 1 .25.25v.25a.25.25 0 0 1-.25.25h-.25a.25.25 0 0 1-.25-.25zm1 8a.25.25 0 0 1 .25-.25h.25a.25.25 0 0 1 .25.25v.25a.25.25 0 0 1-.25.25h-.25a.25.25 0 0 1-.25-.25zm0 1a.25.25 0 0 1 .25-.25h.25a.25.25 0 0 1 .25.25v.25a.25.25 0 0 1-.25.25h-.25a.25.25 0 0 1-.25-.25zm2-17a.25.25 0 0 1 .25-.25h.25a.25.25 0 0 1 .25.25v.25a.25.25 0 0 1-.25.25h-.25a.25.25 0 0 1-.25-.25zm-4 2a.25.25 0 0 1 .25-.25h.25a.25.25 0 0 1 .25.25v.25a.25.25 0 0 1-.25.25h-.25a.25.25 0 0 1-.25-.25zm-2 0a.25.25 0 0 1 .25-.25h.25a.25.25 0 0 1 .25.25v.25a.25.25 0 0 1-.25.25h-.25a.25.25 0 0 1-.25-.25zm8 0a.25.25 0 0 1 .25-.25h.25a.25.25 0 0 1 .25.25v.25a.25.25 0 0 1-.25.25h-.25a.25.25 0 0 1-.25-.25zm-8 2a.25.25 0 0 1 .25-.25h.25a.25.25 0 0 1 .25.25v.25a.25.25 0 0 1-.25.25h-.25a.25.25 0 0 1-.25-.25zm-2 0a.25.25 0 0 1 .25-.25h.25a.25.25 0 0 1 .25.25v.25a.25.25 0 0 1-.25.25h-.25a.25.25 0 0 1-.25-.25zm12 0a.25.25 0 0 1 .25-.25h.25a.25.25 0 0 1 .25.25v.25a.25.25 0 0 1-.25.25h-.25a.25.25 0 0 1-.25-.25zm-12 2a.25.25 0 0 1 .25-.25h.25a.25.25 0 0 1 .25.25v.25a.25.25 0 0 1-.25.25h-.25a.25.25 0 0 1-.25-.25zm14 0a.25.25 0 0 1 .25-.25h.25a.25.25 0 0 1 .25.25v.25a.25.25 0 0 1-.25.25h-.25a.25.25 0 0 1-.25-.25zm-14 2a.25.25 0 0 1 .25-.25h.25a.25.25 0 0 1 .25.25v.25a.25.25 0 0 1-.25.25h-.25a.25.25 0 0 1-.25-.25zm1 0a.25.25 0 0 1 .25-.25h.25a.25.25 0 0 1 .25.25v.25a.25.25 0 0 1-.25.25h-.25a.25.25 0 0 1-.25-.25zm11 0a.25.25 0 0 1 .25-.25h.25a.25.25 0 0 1 .25.25v.25a.25.25 0 0 1-.25.25h-.25a.25.25 0 0 1-.25-.25zm3 0a.25.25 0 0 1 .25-.25h.25a.25.25 0 0 1 .25.25v.25a.25.25 0 0 1-.25.25h-.25a.25.25 0 0 1-.25-.25zm1 0a.25.25 0 0 1 .25-.25h.25a.25.25 0 0 1 .25.25v.25a.25.25 0 0 1-.25.25h-.25a.25.25 0 0 1-.25-.25zm-2 0a.25.25 0 0 1 .25-.25h.25a.25.25 0 0 1 .25.25v.25a.25.25 0 0 1-.25.25h-.25a.25.25 0 0 1-.25-.25zm-14 2a.25.25 0 0 1 .25-.25h.25a.25.25 0 0 1 .25.25v.25a.25.25 0 0 1-.25.25h-.25a.25.25 0 0 1-.25-.25zm12 0a.25.25 0 0 1 .25-.25h.25a.25.25 0 0 1 .25.25v.25a.25.25 0 0 1-.25.25h-.25a.25.25 0 0 1-.25-.25zm-10 2a.25.25 0 0 1 .25-.25h.25a.25.25 0 0 1 .25.25v.25a.25.25 0 0 1-.25.25h-.25a.25.25 0 0 1-.25-.25zm8 0a.25.25 0 0 1 .25-.25h.25a.25.25 0 0 1 .25.25v.25a.25.25 0 0 1-.25.25h-.25a.25.25 0 0 1-.25-.25zm2 0a.25.25 0 0 1 .25-.25h.25a.25.25 0 0 1 .25.25v.25a.25.25 0 0 1-.25.25h-.25a.25.25 0 0 1-.25-.25zm-6 2a.25.25 0 0 1 .25-.25h.25a.25.25 0 0 1 .25.25v.25a.25.25 0 0 1-.25.25h-.25a.25.25 0 0 1-.25-.25zm-2 0a.25.25 0 0 1 .25-.25h.25a.25.25 0 0 1 .25.25v.25a.25.25 0 0 1-.25.25h-.25a.25.25 0 0 1-.25-.25zm4 0a.25.25 0 0 1 .25-.25h.25a.25.25 0 0 1 .25.25v.25a.25.25 0 0 1-.25.25h-.25a.25.25 0 0 1-.25-.25zm2 0a.25.25 0 0 1 .25-.25h.25a.25.25 0 0 1 .25.25v.25a.25.25 0 0 1-.25.25h-.25a.25.25 0 0 1-.25-.25zm-3-14a.25.25 0 0 1 .25-.25h.25a.25.25 0 0 1 .25.25v.25a.25.25 0 0 1-.25.25h-.25a.25.25 0 0 1-.25-.25zm0-1a.25.25 0 0 1 .25-.25h.25a.25.25 0 0 1 .25.25v.25a.25.25 0 0 1-.25.25h-.25a.25.25 0 0 1-.25-.25zm0-1a.25.25 0 0 1 .25-.25h.25a.25.25 0 0 1 .25.25v.25a.25.25 0 0 1-.25.25h-.25a.25.25 0 0 1-.25-.25zm0 4a.25.25 0 0 1 .25-.25h.25a.25.25 0 0 1 .25.25v.25a.25.25 0 0 1-.25.25h-.25a.25.25 0 0 1-.25-.25zm0 11a.25.25 0 0 1 .25-.25h.25a.25.25 0 0 1 .25.25v.25a.25.25 0 0 1-.25.25h-.25a.25.25 0 0 1-.25-.25zm0-6a.25.25 0 0 1 .25-.25h.25a.25.25 0 0 1 .25.25v.25a.25.25 0 0 1-.25.25h-.25a.25.25 0 0 1-.25-.25zm0-1a.25.25 0 0 1 .25-.25h.25a.25.25 0 0 1 .25.25v.25a.25.25 0 0 1-.25.25h-.25a.25.25 0 0 1-.25-.25zm1 1a.25.25 0 0 1 .25-.25h.25a.25.25 0 0 1 .25.25v.25a.25.25 0 0 1-.25.25h-.25a.25.25 0 0 1-.25-.25zm-1 1a.25.25 0 0 1 .25-.25h.25a.25.25 0 0 1 .25.25v.25a.25.25 0 0 1-.25.25h-.25a.25.25 0 0 1-.25-.25zm0 1a.25.25 0 0 1 .25-.25h.25a.25.25 0 0 1 .25.25v.25a.25.25 0 0 1-.25.25h-.25a.25.25 0 0 1-.25-.25zm1-1a.25.25 0 0 1 .25-.25h.25a.25.25 0 0 1 .25.25v.25a.25.25 0 0 1-.25.25h-.25a.25.25 0 0 1-.25-.25zm-1 8a.25.25 0 0 1 .25-.25h.25a.25.25 0 0 1 .25.25v.25a.25.25 0 0 1-.25.25h-.25a.25.25 0 0 1-.25-.25zm0 1a.25.25 0 0 1 .25-.25h.25a.25.25 0 0 1 .25.25v.25a.25.25 0 0 1-.25.25h-.25a.25.25 0 0 1-.25-.25zm-2-17a.25.25 0 0 1 .25-.25h.25a.25.25 0 0 1 .25.25v.25a.25.25 0 0 1-.25.25h-.25a.25.25 0 0 1-.25-.25zm-2 2a.25.25 0 0 1 .25-.25h.25a.25.25 0 0 1 .25.25v.25a.25.25 0 0 1-.25.25h-.25a.25.25 0 0 1-.25-.25zm6 0a.25.25 0 0 1 .25-.25h.25a.25.25 0 0 1 .25.25v.25a.25.25 0 0 1-.25.25h-.25a.25.25 0 0 1-.25-.25zm2 0a.25.25 0 0 1 .25-.25h.25a.25.25 0 0 1 .25.25v.25a.25.25 0 0 1-.25.25h-.25a.25.25 0 0 1-.25-.25zm-10 2a.25.25 0 0 1 .25-.25h.25a.25.25 0 0 1 .25.25v.25a.25.25 0 0 1-.25.25h-.25a.25.25 0 0 1-.25-.25zm10 0a.25.25 0 0 1 .25-.25h.25a.25.25 0 0 1 .25.25v.25a.25.25 0 0 1-.25.25h-.25a.25.25 0 0 1-.25-.25zm2 0a.25.25 0 0 1 .25-.25h.25a.25.25 0 0 1 .25.25v.25a.25.25 0 0 1-.25.25h-.25a.25.25 0 0 1-.25-.25zm-14 2a.25.25 0 0 1 .25-.25h.25a.25.25 0 0 1 .25.25v.25a.25.25 0 0 1-.25.25h-.25a.25.25 0 0 1-.25-.25zm14 0a.25.25 0 0 1 .25-.25h.25a.25.25 0 0 1 .25.25v.25a.25.25 0 0 1-.25.25h-.25a.25.25 0 0 1-.25-.25zm-14 2a.25.25 0 0 1 .25-.25h.25a.25.25 0 0 1 .25.25v.25a.25.25 0 0 1-.25.25h-.25a.25.25 0 0 1-.25-.25zm-1 0a.25.25 0 0 1 .25-.25h.25a.25.25 0 0 1 .25.25v.25a.25.25 0 0 1-.25.25h-.25a.25.25 0 0 1-.25-.25zm-1 0a.25.25 0 0 1 .25-.25h.25a.25.25 0 0 1 .25.25v.25a.25.25 0 0 1-.25.25h-.25a.25.25 0 0 1-.25-.25zm16 0a.25.25 0 0 1 .25-.25h.25a.25.25 0 0 1 .25.25v.25a.25.25 0 0 1-.25.25h-.25a.25.25 0 0 1-.25-.25zm-12 2a.25.25 0 0 1 .25-.25h.25a.25.25 0 0 1 .25.25v.25a.25.25 0 0 1-.25.25h-.25a.25.25 0 0 1-.25-.25zm12 0a.25.25 0 0 1 .25-.25h.25a.25.25 0 0 1 .25.25v.25a.25.25 0 0 1-.25.25h-.25a.25.25 0 0 1-.25-.25zm-10 2a.25.25 0 0 1 .25-.25h.25a.25.25 0 0 1 .25.25v.25a.25.25 0 0 1-.25.25h-.25a.25.25 0 0 1-.25-.25zm-2 0a.25.25 0 0 1 .25-.25h.25a.25.25 0 0 1 .25.25v.25a.25.25 0 0 1-.25.25h-.25a.25.25 0 0 1-.25-.25zm10 0a.25.25 0 0 1 .25-.25h.25a.25.25 0 0 1 .25.25v.25a.25.25 0 0 1-.25.25h-.25a.25.25 0 0 1-.25-.25zm-4 2a.25.25 0 0 1 .25-.25h.25a.25.25 0 0 1 .25.25v.25a.25.25 0 0 1-.25.25h-.25a.25.25 0 0 1-.25-.25zm-2 0a.25.25 0 0 1 .25-.25h.25a.25.25 0 0 1 .25.25v.25a.25.25 0 0 1-.25.25h-.25a.25.25 0 0 1-.25-.25zm-2 0a.25.25 0 0 1 .25-.25h.25a.25.25 0 0 1 .25.25v.25a.25.25 0 0 1-.25.25h-.25a.25.25 0 0 1-.25-.25zm6 0a.25.25 0 0 1 .25-.25h.25a.25.25 0 0 1 .25.25v.25a.25.25 0 0 1-.25.25h-.25a.25.25 0 0 1-.25-.25zm-2-13a.25.25 0 0 1 .25-.25h.25a.25.25 0 0 1 .25.25v.25a.25.25 0 0 1-.25.25h-.25a.25.25 0 0 1-.25-.25zm-2 0a.25.25 0 0 1 .25-.25h.25a.25.25 0 0 1 .25.25v.25a.25.25 0 0 1-.25.25h-.25a.25.25 0 0 1-.25-.25zm-2 0a.25.25 0 0 1 .25-.25h.25a.25.25 0 0 1 .25.25v.25a.25.25 0 0 1-.25.25h-.25a.25.25 0 0 1-.25-.25zm6 0a.25.25 0 0 1 .25-.25h.25a.25.25 0 0 1 .25.25v.25a.25.25 0 0 1-.25.25h-.25a.25.25 0 0 1-.25-.25zm-6 2a.25.25 0 0 1 .25-.25h.25a.25.25 0 0 1 .25.25v.25a.25.25 0 0 1-.25.25h-.25a.25.25 0 0 1-.25-.25zm-2 0a.25.25 0 0 1 .25-.25h.25a.25.25 0 0 1 .25.25v.25a.25.25 0 0 1-.25.25h-.25a.25.25 0 0 1-.25-.25zm10 0a.25.25 0 0 1 .25-.25h.25a.25.25 0 0 1 .25.25v.25a.25.25 0 0 1-.25.25h-.25a.25.25 0 0 1-.25-.25zm-10 2a.25.25 0 0 1 .25-.25h.25a.25.25 0 0 1 .25.25v.25a.25.25 0 0 1-.25.25h-.25a.25.25 0 0 1-.25-.25zm12 0a.25.25 0 0 1 .25-.25h.25a.25.25 0 0 1 .25.25v.25a.25.25 0 0 1-.25.25h-.25a.25.25 0 0 1-.25-.25zm-14 2a.25.25 0 0 1 .25-.25h.25a.25.25 0 0 1 .25.25v.25a.25.25 0 0 1-.25.25h-.25a.25.25 0 0 1-.25-.25zm-1 0a.25.25 0 0 1 .25-.25h.25a.25.25 0 0 1 .25.25v.25a.25.25 0 0 1-.25.25h-.25a.25.25 0 0 1-.25-.25zm-1 0a.25.25 0 0 1 .25-.25h.25a.25.25 0 0 1 .25.25v.25a.25.25 0 0 1-.25.25h-.25a.25.25 0 0 1-.25-.25zm16 0a.25.25 0 0 1 .25-.25h.25a.25.25 0 0 1 .25.25v.25a.25.25 0 0 1-.25.25h-.25a.25.25 0 0 1-.25-.25zm-14 2a.25.25 0 0 1 .25-.25h.25a.25.25 0 0 1 .25.25v.25a.25.25 0 0 1-.25.25h-.25a.25.25 0 0 1-.25-.25zm14 0a.25.25 0 0 1 .25-.25h.25a.25.25 0 0 1 .25.25v.25a.25.25 0 0 1-.25.25h-.25a.25.25 0 0 1-.25-.25zm-12 2a.25.25 0 0 1 .25-.25h.25a.25.25 0 0 1 .25.25v.25a.25.25 0 0 1-.25.25h-.25a.25.25 0 0 1-.25-.25zm10 0a.25.25 0 0 1 .25-.25h.25a.25.25 0 0 1 .25.25v.25a.25.25 0 0 1-.25.25h-.25a.25.25 0 0 1-.25-.25zm2 0a.25.25 0 0 1 .25-.25h.25a.25.25 0 0 1 .25.25v.25a.25.25 0 0 1-.25.25h-.25a.25.25 0 0 1-.25-.25zm-10 2a.25.25 0 0 1 .25-.25h.25a.25.25 0 0 1 .25.25v.25a.25.25 0 0 1-.25.25h-.25a.25.25 0 0 1-.25-.25zm6 0a.25.25 0 0 1 .25-.25h.25a.25.25 0 0 1 .25.25v.25a.25.25 0 0 1-.25.25h-.25a.25.25 0 0 1-.25-.25zm2 0a.25.25 0 0 1 .25-.25h.25a.25.25 0 0 1 .25.25v.25a.25.25 0 0 1-.25.25h-.25a.25.25 0 0 1-.25-.25zm-4 2a.25.25 0 0 1 .25-.25h.25a.25.25 0 0 1 .25.25v.25a.25.25 0 0 1-.25.25h-.25a.25.25 0 0 1-.25-.25zm-2 0a.25.25 0 0 1 .25-.25h.25a.25.25 0 0 1 .25.25v.25a.25.25 0 0 1-.25.25h-.25a.25.25 0 0 1-.25-.25z"/></svg>