<svg width="16" height="16" viewBox="0 0 16 16" fill="none" xmlns="http://www.w3.org/2000/svg">
<path d="M7.42025 2.25309C7.42025 2.16104 7.49487 2.08643 7.58691 2.08643H7.75358C7.84563 2.08643 7.92025 2.16104 7.92025 2.25309V2.41976C7.92025 2.51181 7.84563 2.58643 7.75358 2.58643H7.58691C7.49487 2.58643 7.42025 2.51181 7.42025 2.41976V2.25309Z" fill="#2D88BE"/>
<path d="M6.75358 2.25309C6.75358 2.16104 6.8282 2.08643 6.92025 2.08643H7.08691C7.17896 2.08643 7.25358 2.16104 7.25358 2.25309V2.41976C7.25358 2.51181 7.17896 2.58643 7.08691 2.58643H6.92025C6.8282 2.58643 6.75358 2.51181 6.75358 2.41976V2.25309Z" fill="#2D88BE"/>
<path d="M6.08691 2.91976C6.08691 2.82771 6.16153 2.75309 6.25358 2.75309H6.42025C6.51229 2.75309 6.58691 2.82771 6.58691 2.91976V3.08643C6.58691 3.17847 6.51229 3.25309 6.42025 3.25309H6.25358C6.16153 3.25309 6.08691 3.17847 6.08691 3.08643V2.91976Z" fill="#2D88BE"/>
<path d="M5.42025 2.91976C5.42025 2.82771 5.49487 2.75309 5.58691 2.75309H5.75358C5.84563 2.75309 5.92025 2.82771 5.92025 2.91976V3.08643C5.92025 3.17847 5.84563 3.25309 5.75358 3.25309H5.58691C5.49487 3.25309 5.42025 3.17847 5.42025 3.08643V2.91976Z" fill="#2D88BE"/>
<path d="M4.75358 3.58643C4.75358 3.49438 4.8282 3.41976 4.92025 3.41976H5.08691C5.17896 3.41976 5.25358 3.49438 5.25358 3.58643V3.75309C5.25358 3.84514 5.17896 3.91976 5.08691 3.91976H4.92025C4.8282 3.91976 4.75358 3.84514 4.75358 3.75309V3.58643Z" fill="#2D88BE"/>
<path d="M4.08691 3.58643C4.08691 3.49438 4.16153 3.41976 4.25358 3.41976H4.42025C4.51229 3.41976 4.58691 3.49438 4.58691 3.58643V3.75309C4.58691 3.84514 4.51229 3.91976 4.42025 3.91976H4.25358C4.16153 3.91976 4.08691 3.84514 4.08691 3.75309V3.58643Z" fill="#2D88BE"/>
<path d="M3.42025 4.25309C3.42025 4.16104 3.49487 4.08643 3.58691 4.08643H3.75358C3.84563 4.08643 3.92025 4.16104 3.92025 4.25309V4.41976C3.92025 4.51181 3.84563 4.58643 3.75358 4.58643H3.58691C3.49487 4.58643 3.42025 4.51181 3.42025 4.41976V4.25309Z" fill="#2D88BE"/>
<path d="M2.75358 4.91976C2.75358 4.82771 2.8282 4.75309 2.92025 4.75309H3.08691C3.17896 4.75309 3.25358 4.82771 3.25358 4.91976V5.08643C3.25358 5.17847 3.17896 5.25309 3.08691 5.25309H2.92025C2.8282 5.25309 2.75358 5.17847 2.75358 5.08643V4.91976Z" fill="#2D88BE"/>
<path d="M4.75358 8.91976C4.75358 8.82771 4.8282 8.75309 4.92025 8.75309H5.08691C5.17896 8.75309 5.25358 8.82771 5.25358 8.91976V9.08643C5.25358 9.17847 5.17896 9.25309 5.08691 9.25309H4.92025C4.8282 9.25309 4.75358 9.17847 4.75358 9.08643V8.91976Z" fill="#2D88BE"/>
<path d="M4.75358 10.2531C4.75358 10.161 4.8282 10.0864 4.92025 10.0864H5.08691C5.17896 10.0864 5.25358 10.161 5.25358 10.2531V10.4198C5.25358 10.5118 5.17896 10.5864 5.08691 10.5864H4.92025C4.8282 10.5864 4.75358 10.5118 4.75358 10.4198V10.2531Z" fill="#2D88BE"/>
<path d="M4.75358 11.5864C4.75358 11.4944 4.8282 11.4198 4.92025 11.4198H5.08691C5.17896 11.4198 5.25358 11.4944 5.25358 11.5864V11.7531C5.25358 11.8451 5.17896 11.9198 5.08691 11.9198H4.92025C4.8282 11.9198 4.75358 11.8451 4.75358 11.7531V11.5864Z" fill="#2D88BE"/>
<path d="M4.75358 12.9198C4.75358 12.8277 4.8282 12.7531 4.92025 12.7531H5.08691C5.17896 12.7531 5.25358 12.8277 5.25358 12.9198V13.0864C5.25358 13.1785 5.17896 13.2531 5.08691 13.2531H4.92025C4.8282 13.2531 4.75358 13.1785 4.75358 13.0864V12.9198Z" fill="#2D88BE"/>
<path d="M3.42025 12.9198C3.42025 12.8277 3.49487 12.7531 3.58691 12.7531H3.75358C3.84563 12.7531 3.92025 12.8277 3.92025 12.9198V13.0864C3.92025 13.1785 3.84563 13.2531 3.75358 13.2531H3.58691C3.49487 13.2531 3.42025 13.1785 3.42025 13.0864V12.9198Z" fill="#2D88BE"/>
<path d="M2.08691 12.9198C2.08691 12.8277 2.16153 12.7531 2.25358 12.7531H2.42025C2.51229 12.7531 2.58691 12.8277 2.58691 12.9198V13.0864C2.58691 13.1785 2.51229 13.2531 2.42025 13.2531H2.25358C2.16153 13.2531 2.08691 13.1785 2.08691 13.0864V12.9198Z" fill="#2D88BE"/>
<path d="M2.08691 11.5864C2.08691 11.4944 2.16153 11.4198 2.25358 11.4198H2.42025C2.51229 11.4198 2.58691 11.4944 2.58691 11.5864V11.7531C2.58691 11.8451 2.51229 11.9198 2.42025 11.9198H2.25358C2.16153 11.9198 2.08691 11.8451 2.08691 11.7531V11.5864Z" fill="#2D88BE"/>
<path d="M2.08691 10.2531C2.08691 10.161 2.16153 10.0864 2.25358 10.0864H2.42025C2.51229 10.0864 2.58691 10.161 2.58691 10.2531V10.4198C2.58691 10.5118 2.51229 10.5864 2.42025 10.5864H2.25358C2.16153 10.5864 2.08691 10.5118 2.08691 10.4198V10.2531Z" fill="#2D88BE"/>
<path d="M2.08691 8.91976C2.08691 8.82771 2.16153 8.75309 2.25358 8.75309H2.42025C2.51229 8.75309 2.58691 8.82771 2.58691 8.91976V9.08643C2.58691 9.17847 2.51229 9.25309 2.42025 9.25309H2.25358C2.16153 9.25309 2.08691 9.17847 2.08691 9.08643V8.91976Z" fill="#2D88BE"/>
<path d="M2.08691 7.58643C2.08691 7.49438 2.16153 7.41976 2.25358 7.41976H2.42025C2.51229 7.41976 2.58691 7.49438 2.58691 7.58643V7.75309C2.58691 7.84514 2.51229 7.91976 2.42025 7.91976H2.25358C2.16153 7.91976 2.08691 7.84514 2.08691 7.75309V7.58643Z" fill="#2D88BE"/>
<path d="M7.42025 2.91976C7.42025 2.82771 7.49487 2.75309 7.58691 2.75309H7.75358C7.84563 2.75309 7.92025 2.82771 7.92025 2.91976V3.08643C7.92025 3.17847 7.84563 3.25309 7.75358 3.25309H7.58691C7.49487 3.25309 7.42025 3.17847 7.42025 3.08643V2.91976Z" fill="#2D88BE"/>
<path d="M6.75358 2.91976C6.75358 2.82771 6.8282 2.75309 6.92025 2.75309H7.08691C7.17896 2.75309 7.25358 2.82771 7.25358 2.91976V3.08643C7.25358 3.17847 7.17896 3.25309 7.08691 3.25309H6.92025C6.8282 3.25309 6.75358 3.17847 6.75358 3.08643V2.91976Z" fill="#2D88BE"/>
<path d="M6.08691 3.58643C6.08691 3.49438 6.16153 3.41976 6.25358 3.41976H6.42025C6.51229 3.41976 6.58691 3.49438 6.58691 3.58643V3.75309C6.58691 3.84514 6.51229 3.91976 6.42025 3.91976H6.25358C6.16153 3.91976 6.08691 3.84514 6.08691 3.75309V3.58643Z" fill="#2D88BE"/>
<path d="M5.42025 3.58643C5.42025 3.49438 5.49487 3.41976 5.58691 3.41976H5.75358C5.84563 3.41976 5.92025 3.49438 5.92025 3.58643V3.75309C5.92025 3.84514 5.84563 3.91976 5.75358 3.91976H5.58691C5.49487 3.91976 5.42025 3.84514 5.42025 3.75309V3.58643Z" fill="#2D88BE"/>
<path d="M4.75358 4.25309C4.75358 4.16104 4.8282 4.08643 4.92025 4.08643H5.08691C5.17896 4.08643 5.25358 4.16104 5.25358 4.25309V4.41976C5.25358 4.51181 5.17896 4.58643 5.08691 4.58643H4.92025C4.8282 4.58643 4.75358 4.51181 4.75358 4.41976V4.25309Z" fill="#2D88BE"/>
<path d="M4.08691 4.25309C4.08691 4.16104 4.16153 4.08643 4.25358 4.08643H4.42025C4.51229 4.08643 4.58691 4.16104 4.58691 4.25309V4.41976C4.58691 4.51181 4.51229 4.58643 4.42025 4.58643H4.25358C4.16153 4.58643 4.08691 4.51181 4.08691 4.41976V4.25309Z" fill="#2D88BE"/>
<path d="M3.42025 4.91976C3.42025 4.82771 3.49487 4.75309 3.58691 4.75309H3.75358C3.84563 4.75309 3.92025 4.82771 3.92025 4.91976V5.08643C3.92025 5.17847 3.84563 5.25309 3.75358 5.25309H3.58691C3.49487 5.25309 3.42025 5.17847 3.42025 5.08643V4.91976Z" fill="#2D88BE"/>
<path d="M2.75358 6.25309C2.75358 6.16104 2.8282 6.08643 2.92025 6.08643H3.08691C3.17896 6.08643 3.25358 6.16104 3.25358 6.25309V6.41976C3.25358 6.51181 3.17896 6.58643 3.08691 6.58643H2.92025C2.8282 6.58643 2.75358 6.51181 2.75358 6.41976V6.25309Z" fill="#2D88BE"/>
<path d="M3.42025 5.58643C3.42025 5.49438 3.49487 5.41976 3.58691 5.41976H3.75358C3.84563 5.41976 3.92025 5.49438 3.92025 5.58643V5.75309C3.92025 5.84514 3.84563 5.91976 3.75358 5.91976H3.58691C3.49487 5.91976 3.42025 5.84514 3.42025 5.75309V5.58643Z" fill="#2D88BE"/>
<path d="M2.75358 6.91976C2.75358 6.82771 2.8282 6.75309 2.92025 6.75309H3.08691C3.17896 6.75309 3.25358 6.82771 3.25358 6.91976V7.08643C3.25358 7.17847 3.17896 7.25309 3.08691 7.25309H2.92025C2.8282 7.25309 2.75358 7.17847 2.75358 7.08643V6.91976Z" fill="#2D88BE"/>
<path d="M2.75358 5.58643C2.75358 5.49438 2.8282 5.41976 2.92025 5.41976H3.08691C3.17896 5.41976 3.25358 5.49438 3.25358 5.58643V5.75309C3.25358 5.84514 3.17896 5.91976 3.08691 5.91976H2.92025C2.8282 5.91976 2.75358 5.84514 2.75358 5.75309V5.58643Z" fill="#2D88BE"/>
<path d="M2.08691 6.91976C2.08691 6.82771 2.16153 6.75309 2.25358 6.75309H2.42025C2.51229 6.75309 2.58691 6.82771 2.58691 6.91976V7.08643C2.58691 7.17847 2.51229 7.25309 2.42025 7.25309H2.25358C2.16153 7.25309 2.08691 7.17847 2.08691 7.08643V6.91976Z" fill="#2D88BE"/>
<path d="M4.75358 9.58643C4.75358 9.49438 4.8282 9.41976 4.92025 9.41976H5.08691C5.17896 9.41976 5.25358 9.49438 5.25358 9.58643V9.75309C5.25358 9.84514 5.17896 9.91976 5.08691 9.91976H4.92025C4.8282 9.91976 4.75358 9.84514 4.75358 9.75309V9.58643Z" fill="#2D88BE"/>
<path d="M4.75358 10.9198C4.75358 10.8277 4.8282 10.7531 4.92025 10.7531H5.08691C5.17896 10.7531 5.25358 10.8277 5.25358 10.9198V11.0864C5.25358 11.1785 5.17896 11.2531 5.08691 11.2531H4.92025C4.8282 11.2531 4.75358 11.1785 4.75358 11.0864V10.9198Z" fill="#2D88BE"/>
<path d="M4.75358 12.2531C4.75358 12.161 4.8282 12.0864 4.92025 12.0864H5.08691C5.17896 12.0864 5.25358 12.161 5.25358 12.2531V12.4198C5.25358 12.5118 5.17896 12.5864 5.08691 12.5864H4.92025C4.8282 12.5864 4.75358 12.5118 4.75358 12.4198V12.2531Z" fill="#2D88BE"/>
<path d="M4.75358 13.5864C4.75358 13.4944 4.8282 13.4198 4.92025 13.4198H5.08691C5.17896 13.4198 5.25358 13.4944 5.25358 13.5864V13.7531C5.25358 13.8451 5.17896 13.9198 5.08691 13.9198H4.92025C4.8282 13.9198 4.75358 13.8451 4.75358 13.7531V13.5864Z" fill="#2D88BE"/>
<path d="M3.42025 13.5864C3.42025 13.4944 3.49487 13.4198 3.58691 13.4198H3.75358C3.84563 13.4198 3.92025 13.4944 3.92025 13.5864V13.7531C3.92025 13.8451 3.84563 13.9198 3.75358 13.9198H3.58691C3.49487 13.9198 3.42025 13.8451 3.42025 13.7531V13.5864Z" fill="#2D88BE"/>
<path d="M2.08691 12.2531C2.08691 12.161 2.16153 12.0864 2.25358 12.0864H2.42025C2.51229 12.0864 2.58691 12.161 2.58691 12.2531V12.4198C2.58691 12.5118 2.51229 12.5864 2.42025 12.5864H2.25358C2.16153 12.5864 2.08691 12.5118 2.08691 12.4198V12.2531Z" fill="#2D88BE"/>
<path d="M2.08691 10.9198C2.08691 10.8277 2.16153 10.7531 2.25358 10.7531H2.42025C2.51229 10.7531 2.58691 10.8277 2.58691 10.9198V11.0864C2.58691 11.1785 2.51229 11.2531 2.42025 11.2531H2.25358C2.16153 11.2531 2.08691 11.1785 2.08691 11.0864V10.9198Z" fill="#2D88BE"/>
<path d="M2.08691 9.58643C2.08691 9.49438 2.16153 9.41976 2.25358 9.41976H2.42025C2.51229 9.41976 2.58691 9.49438 2.58691 9.58643V9.75309C2.58691 9.84514 2.51229 9.91976 2.42025 9.91976H2.25358C2.16153 9.91976 2.08691 9.84514 2.08691 9.75309V9.58643Z" fill="#2D88BE"/>
<path d="M2.08691 8.25309C2.08691 8.16104 2.16153 8.08643 2.25358 8.08643H2.42025C2.51229 8.08643 2.58691 8.16104 2.58691 8.25309V8.41976C2.58691 8.51181 2.51229 8.58643 2.42025 8.58643H2.25358C2.16153 8.58643 2.08691 8.51181 2.08691 8.41976V8.25309Z" fill="#2D88BE"/>
<path d="M8.08691 2.25309C8.08691 2.16104 8.16153 2.08643 8.25358 2.08643H8.42025C8.51229 2.08643 8.58691 2.16104 8.58691 2.25309V2.41976C8.58691 2.51181 8.51229 2.58643 8.42025 2.58643H8.25358C8.16153 2.58643 8.08691 2.51181 8.08691 2.41976V2.25309Z" fill="#2D88BE"/>
<path d="M5.42025 8.91976C5.42025 8.82771 5.49487 8.75309 5.58691 8.75309H5.75358C5.84563 8.75309 5.92025 8.82771 5.92025 8.91976V9.08643C5.92025 9.17847 5.84563 9.25309 5.75358 9.25309H5.58691C5.49487 9.25309 5.42025 9.17847 5.42025 9.08643V8.91976Z" fill="#2D88BE"/>
<path d="M5.42025 10.2531C5.42025 10.161 5.49487 10.0864 5.58691 10.0864H5.75358C5.84563 10.0864 5.92025 10.161 5.92025 10.2531V10.4198C5.92025 10.5118 5.84563 10.5864 5.75358 10.5864H5.58691C5.49487 10.5864 5.42025 10.5118 5.42025 10.4198V10.2531Z" fill="#2D88BE"/>
<path d="M5.42025 11.5864C5.42025 11.4944 5.49487 11.4198 5.58691 11.4198H5.75358C5.84563 11.4198 5.92025 11.4944 5.92025 11.5864V11.7531C5.92025 11.8451 5.84563 11.9198 5.75358 11.9198H5.58691C5.49487 11.9198 5.42025 11.8451 5.42025 11.7531V11.5864Z" fill="#2D88BE"/>
<path d="M5.42025 12.9198C5.42025 12.8277 5.49487 12.7531 5.58691 12.7531H5.75358C5.84563 12.7531 5.92025 12.8277 5.92025 12.9198V13.0864C5.92025 13.1785 5.84563 13.2531 5.75358 13.2531H5.58691C5.49487 13.2531 5.42025 13.1785 5.42025 13.0864V12.9198Z" fill="#2D88BE"/>
<path d="M4.08691 12.9198C4.08691 12.8277 4.16153 12.7531 4.25358 12.7531H4.42025C4.51229 12.7531 4.58691 12.8277 4.58691 12.9198V13.0864C4.58691 13.1785 4.51229 13.2531 4.42025 13.2531H4.25358C4.16153 13.2531 4.08691 13.1785 4.08691 13.0864V12.9198Z" fill="#2D88BE"/>
<path d="M2.75358 12.9198C2.75358 12.8277 2.8282 12.7531 2.92025 12.7531H3.08691C3.17896 12.7531 3.25358 12.8277 3.25358 12.9198V13.0864C3.25358 13.1785 3.17896 13.2531 3.08691 13.2531H2.92025C2.8282 13.2531 2.75358 13.1785 2.75358 13.0864V12.9198Z" fill="#2D88BE"/>
<path d="M2.75358 11.5864C2.75358 11.4944 2.8282 11.4198 2.92025 11.4198H3.08691C3.17896 11.4198 3.25358 11.4944 3.25358 11.5864V11.7531C3.25358 11.8451 3.17896 11.9198 3.08691 11.9198H2.92025C2.8282 11.9198 2.75358 11.8451 2.75358 11.7531V11.5864Z" fill="#2D88BE"/>
<path d="M2.75358 10.2531C2.75358 10.161 2.8282 10.0864 2.92025 10.0864H3.08691C3.17896 10.0864 3.25358 10.161 3.25358 10.2531V10.4198C3.25358 10.5118 3.17896 10.5864 3.08691 10.5864H2.92025C2.8282 10.5864 2.75358 10.5118 2.75358 10.4198V10.2531Z" fill="#2D88BE"/>
<path d="M2.75358 8.91976C2.75358 8.82771 2.8282 8.75309 2.92025 8.75309H3.08691C3.17896 8.75309 3.25358 8.82771 3.25358 8.91976V9.08643C3.25358 9.17847 3.17896 9.25309 3.08691 9.25309H2.92025C2.8282 9.25309 2.75358 9.17847 2.75358 9.08643V8.91976Z" fill="#2D88BE"/>
<path d="M3.42025 8.91976C3.42025 8.82771 3.49487 8.75309 3.58691 8.75309H3.75358C3.84563 8.75309 3.92025 8.82771 3.92025 8.91976V9.08643C3.92025 9.17847 3.84563 9.25309 3.75358 9.25309H3.58691C3.49487 9.25309 3.42025 9.17847 3.42025 9.08643V8.91976Z" fill="#2D88BE"/>
<path d="M4.08691 8.91976C4.08691 8.82771 4.16153 8.75309 4.25358 8.75309H4.42025C4.51229 8.75309 4.58691 8.82771 4.58691 8.91976V9.08643C4.58691 9.17847 4.51229 9.25309 4.42025 9.25309H4.25358C4.16153 9.25309 4.08691 9.17847 4.08691 9.08643V8.91976Z" fill="#2D88BE"/>
<path d="M2.75358 7.58643C2.75358 7.49438 2.8282 7.41976 2.92025 7.41976H3.08691C3.17896 7.41976 3.25358 7.49438 3.25358 7.58643V7.75309C3.25358 7.84514 3.17896 7.91976 3.08691 7.91976H2.92025C2.8282 7.91976 2.75358 7.84514 2.75358 7.75309V7.58643Z" fill="#2D88BE"/>
<path d="M8.08691 2.91976C8.08691 2.82771 8.16153 2.75309 8.25358 2.75309H8.42025C8.51229 2.75309 8.58691 2.82771 8.58691 2.91976V3.08643C8.58691 3.17847 8.51229 3.25309 8.42025 3.25309H8.25358C8.16153 3.25309 8.08691 3.17847 8.08691 3.08643V2.91976Z" fill="#2D88BE"/>
<path d="M7.42025 2.25309C7.42025 2.16104 7.49487 2.08643 7.58691 2.08643H7.75358C7.84563 2.08643 7.92025 2.16104 7.92025 2.25309V2.41976C7.92025 2.51181 7.84563 2.58643 7.75358 2.58643H7.58691C7.49487 2.58643 7.42025 2.51181 7.42025 2.41976V2.25309Z" fill="#2D88BE"/>
<path d="M6.75358 2.25309C6.75358 2.16104 6.8282 2.08643 6.92025 2.08643H7.08691C7.17896 2.08643 7.25358 2.16104 7.25358 2.25309V2.41976C7.25358 2.51181 7.17896 2.58643 7.08691 2.58643H6.92025C6.8282 2.58643 6.75358 2.51181 6.75358 2.41976V2.25309Z" fill="#2D88BE"/>
<path d="M6.08691 2.91976C6.08691 2.82771 6.16153 2.75309 6.25358 2.75309H6.42025C6.51229 2.75309 6.58691 2.82771 6.58691 2.91976V3.08643C6.58691 3.17847 6.51229 3.25309 6.42025 3.25309H6.25358C6.16153 3.25309 6.08691 3.17847 6.08691 3.08643V2.91976Z" fill="#2D88BE"/>
<path d="M5.42025 2.91976C5.42025 2.82771 5.49487 2.75309 5.58691 2.75309H5.75358C5.84563 2.75309 5.92025 2.82771 5.92025 2.91976V3.08643C5.92025 3.17847 5.84563 3.25309 5.75358 3.25309H5.58691C5.49487 3.25309 5.42025 3.17847 5.42025 3.08643V2.91976Z" fill="#2D88BE"/>
<path d="M4.75358 3.58643C4.75358 3.49438 4.8282 3.41976 4.92025 3.41976H5.08691C5.17896 3.41976 5.25358 3.49438 5.25358 3.58643V3.75309C5.25358 3.84514 5.17896 3.91976 5.08691 3.91976H4.92025C4.8282 3.91976 4.75358 3.84514 4.75358 3.75309V3.58643Z" fill="#2D88BE"/>
<path d="M4.08691 3.58643C4.08691 3.49438 4.16153 3.41976 4.25358 3.41976H4.42025C4.51229 3.41976 4.58691 3.49438 4.58691 3.58643V3.75309C4.58691 3.84514 4.51229 3.91976 4.42025 3.91976H4.25358C4.16153 3.91976 4.08691 3.84514 4.08691 3.75309V3.58643Z" fill="#2D88BE"/>
<path d="M3.42025 4.25309C3.42025 4.16104 3.49487 4.08643 3.58691 4.08643H3.75358C3.84563 4.08643 3.92025 4.16104 3.92025 4.25309V4.41976C3.92025 4.51181 3.84563 4.58643 3.75358 4.58643H3.58691C3.49487 4.58643 3.42025 4.51181 3.42025 4.41976V4.25309Z" fill="#2D88BE"/>
<path d="M2.75358 4.91976C2.75358 4.82771 2.8282 4.75309 2.92025 4.75309H3.08691C3.17896 4.75309 3.25358 4.82771 3.25358 4.91976V5.08643C3.25358 5.17847 3.17896 5.25309 3.08691 5.25309H2.92025C2.8282 5.25309 2.75358 5.17847 2.75358 5.08643V4.91976Z" fill="#2D88BE"/>
<path d="M7.42025 2.91976C7.42025 2.82771 7.49487 2.75309 7.58691 2.75309H7.75358C7.84563 2.75309 7.92025 2.82771 7.92025 2.91976V3.08643C7.92025 3.17847 7.84563 3.25309 7.75358 3.25309H7.58691C7.49487 3.25309 7.42025 3.17847 7.42025 3.08643V2.91976Z" fill="#2D88BE"/>
<path d="M6.75358 2.91976C6.75358 2.82771 6.8282 2.75309 6.92025 2.75309H7.08691C7.17896 2.75309 7.25358 2.82771 7.25358 2.91976V3.08643C7.25358 3.17847 7.17896 3.25309 7.08691 3.25309H6.92025C6.8282 3.25309 6.75358 3.17847 6.75358 3.08643V2.91976Z" fill="#2D88BE"/>
<path d="M6.08691 3.58643C6.08691 3.49438 6.16153 3.41976 6.25358 3.41976H6.42025C6.51229 3.41976 6.58691 3.49438 6.58691 3.58643V3.75309C6.58691 3.84514 6.51229 3.91976 6.42025 3.91976H6.25358C6.16153 3.91976 6.08691 3.84514 6.08691 3.75309V3.58643Z" fill="#2D88BE"/>
<path d="M5.42025 3.58643C5.42025 3.49438 5.49487 3.41976 5.58691 3.41976H5.75358C5.84563 3.41976 5.92025 3.49438 5.92025 3.58643V3.75309C5.92025 3.84514 5.84563 3.91976 5.75358 3.91976H5.58691C5.49487 3.91976 5.42025 3.84514 5.42025 3.75309V3.58643Z" fill="#2D88BE"/>
<path d="M4.75358 4.25309C4.75358 4.16104 4.8282 4.08643 4.92025 4.08643H5.08691C5.17896 4.08643 5.25358 4.16104 5.25358 4.25309V4.41976C5.25358 4.51181 5.17896 4.58643 5.08691 4.58643H4.92025C4.8282 4.58643 4.75358 4.51181 4.75358 4.41976V4.25309Z" fill="#2D88BE"/>
<path d="M4.08691 4.25309C4.08691 4.16104 4.16153 4.08643 4.25358 4.08643H4.42025C4.51229 4.08643 4.58691 4.16104 4.58691 4.25309V4.41976C4.58691 4.51181 4.51229 4.58643 4.42025 4.58643H4.25358C4.16153 4.58643 4.08691 4.51181 4.08691 4.41976V4.25309Z" fill="#2D88BE"/>
<path d="M3.42025 4.91976C3.42025 4.82771 3.49487 4.75309 3.58691 4.75309H3.75358C3.84563 4.75309 3.92025 4.82771 3.92025 4.91976V5.08643C3.92025 5.17847 3.84563 5.25309 3.75358 5.25309H3.58691C3.49487 5.25309 3.42025 5.17847 3.42025 5.08643V4.91976Z" fill="#2D88BE"/>
<path d="M2.75358 6.25309C2.75358 6.16104 2.8282 6.08643 2.92025 6.08643H3.08691C3.17896 6.08643 3.25358 6.16104 3.25358 6.25309V6.41976C3.25358 6.51181 3.17896 6.58643 3.08691 6.58643H2.92025C2.8282 6.58643 2.75358 6.51181 2.75358 6.41976V6.25309Z" fill="#2D88BE"/>
<path d="M3.42025 5.58643C3.42025 5.49438 3.49487 5.41976 3.58691 5.41976H3.75358C3.84563 5.41976 3.92025 5.49438 3.92025 5.58643V5.75309C3.92025 5.84514 3.84563 5.91976 3.75358 5.91976H3.58691C3.49487 5.91976 3.42025 5.84514 3.42025 5.75309V5.58643Z" fill="#2D88BE"/>
<path d="M2.75358 5.58643C2.75358 5.49438 2.8282 5.41976 2.92025 5.41976H3.08691C3.17896 5.41976 3.25358 5.49438 3.25358 5.58643V5.75309C3.25358 5.84514 3.17896 5.91976 3.08691 5.91976H2.92025C2.8282 5.91976 2.75358 5.84514 2.75358 5.75309V5.58643Z" fill="#2D88BE"/>
<path d="M8.08691 2.25309C8.08691 2.16104 8.16153 2.08643 8.25358 2.08643H8.42025C8.51229 2.08643 8.58691 2.16104 8.58691 2.25309V2.41976C8.58691 2.51181 8.51229 2.58643 8.42025 2.58643H8.25358C8.16153 2.58643 8.08691 2.51181 8.08691 2.41976V2.25309Z" fill="#2D88BE"/>
<path d="M8.08691 2.91976C8.08691 2.82771 8.16153 2.75309 8.25358 2.75309H8.42025C8.51229 2.75309 8.58691 2.82771 8.58691 2.91976V3.08643C8.58691 3.17847 8.51229 3.25309 8.42025 3.25309H8.25358C8.16153 3.25309 8.08691 3.17847 8.08691 3.08643V2.91976Z" fill="#2D88BE"/>
<path d="M13.2536 6.91976C13.2536 6.82771 13.179 6.75309 13.0869 6.75309H12.9202C12.8282 6.75309 12.7536 6.82771 12.7536 6.91976V7.08643C12.7536 7.17847 12.8282 7.25309 12.9202 7.25309H13.0869C13.179 7.25309 13.2536 7.17847 13.2536 7.08643V6.91976Z" fill="#2D88BE"/>
<path d="M13.9202 6.91976C13.9202 6.82771 13.8456 6.75309 13.7536 6.75309H13.5869C13.4949 6.75309 13.4202 6.82771 13.4202 6.91976V7.08643C13.4202 7.17847 13.4949 7.25309 13.5869 7.25309H13.7536C13.8456 7.25309 13.9202 7.17847 13.9202 7.08643V6.91976Z" fill="#2D88BE"/>
<path d="M9.25358 2.25309C9.25358 2.16104 9.17896 2.08643 9.08691 2.08643H8.92025C8.8282 2.08643 8.75358 2.16104 8.75358 2.25309V2.41976C8.75358 2.51181 8.8282 2.58643 8.92025 2.58643H9.08691C9.17896 2.58643 9.25358 2.51181 9.25358 2.41976V2.25309Z" fill="#2D88BE"/>
<path d="M9.92025 2.91976C9.92025 2.82771 9.84563 2.75309 9.75358 2.75309H9.58691C9.49487 2.75309 9.42025 2.82771 9.42025 2.91976V3.08643C9.42025 3.17847 9.49487 3.25309 9.58691 3.25309H9.75358C9.84563 3.25309 9.92025 3.17847 9.92025 3.08643V2.91976Z" fill="#2D88BE"/>
<path d="M10.5869 2.91976C10.5869 2.82771 10.5123 2.75309 10.4202 2.75309H10.2536C10.1615 2.75309 10.0869 2.82771 10.0869 2.91976V3.08643C10.0869 3.17847 10.1615 3.25309 10.2536 3.25309H10.4202C10.5123 3.25309 10.5869 3.17847 10.5869 3.08643V2.91976Z" fill="#2D88BE"/>
<path d="M11.2536 3.58643C11.2536 3.49438 11.179 3.41976 11.0869 3.41976H10.9202C10.8282 3.41976 10.7536 3.49438 10.7536 3.58643V3.75309C10.7536 3.84514 10.8282 3.91976 10.9202 3.91976H11.0869C11.179 3.91976 11.2536 3.84514 11.2536 3.75309V3.58643Z" fill="#2D88BE"/>
<path d="M11.9202 3.58643C11.9202 3.49438 11.8456 3.41976 11.7536 3.41976H11.5869C11.4949 3.41976 11.4202 3.49438 11.4202 3.58643V3.75309C11.4202 3.84514 11.4949 3.91976 11.5869 3.91976H11.7536C11.8456 3.91976 11.9202 3.84514 11.9202 3.75309V3.58643Z" fill="#2D88BE"/>
<path d="M12.5869 4.25309C12.5869 4.16104 12.5123 4.08643 12.4202 4.08643H12.2536C12.1615 4.08643 12.0869 4.16104 12.0869 4.25309V4.41976C12.0869 4.51181 12.1615 4.58643 12.2536 4.58643H12.4202C12.5123 4.58643 12.5869 4.51181 12.5869 4.41976V4.25309Z" fill="#2D88BE"/>
<path d="M13.2536 4.91976C13.2536 4.82771 13.179 4.75309 13.0869 4.75309H12.9202C12.8282 4.75309 12.7536 4.82771 12.7536 4.91976V5.08643C12.7536 5.17847 12.8282 5.25309 12.9202 5.25309H13.0869C13.179 5.25309 13.2536 5.17847 13.2536 5.08643V4.91976Z" fill="#2D88BE"/>
<path d="M9.25358 2.91976C9.25358 2.82771 9.17896 2.75309 9.08691 2.75309H8.92025C8.8282 2.75309 8.75358 2.82771 8.75358 2.91976V3.08643C8.75358 3.17847 8.8282 3.25309 8.92025 3.25309H9.08691C9.17896 3.25309 9.25358 3.17847 9.25358 3.08643V2.91976Z" fill="#2D88BE"/>
<path d="M9.92025 3.58643C9.92025 3.49438 9.84563 3.41976 9.75358 3.41976H9.58691C9.49487 3.41976 9.42025 3.49438 9.42025 3.58643V3.75309C9.42025 3.84514 9.49487 3.91976 9.58691 3.91976H9.75358C9.84563 3.91976 9.92025 3.84514 9.92025 3.75309V3.58643Z" fill="#2D88BE"/>
<path d="M10.5869 3.58643C10.5869 3.49438 10.5123 3.41976 10.4202 3.41976H10.2536C10.1615 3.41976 10.0869 3.49438 10.0869 3.58643V3.75309C10.0869 3.84514 10.1615 3.91976 10.2536 3.91976H10.4202C10.5123 3.91976 10.5869 3.84514 10.5869 3.75309V3.58643Z" fill="#2D88BE"/>
<path d="M11.2536 4.25309C11.2536 4.16104 11.179 4.08643 11.0869 4.08643H10.9202C10.8282 4.08643 10.7536 4.16104 10.7536 4.25309V4.41976C10.7536 4.51181 10.8282 4.58643 10.9202 4.58643H11.0869C11.179 4.58643 11.2536 4.51181 11.2536 4.41976V4.25309Z" fill="#2D88BE"/>
<path d="M11.9202 4.25309C11.9202 4.16104 11.8456 4.08643 11.7536 4.08643H11.5869C11.4949 4.08643 11.4202 4.16104 11.4202 4.25309V4.41976C11.4202 4.51181 11.4949 4.58643 11.5869 4.58643H11.7536C11.8456 4.58643 11.9202 4.51181 11.9202 4.41976V4.25309Z" fill="#2D88BE"/>
<path d="M12.5869 4.91976C12.5869 4.82771 12.5123 4.75309 12.4202 4.75309H12.2536C12.1615 4.75309 12.0869 4.82771 12.0869 4.91976V5.08643C12.0869 5.17847 12.1615 5.25309 12.2536 5.25309H12.4202C12.5123 5.25309 12.5869 5.17847 12.5869 5.08643V4.91976Z" fill="#2D88BE"/>
<path d="M13.2536 6.25309C13.2536 6.16104 13.179 6.08643 13.0869 6.08643H12.9202C12.8282 6.08643 12.7536 6.16104 12.7536 6.25309V6.41976C12.7536 6.51181 12.8282 6.58643 12.9202 6.58643H13.0869C13.179 6.58643 13.2536 6.51181 13.2536 6.41976V6.25309Z" fill="#2D88BE"/>
<path d="M12.5869 5.58643C12.5869 5.49438 12.5123 5.41976 12.4202 5.41976H12.2536C12.1615 5.41976 12.0869 5.49438 12.0869 5.58643V5.75309C12.0869 5.84514 12.1615 5.91976 12.2536 5.91976H12.4202C12.5123 5.91976 12.5869 5.84514 12.5869 5.75309V5.58643Z" fill="#2D88BE"/>
<path d="M13.2536 5.58643C13.2536 5.49438 13.179 5.41976 13.0869 5.41976H12.9202C12.8282 5.41976 12.7536 5.49438 12.7536 5.58643V5.75309C12.7536 5.84514 12.8282 5.91976 12.9202 5.91976H13.0869C13.179 5.91976 13.2536 5.84514 13.2536 5.75309V5.58643Z" fill="#2D88BE"/>
<path d="M5.42025 9.58643C5.42025 9.49438 5.49487 9.41976 5.58691 9.41976H5.75358C5.84563 9.41976 5.92025 9.49438 5.92025 9.58643V9.75309C5.92025 9.84514 5.84563 9.91976 5.75358 9.91976H5.58691C5.49487 9.91976 5.42025 9.84514 5.42025 9.75309V9.58643Z" fill="#2D88BE"/>
<path d="M5.42025 10.9198C5.42025 10.8277 5.49487 10.7531 5.58691 10.7531H5.75358C5.84563 10.7531 5.92025 10.8277 5.92025 10.9198V11.0864C5.92025 11.1785 5.84563 11.2531 5.75358 11.2531H5.58691C5.49487 11.2531 5.42025 11.1785 5.42025 11.0864V10.9198Z" fill="#2D88BE"/>
<path d="M5.42025 12.2531C5.42025 12.161 5.49487 12.0864 5.58691 12.0864H5.75358C5.84563 12.0864 5.92025 12.161 5.92025 12.2531V12.4198C5.92025 12.5118 5.84563 12.5864 5.75358 12.5864H5.58691C5.49487 12.5864 5.42025 12.5118 5.42025 12.4198V12.2531Z" fill="#2D88BE"/>
<path d="M5.42025 13.5864C5.42025 13.4944 5.49487 13.4198 5.58691 13.4198H5.75358C5.84563 13.4198 5.92025 13.4944 5.92025 13.5864V13.7531C5.92025 13.8451 5.84563 13.9198 5.75358 13.9198H5.58691C5.49487 13.9198 5.42025 13.8451 5.42025 13.7531V13.5864Z" fill="#2D88BE"/>
<path d="M4.08691 13.5864C4.08691 13.4944 4.16153 13.4198 4.25358 13.4198H4.42025C4.51229 13.4198 4.58691 13.4944 4.58691 13.5864V13.7531C4.58691 13.8451 4.51229 13.9198 4.42025 13.9198H4.25358C4.16153 13.9198 4.08691 13.8451 4.08691 13.7531V13.5864Z" fill="#2D88BE"/>
<path d="M2.75358 13.5864C2.75358 13.4944 2.8282 13.4198 2.92025 13.4198H3.08691C3.17896 13.4198 3.25358 13.4944 3.25358 13.5864V13.7531C3.25358 13.8451 3.17896 13.9198 3.08691 13.9198H2.92025C2.8282 13.9198 2.75358 13.8451 2.75358 13.7531V13.5864Z" fill="#2D88BE"/>
<path d="M2.75358 12.2531C2.75358 12.161 2.8282 12.0864 2.92025 12.0864H3.08691C3.17896 12.0864 3.25358 12.161 3.25358 12.2531V12.4198C3.25358 12.5118 3.17896 12.5864 3.08691 12.5864H2.92025C2.8282 12.5864 2.75358 12.5118 2.75358 12.4198V12.2531Z" fill="#2D88BE"/>
<path d="M2.75358 10.9198C2.75358 10.8277 2.8282 10.7531 2.92025 10.7531H3.08691C3.17896 10.7531 3.25358 10.8277 3.25358 10.9198V11.0864C3.25358 11.1785 3.17896 11.2531 3.08691 11.2531H2.92025C2.8282 11.2531 2.75358 11.1785 2.75358 11.0864V10.9198Z" fill="#2D88BE"/>
<path d="M2.75358 9.58643C2.75358 9.49438 2.8282 9.41976 2.92025 9.41976H3.08691C3.17896 9.41976 3.25358 9.49438 3.25358 9.58643V9.75309C3.25358 9.84514 3.17896 9.91976 3.08691 9.91976H2.92025C2.8282 9.91976 2.75358 9.84514 2.75358 9.75309V9.58643Z" fill="#2D88BE"/>
<path d="M3.42025 9.58643C3.42025 9.49438 3.49487 9.41976 3.58691 9.41976H3.75358C3.84563 9.41976 3.92025 9.49438 3.92025 9.58643V9.75309C3.92025 9.84514 3.84563 9.91976 3.75358 9.91976H3.58691C3.49487 9.91976 3.42025 9.84514 3.42025 9.75309V9.58643Z" fill="#2D88BE"/>
<path d="M4.08691 9.58643C4.08691 9.49438 4.16153 9.41976 4.25358 9.41976H4.42025C4.51229 9.41976 4.58691 9.49438 4.58691 9.58643V9.75309C4.58691 9.84514 4.51229 9.91976 4.42025 9.91976H4.25358C4.16153 9.91976 4.08691 9.84514 4.08691 9.75309V9.58643Z" fill="#2D88BE"/>
<path d="M2.75358 8.25309C2.75358 8.16104 2.8282 8.08643 2.92025 8.08643H3.08691C3.17896 8.08643 3.25358 8.16104 3.25358 8.25309V8.41976C3.25358 8.51181 3.17896 8.58643 3.08691 8.58643H2.92025C2.8282 8.58643 2.75358 8.51181 2.75358 8.41976V8.25309Z" fill="#2D88BE"/>
<path d="M11.2536 8.91976C11.2536 8.82771 11.179 8.75309 11.0869 8.75309H10.9202C10.8282 8.75309 10.7536 8.82771 10.7536 8.91976V9.08643C10.7536 9.17847 10.8282 9.25309 10.9202 9.25309H11.0869C11.179 9.25309 11.2536 9.17847 11.2536 9.08643V8.91976Z" fill="#2D88BE"/>
<path d="M11.2536 10.2531C11.2536 10.161 11.179 10.0864 11.0869 10.0864H10.9202C10.8282 10.0864 10.7536 10.161 10.7536 10.2531V10.4198C10.7536 10.5118 10.8282 10.5864 10.9202 10.5864H11.0869C11.179 10.5864 11.2536 10.5118 11.2536 10.4198V10.2531Z" fill="#2D88BE"/>
<path d="M11.2536 11.5864C11.2536 11.4944 11.179 11.4198 11.0869 11.4198H10.9202C10.8282 11.4198 10.7536 11.4944 10.7536 11.5864V11.7531C10.7536 11.8451 10.8282 11.9198 10.9202 11.9198H11.0869C11.179 11.9198 11.2536 11.8451 11.2536 11.7531V11.5864Z" fill="#2D88BE"/>
<path d="M11.2536 12.9198C11.2536 12.8277 11.179 12.7531 11.0869 12.7531H10.9202C10.8282 12.7531 10.7536 12.8277 10.7536 12.9198V13.0864C10.7536 13.1785 10.8282 13.2531 10.9202 13.2531H11.0869C11.179 13.2531 11.2536 13.1785 11.2536 13.0864V12.9198Z" fill="#2D88BE"/>
<path d="M12.5869 12.9198C12.5869 12.8277 12.5123 12.7531 12.4202 12.7531H12.2536C12.1615 12.7531 12.0869 12.8277 12.0869 12.9198V13.0864C12.0869 13.1785 12.1615 13.2531 12.2536 13.2531H12.4202C12.5123 13.2531 12.5869 13.1785 12.5869 13.0864V12.9198Z" fill="#2D88BE"/>
<path d="M13.9202 12.9198C13.9202 12.8277 13.8456 12.7531 13.7536 12.7531H13.5869C13.4949 12.7531 13.4202 12.8277 13.4202 12.9198V13.0864C13.4202 13.1785 13.4949 13.2531 13.5869 13.2531H13.7536C13.8456 13.2531 13.9202 13.1785 13.9202 13.0864V12.9198Z" fill="#2D88BE"/>
<path d="M13.9202 11.5864C13.9202 11.4944 13.8456 11.4198 13.7536 11.4198H13.5869C13.4949 11.4198 13.4202 11.4944 13.4202 11.5864V11.7531C13.4202 11.8451 13.4949 11.9198 13.5869 11.9198H13.7536C13.8456 11.9198 13.9202 11.8451 13.9202 11.7531V11.5864Z" fill="#2D88BE"/>
<path d="M13.9202 10.2531C13.9202 10.161 13.8456 10.0864 13.7536 10.0864H13.5869C13.4949 10.0864 13.4202 10.161 13.4202 10.2531V10.4198C13.4202 10.5118 13.4949 10.5864 13.5869 10.5864H13.7536C13.8456 10.5864 13.9202 10.5118 13.9202 10.4198V10.2531Z" fill="#2D88BE"/>
<path d="M13.9202 8.91976C13.9202 8.82771 13.8456 8.75309 13.7536 8.75309H13.5869C13.4949 8.75309 13.4202 8.82771 13.4202 8.91976V9.08643C13.4202 9.17847 13.4949 9.25309 13.5869 9.25309H13.7536C13.8456 9.25309 13.9202 9.17847 13.9202 9.08643V8.91976Z" fill="#2D88BE"/>
<path d="M13.9202 7.58643C13.9202 7.49438 13.8456 7.41976 13.7536 7.41976H13.5869C13.4949 7.41976 13.4202 7.49438 13.4202 7.58643V7.75309C13.4202 7.84514 13.4949 7.91976 13.5869 7.91976H13.7536C13.8456 7.91976 13.9202 7.84514 13.9202 7.75309V7.58643Z" fill="#2D88BE"/>
<path d="M11.2536 9.58643C11.2536 9.49438 11.179 9.41976 11.0869 9.41976H10.9202C10.8282 9.41976 10.7536 9.49438 10.7536 9.58643V9.75309C10.7536 9.84514 10.8282 9.91976 10.9202 9.91976H11.0869C11.179 9.91976 11.2536 9.84514 11.2536 9.75309V9.58643Z" fill="#2D88BE"/>
<path d="M11.2536 10.9198C11.2536 10.8277 11.179 10.7531 11.0869 10.7531H10.9202C10.8282 10.7531 10.7536 10.8277 10.7536 10.9198V11.0864C10.7536 11.1785 10.8282 11.2531 10.9202 11.2531H11.0869C11.179 11.2531 11.2536 11.1785 11.2536 11.0864V10.9198Z" fill="#2D88BE"/>
<path d="M11.2536 12.2531C11.2536 12.161 11.179 12.0864 11.0869 12.0864H10.9202C10.8282 12.0864 10.7536 12.161 10.7536 12.2531V12.4198C10.7536 12.5118 10.8282 12.5864 10.9202 12.5864H11.0869C11.179 12.5864 11.2536 12.5118 11.2536 12.4198V12.2531Z" fill="#2D88BE"/>
<path d="M11.2536 13.5864C11.2536 13.4944 11.179 13.4198 11.0869 13.4198H10.9202C10.8282 13.4198 10.7536 13.4944 10.7536 13.5864V13.7531C10.7536 13.8451 10.8282 13.9198 10.9202 13.9198H11.0869C11.179 13.9198 11.2536 13.8451 11.2536 13.7531V13.5864Z" fill="#2D88BE"/>
<path d="M12.5869 13.5864C12.5869 13.4944 12.5123 13.4198 12.4202 13.4198H12.2536C12.1615 13.4198 12.0869 13.4944 12.0869 13.5864V13.7531C12.0869 13.8451 12.1615 13.9198 12.2536 13.9198H12.4202C12.5123 13.9198 12.5869 13.8451 12.5869 13.7531V13.5864Z" fill="#2D88BE"/>
<path d="M13.9202 12.2531C13.9202 12.161 13.8456 12.0864 13.7536 12.0864H13.5869C13.4949 12.0864 13.4202 12.161 13.4202 12.2531V12.4198C13.4202 12.5118 13.4949 12.5864 13.5869 12.5864H13.7536C13.8456 12.5864 13.9202 12.5118 13.9202 12.4198V12.2531Z" fill="#2D88BE"/>
<path d="M13.9202 10.9198C13.9202 10.8277 13.8456 10.7531 13.7536 10.7531H13.5869C13.4949 10.7531 13.4202 10.8277 13.4202 10.9198V11.0864C13.4202 11.1785 13.4949 11.2531 13.5869 11.2531H13.7536C13.8456 11.2531 13.9202 11.1785 13.9202 11.0864V10.9198Z" fill="#2D88BE"/>
<path d="M13.9202 9.58643C13.9202 9.49438 13.8456 9.41976 13.7536 9.41976H13.5869C13.4949 9.41976 13.4202 9.49438 13.4202 9.58643V9.75309C13.4202 9.84514 13.4949 9.91976 13.5869 9.91976H13.7536C13.8456 9.91976 13.9202 9.84514 13.9202 9.75309V9.58643Z" fill="#2D88BE"/>
<path d="M13.9202 8.25309C13.9202 8.16104 13.8456 8.08643 13.7536 8.08643H13.5869C13.4949 8.08643 13.4202 8.16104 13.4202 8.25309V8.41976C13.4202 8.51181 13.4949 8.58643 13.5869 8.58643H13.7536C13.8456 8.58643 13.9202 8.51181 13.9202 8.41976V8.25309Z" fill="#2D88BE"/>
<path d="M10.5869 8.91976C10.5869 8.82771 10.5123 8.75309 10.4202 8.75309H10.2536C10.1615 8.75309 10.0869 8.82771 10.0869 8.91976V9.08643C10.0869 9.17847 10.1615 9.25309 10.2536 9.25309H10.4202C10.5123 9.25309 10.5869 9.17847 10.5869 9.08643V8.91976Z" fill="#2D88BE"/>
<path d="M10.5869 10.2531C10.5869 10.161 10.5123 10.0864 10.4202 10.0864H10.2536C10.1615 10.0864 10.0869 10.161 10.0869 10.2531V10.4198C10.0869 10.5118 10.1615 10.5864 10.2536 10.5864H10.4202C10.5123 10.5864 10.5869 10.5118 10.5869 10.4198V10.2531Z" fill="#2D88BE"/>
<path d="M10.5869 11.5864C10.5869 11.4944 10.5123 11.4198 10.4202 11.4198H10.2536C10.1615 11.4198 10.0869 11.4944 10.0869 11.5864V11.7531C10.0869 11.8451 10.1615 11.9198 10.2536 11.9198H10.4202C10.5123 11.9198 10.5869 11.8451 10.5869 11.7531V11.5864Z" fill="#2D88BE"/>
<path d="M10.5869 12.9198C10.5869 12.8277 10.5123 12.7531 10.4202 12.7531H10.2536C10.1615 12.7531 10.0869 12.8277 10.0869 12.9198V13.0864C10.0869 13.1785 10.1615 13.2531 10.2536 13.2531H10.4202C10.5123 13.2531 10.5869 13.1785 10.5869 13.0864V12.9198Z" fill="#2D88BE"/>
<path d="M11.9202 12.9198C11.9202 12.8277 11.8456 12.7531 11.7536 12.7531H11.5869C11.4949 12.7531 11.4202 12.8277 11.4202 12.9198V13.0864C11.4202 13.1785 11.4949 13.2531 11.5869 13.2531H11.7536C11.8456 13.2531 11.9202 13.1785 11.9202 13.0864V12.9198Z" fill="#2D88BE"/>
<path d="M13.2536 12.9198C13.2536 12.8277 13.179 12.7531 13.0869 12.7531H12.9202C12.8282 12.7531 12.7536 12.8277 12.7536 12.9198V13.0864C12.7536 13.1785 12.8282 13.2531 12.9202 13.2531H13.0869C13.179 13.2531 13.2536 13.1785 13.2536 13.0864V12.9198Z" fill="#2D88BE"/>
<path d="M13.2536 11.5864C13.2536 11.4944 13.179 11.4198 13.0869 11.4198H12.9202C12.8282 11.4198 12.7536 11.4944 12.7536 11.5864V11.7531C12.7536 11.8451 12.8282 11.9198 12.9202 11.9198H13.0869C13.179 11.9198 13.2536 11.8451 13.2536 11.7531V11.5864Z" fill="#2D88BE"/>
<path d="M13.2536 10.2531C13.2536 10.161 13.179 10.0864 13.0869 10.0864H12.9202C12.8282 10.0864 12.7536 10.161 12.7536 10.2531V10.4198C12.7536 10.5118 12.8282 10.5864 12.9202 10.5864H13.0869C13.179 10.5864 13.2536 10.5118 13.2536 10.4198V10.2531Z" fill="#2D88BE"/>
<path d="M13.2536 8.91976C13.2536 8.82771 13.179 8.75309 13.0869 8.75309H12.9202C12.8282 8.75309 12.7536 8.82771 12.7536 8.91976V9.08643C12.7536 9.17847 12.8282 9.25309 12.9202 9.25309H13.0869C13.179 9.25309 13.2536 9.17847 13.2536 9.08643V8.91976Z" fill="#2D88BE"/>
<path d="M12.5869 8.91976C12.5869 8.82771 12.5123 8.75309 12.4202 8.75309H12.2536C12.1615 8.75309 12.0869 8.82771 12.0869 8.91976V9.08643C12.0869 9.17847 12.1615 9.25309 12.2536 9.25309H12.4202C12.5123 9.25309 12.5869 9.17847 12.5869 9.08643V8.91976Z" fill="#2D88BE"/>
<path d="M11.9202 8.91976C11.9202 8.82771 11.8456 8.75309 11.7536 8.75309H11.5869C11.4949 8.75309 11.4202 8.82771 11.4202 8.91976V9.08643C11.4202 9.17847 11.4949 9.25309 11.5869 9.25309H11.7536C11.8456 9.25309 11.9202 9.17847 11.9202 9.08643V8.91976Z" fill="#2D88BE"/>
<path d="M13.2536 7.58643C13.2536 7.49438 13.179 7.41976 13.0869 7.41976H12.9202C12.8282 7.41976 12.7536 7.49438 12.7536 7.58643V7.75309C12.7536 7.84514 12.8282 7.91976 12.9202 7.91976H13.0869C13.179 7.91976 13.2536 7.84514 13.2536 7.75309V7.58643Z" fill="#2D88BE"/>
<path d="M10.5869 9.58643C10.5869 9.49438 10.5123 9.41976 10.4202 9.41976H10.2536C10.1615 9.41976 10.0869 9.49438 10.0869 9.58643V9.75309C10.0869 9.84514 10.1615 9.91976 10.2536 9.91976H10.4202C10.5123 9.91976 10.5869 9.84514 10.5869 9.75309V9.58643Z" fill="#2D88BE"/>
<path d="M10.5869 10.9198C10.5869 10.8277 10.5123 10.7531 10.4202 10.7531H10.2536C10.1615 10.7531 10.0869 10.8277 10.0869 10.9198V11.0864C10.0869 11.1785 10.1615 11.2531 10.2536 11.2531H10.4202C10.5123 11.2531 10.5869 11.1785 10.5869 11.0864V10.9198Z" fill="#2D88BE"/>
<path d="M10.5869 12.2531C10.5869 12.161 10.5123 12.0864 10.4202 12.0864H10.2536C10.1615 12.0864 10.0869 12.161 10.0869 12.2531V12.4198C10.0869 12.5118 10.1615 12.5864 10.2536 12.5864H10.4202C10.5123 12.5864 10.5869 12.5118 10.5869 12.4198V12.2531Z" fill="#2D88BE"/>
<path d="M10.5869 13.5864C10.5869 13.4944 10.5123 13.4198 10.4202 13.4198H10.2536C10.1615 13.4198 10.0869 13.4944 10.0869 13.5864V13.7531C10.0869 13.8451 10.1615 13.9198 10.2536 13.9198H10.4202C10.5123 13.9198 10.5869 13.8451 10.5869 13.7531V13.5864Z" fill="#2D88BE"/>
<path d="M11.9202 13.5864C11.9202 13.4944 11.8456 13.4198 11.7536 13.4198H11.5869C11.4949 13.4198 11.4202 13.4944 11.4202 13.5864V13.7531C11.4202 13.8451 11.4949 13.9198 11.5869 13.9198H11.7536C11.8456 13.9198 11.9202 13.8451 11.9202 13.7531V13.5864Z" fill="#2D88BE"/>
<path d="M13.2536 13.5864C13.2536 13.4944 13.179 13.4198 13.0869 13.4198H12.9202C12.8282 13.4198 12.7536 13.4944 12.7536 13.5864V13.7531C12.7536 13.8451 12.8282 13.9198 12.9202 13.9198H13.0869C13.179 13.9198 13.2536 13.8451 13.2536 13.7531V13.5864Z" fill="#2D88BE"/>
<path d="M13.2536 12.2531C13.2536 12.161 13.179 12.0864 13.0869 12.0864H12.9202C12.8282 12.0864 12.7536 12.161 12.7536 12.2531V12.4198C12.7536 12.5118 12.8282 12.5864 12.9202 12.5864H13.0869C13.179 12.5864 13.2536 12.5118 13.2536 12.4198V12.2531Z" fill="#2D88BE"/>
<path d="M13.2536 10.9198C13.2536 10.8277 13.179 10.7531 13.0869 10.7531H12.9202C12.8282 10.7531 12.7536 10.8277 12.7536 10.9198V11.0864C12.7536 11.1785 12.8282 11.2531 12.9202 11.2531H13.0869C13.179 11.2531 13.2536 11.1785 13.2536 11.0864V10.9198Z" fill="#2D88BE"/>
<path d="M13.2536 9.58643C13.2536 9.49438 13.179 9.41976 13.0869 9.41976H12.9202C12.8282 9.41976 12.7536 9.49438 12.7536 9.58643V9.75309C12.7536 9.84514 12.8282 9.91976 12.9202 9.91976H13.0869C13.179 9.91976 13.2536 9.84514 13.2536 9.75309V9.58643Z" fill="#2D88BE"/>
<path d="M12.5869 9.58643C12.5869 9.49438 12.5123 9.41976 12.4202 9.41976H12.2536C12.1615 9.41976 12.0869 9.49438 12.0869 9.58643V9.75309C12.0869 9.84514 12.1615 9.91976 12.2536 9.91976H12.4202C12.5123 9.91976 12.5869 9.84514 12.5869 9.75309V9.58643Z" fill="#2D88BE"/>
<path d="M11.9202 9.58643C11.9202 9.49438 11.8456 9.41976 11.7536 9.41976H11.5869C11.4949 9.41976 11.4202 9.49438 11.4202 9.58643V9.75309C11.4202 9.84514 11.4949 9.91976 11.5869 9.91976H11.7536C11.8456 9.91976 11.9202 9.84514 11.9202 9.75309V9.58643Z" fill="#2D88BE"/>
<path d="M13.2536 8.25309C13.2536 8.16104 13.179 8.08643 13.0869 8.08643H12.9202C12.8282 8.08643 12.7536 8.16104 12.7536 8.25309V8.41976C12.7536 8.51181 12.8282 8.58643 12.9202 8.58643H13.0869C13.179 8.58643 13.2536 8.51181 13.2536 8.41976V8.25309Z" fill="#2D88BE"/>
</svg>
