<svg xmlns="http://www.w3.org/2000/svg" width="24" height="24" fill="none" viewBox="0 0 24 24"><path fill="#ffffd5" d="M11.63 12.87a.25.25 0 0 1 .25-.25h.25a.25.25 0 0 1 .25.25v.25a.25.25 0 0 1-.25.25h-.25a.25.25 0 0 1-.25-.25zm3-5a.25.25 0 0 1 .25-.25h.25a.25.25 0 0 1 .25.25v.25a.25.25 0 0 1-.25.25h-.25a.25.25 0 0 1-.25-.25zm1 0a.25.25 0 0 1 .25-.25h.25a.25.25 0 0 1 .25.25v.25a.25.25 0 0 1-.25.25h-.25a.25.25 0 0 1-.25-.25zm-1-1a.25.25 0 0 1 .25-.25h.25a.25.25 0 0 1 .25.25v.25a.25.25 0 0 1-.25.25h-.25a.25.25 0 0 1-.25-.25zm0-1a.25.25 0 0 1 .25-.25h.25a.25.25 0 0 1 .25.25v.25a.25.25 0 0 1-.25.25h-.25a.25.25 0 0 1-.25-.25zm-4 0a.25.25 0 0 1 .25-.25h.25a.25.25 0 0 1 .25.25v.25a.25.25 0 0 1-.25.25h-.25a.25.25 0 0 1-.25-.25zm5 1a.25.25 0 0 1 .25-.25h.25a.25.25 0 0 1 .25.25v.25a.25.25 0 0 1-.25.25h-.25a.25.25 0 0 1-.25-.25zm-2 0a.25.25 0 0 1 .25-.25h.25a.25.25 0 0 1 .25.25v.25a.25.25 0 0 1-.25.25h-.25a.25.25 0 0 1-.25-.25zm0-1a.25.25 0 0 1 .25-.25h.25a.25.25 0 0 1 .25.25v.25a.25.25 0 0 1-.25.25h-.25a.25.25 0 0 1-.25-.25zm-4 0a.25.25 0 0 1 .25-.25h.25a.25.25 0 0 1 .25.25v.25a.25.25 0 0 1-.25.25h-.25a.25.25 0 0 1-.25-.25zm-1 1a.25.25 0 0 1 .25-.25h.25a.25.25 0 0 1 .25.25v.25a.25.25 0 0 1-.25.25h-.25a.25.25 0 0 1-.25-.25zm-1 1a.25.25 0 0 1 .25-.25h.25a.25.25 0 0 1 .25.25v.25a.25.25 0 0 1-.25.25h-.25a.25.25 0 0 1-.25-.25zm0 1a.25.25 0 0 1 .25-.25h.25a.25.25 0 0 1 .25.25v.25a.25.25 0 0 1-.25.25h-.25a.25.25 0 0 1-.25-.25zm0 1a.25.25 0 0 1 .25-.25h.25a.25.25 0 0 1 .25.25v.25a.25.25 0 0 1-.25.25h-.25a.25.25 0 0 1-.25-.25zm1 1a.25.25 0 0 1 .25-.25h.25a.25.25 0 0 1 .25.25v.25a.25.25 0 0 1-.25.25h-.25a.25.25 0 0 1-.25-.25zm1 1a.25.25 0 0 1 .25-.25h.25a.25.25 0 0 1 .25.25v.25a.25.25 0 0 1-.25.25h-.25a.25.25 0 0 1-.25-.25zm3-6a.25.25 0 0 1 .25-.25h.25a.25.25 0 0 1 .25.25v.25a.25.25 0 0 1-.25.25h-.25a.25.25 0 0 1-.25-.25zm-1 0a.25.25 0 0 1 .25-.25h.25a.25.25 0 0 1 .25.25v.25a.25.25 0 0 1-.25.25h-.25a.25.25 0 0 1-.25-.25zm0-1a.25.25 0 0 1 .25-.25h.25a.25.25 0 0 1 .25.25v.25a.25.25 0 0 1-.25.25h-.25a.25.25 0 0 1-.25-.25zm.5-1a.25.25 0 0 1 .25-.25h.25a.25.25 0 0 1 .25.25v.25a.25.25 0 0 1-.25.25h-.25a.25.25 0 0 1-.25-.25zm-.5 15a.25.25 0 0 1 .25-.25h.25a.25.25 0 0 1 .25.25v.25a.25.25 0 0 1-.25.25h-.25a.25.25 0 0 1-.25-.25zm-.5 1a.25.25 0 0 1 .25-.25h.25a.25.25 0 0 1 .25.25v.25a.25.25 0 0 1-.25.25h-.25a.25.25 0 0 1-.25-.25zm1.5-15a.25.25 0 0 1 .25-.25h.25a.25.25 0 0 1 .25.25v.25a.25.25 0 0 1-.25.25h-.25a.25.25 0 0 1-.25-.25zm-2 2a.25.25 0 0 1 .25-.25h.25a.25.25 0 0 1 .25.25v.25a.25.25 0 0 1-.25.25h-.25a.25.25 0 0 1-.25-.25zm-.25 0a.25.25 0 0 0-.25-.25h-.25a.25.25 0 0 0-.25.25v.25c0 .138.112.25.25.25h.25a.25.25 0 0 0 .25-.25zm-1 1a.25.25 0 0 0-.25-.25h-.25a.25.25 0 0 0-.25.25v.25c0 .138.112.25.25.25h.25a.25.25 0 0 0 .25-.25zm0 1a.25.25 0 0 0-.25-.25h-.25a.25.25 0 0 0-.25.25v.25c0 .138.112.25.25.25h.25a.25.25 0 0 0 .25-.25zm0 1a.25.25 0 0 0-.25-.25h-.25a.25.25 0 0 0-.25.25v.25c0 .138.112.25.25.25h.25a.25.25 0 0 0 .25-.25zm1 1a.25.25 0 0 0-.25-.25h-.25a.25.25 0 0 0-.25.25v.25c0 .138.112.25.25.25h.25a.25.25 0 0 0 .25-.25zm1 0a.25.25 0 0 0-.25-.25h-.25a.25.25 0 0 0-.25.25v.25c0 .138.112.25.25.25h.25a.25.25 0 0 0 .25-.25zm0 1a.25.25 0 0 0-.25-.25h-.25a.25.25 0 0 0-.25.25v.25c0 .138.112.25.25.25h.25a.25.25 0 0 0 .25-.25zm2 0a.25.25 0 0 0-.25-.25h-.25a.25.25 0 0 0-.25.25v.25c0 .138.112.25.25.25h.25a.25.25 0 0 0 .25-.25zm1 1a.25.25 0 0 0-.25-.25h-.25a.25.25 0 0 0-.25.25v.25c0 .138.112.25.25.25h.25a.25.25 0 0 0 .25-.25zm-1 0a.25.25 0 0 0-.25-.25h-.25a.25.25 0 0 0-.25.25v.25c0 .138.112.25.25.25h.25a.25.25 0 0 0 .25-.25zm2 1a.25.25 0 0 0-.25-.25h-.25a.25.25 0 0 0-.25.25v.25c0 .138.112.25.25.25h.25a.25.25 0 0 0 .25-.25zm0 1a.25.25 0 0 0-.25-.25h-.25a.25.25 0 0 0-.25.25v.25c0 .138.112.25.25.25h.25a.25.25 0 0 0 .25-.25zm0 1a.25.25 0 0 0-.25-.25h-.25a.25.25 0 0 0-.25.25v.25c0 .138.112.25.25.25h.25a.25.25 0 0 0 .25-.25zm-1 1a.25.25 0 0 0-.25-.25h-.25a.25.25 0 0 0-.25.25v.25c0 .138.112.25.25.25h.25a.25.25 0 0 0 .25-.25zm1 0a.25.25 0 0 0-.25-.25h-.25a.25.25 0 0 0-.25.25v.25c0 .138.112.25.25.25h.25a.25.25 0 0 0 .25-.25zm1-1a.25.25 0 0 0-.25-.25h-.25a.25.25 0 0 0-.25.25v.25c0 .138.112.25.25.25h.25a.25.25 0 0 0 .25-.25zm0-1a.25.25 0 0 0-.25-.25h-.25a.25.25 0 0 0-.25.25v.25c0 .138.112.25.25.25h.25a.25.25 0 0 0 .25-.25zm0-1a.25.25 0 0 0-.25-.25h-.25a.25.25 0 0 0-.25.25v.25c0 .138.112.25.25.25h.25a.25.25 0 0 0 .25-.25zm-1-1a.25.25 0 0 0-.25-.25h-.25a.25.25 0 0 0-.25.25v.25c0 .138.112.25.25.25h.25a.25.25 0 0 0 .25-.25zm-1-1a.25.25 0 0 0-.25-.25h-.25a.25.25 0 0 0-.25.25v.25c0 .138.112.25.25.25h.25a.25.25 0 0 0 .25-.25zm-1 5a.25.25 0 0 0-.25-.25h-.25a.25.25 0 0 0-.25.25v.25c0 .138.112.25.25.25h.25a.25.25 0 0 0 .25-.25zm-2 1a.25.25 0 0 0-.25-.25h-.25a.25.25 0 0 0-.25.25v.25c0 .138.112.25.25.25h.25a.25.25 0 0 0 .25-.25zm-1-1a.25.25 0 0 0-.25-.25h-.25a.25.25 0 0 0-.25.25v.25c0 .138.112.25.25.25h.25a.25.25 0 0 0 .25-.25zm0 1a.25.25 0 0 0-.25-.25h-.25a.25.25 0 0 0-.25.25v.25c0 .138.112.25.25.25h.25a.25.25 0 0 0 .25-.25zm4 0a.25.25 0 0 0-.25-.25h-.25a.25.25 0 0 0-.25.25v.25c0 .138.112.25.25.25h.25a.25.25 0 0 0 .25-.25zm-5-2a.25.25 0 0 0-.25-.25h-.25a.25.25 0 0 0-.25.25v.25c0 .138.112.25.25.25h.25a.25.25 0 0 0 .25-.25zm0 1a.25.25 0 0 0-.25-.25h-.25a.25.25 0 0 0-.25.25v.25c0 .138.112.25.25.25h.25a.25.25 0 0 0 .25-.25zm0 1a.25.25 0 0 0-.25-.25h-.25a.25.25 0 0 0-.25.25v.25c0 .138.112.25.25.25h.25a.25.25 0 0 0 .25-.25zm4 0a.25.25 0 0 0-.25-.25h-.25a.25.25 0 0 0-.25.25v.25c0 .138.112.25.25.25h.25a.25.25 0 0 0 .25-.25zm-5-1a.25.25 0 0 0-.25-.25h-.25a.25.25 0 0 0-.25.25v.25c0 .138.112.25.25.25h.25a.25.25 0 0 0 .25-.25zm0-1a.25.25 0 0 0-.25-.25h-.25a.25.25 0 0 0-.25.25v.25c0 .138.112.25.25.25h.25a.25.25 0 0 0 .25-.25zm1-1a.25.25 0 0 0-.25-.25h-.25a.25.25 0 0 0-.25.25v.25c0 .138.112.25.25.25h.25a.25.25 0 0 0 .25-.25zm2.25-4a.25.25 0 0 1 .25-.25h.25a.25.25 0 0 1 .25.25v.25a.25.25 0 0 1-.25.25h-.25a.25.25 0 0 1-.25-.25zm0 1a.25.25 0 0 1 .25-.25h.25a.25.25 0 0 1 .25.25v.25a.25.25 0 0 1-.25.25h-.25a.25.25 0 0 1-.25-.25zm0 6a.25.25 0 0 1 .25-.25h.25a.25.25 0 0 1 .25.25v.25a.25.25 0 0 1-.25.25h-.25a.25.25 0 0 1-.25-.25zm-1 1a.25.25 0 0 1 .25-.25h.25a.25.25 0 0 1 .25.25v.25a.25.25 0 0 1-.25.25h-.25a.25.25 0 0 1-.25-.25zm4-10a.25.25 0 0 1 .25-.25h.25a.25.25 0 0 1 .25.25v.25a.25.25 0 0 1-.25.25h-.25a.25.25 0 0 1-.25-.25z"/></svg>