<svg xmlns="http://www.w3.org/2000/svg" width="24" height="24" fill="none" viewBox="0 0 24 24"><path fill="#2d88be" d="M3.13 7.88a.25.25 0 0 1 .25-.25h.25a.25.25 0 0 1 .25.25v.25a.25.25 0 0 1-.25.25h-.25a.25.25 0 0 1-.25-.25zm0 1a.25.25 0 0 1 .25-.25h.25a.25.25 0 0 1 .25.25v.25a.25.25 0 0 1-.25.25h-.25a.25.25 0 0 1-.25-.25zm0 1a.25.25 0 0 1 .25-.25h.25a.25.25 0 0 1 .25.25v.25a.25.25 0 0 1-.25.25h-.25a.25.25 0 0 1-.25-.25zm0 1a.25.25 0 0 1 .25-.25h.25a.25.25 0 0 1 .25.25v.25a.25.25 0 0 1-.25.25h-.25a.25.25 0 0 1-.25-.25zm0 1a.25.25 0 0 1 .25-.25h.25a.25.25 0 0 1 .25.25v.25a.25.25 0 0 1-.25.25h-.25a.25.25 0 0 1-.25-.25zm1-5a.25.25 0 0 1 .25-.25h.25a.25.25 0 0 1 .25.25v.25a.25.25 0 0 1-.25.25h-.25a.25.25 0 0 1-.25-.25zm0 1a.25.25 0 0 1 .25-.25h.25a.25.25 0 0 1 .25.25v.25a.25.25 0 0 1-.25.25h-.25a.25.25 0 0 1-.25-.25zm0 1a.25.25 0 0 1 .25-.25h.25a.25.25 0 0 1 .25.25v.25a.25.25 0 0 1-.25.25h-.25a.25.25 0 0 1-.25-.25zm0 1a.25.25 0 0 1 .25-.25h.25a.25.25 0 0 1 .25.25v.25a.25.25 0 0 1-.25.25h-.25a.25.25 0 0 1-.25-.25zm0 1a.25.25 0 0 1 .25-.25h.25a.25.25 0 0 1 .25.25v.25a.25.25 0 0 1-.25.25h-.25a.25.25 0 0 1-.25-.25zm0 1a.25.25 0 0 1 .25-.25h.25a.25.25 0 0 1 .25.25v.25a.25.25 0 0 1-.25.25h-.25a.25.25 0 0 1-.25-.25zm0 1a.25.25 0 0 1 .25-.25h.25a.25.25 0 0 1 .25.25v.25a.25.25 0 0 1-.25.25h-.25a.25.25 0 0 1-.25-.25zm1-7a.25.25 0 0 1 .25-.25h.25a.25.25 0 0 1 .25.25v.25a.25.25 0 0 1-.25.25h-.25a.25.25 0 0 1-.25-.25zm0 1a.25.25 0 0 1 .25-.25h.25a.25.25 0 0 1 .25.25v.25a.25.25 0 0 1-.25.25h-.25a.25.25 0 0 1-.25-.25zm0 1a.25.25 0 0 1 .25-.25h.25a.25.25 0 0 1 .25.25v.25a.25.25 0 0 1-.25.25h-.25a.25.25 0 0 1-.25-.25zm0 4a.25.25 0 0 1 .25-.25h.25a.25.25 0 0 1 .25.25v.25a.25.25 0 0 1-.25.25h-.25a.25.25 0 0 1-.25-.25zm0 1a.25.25 0 0 1 .25-.25h.25a.25.25 0 0 1 .25.25v.25a.25.25 0 0 1-.25.25h-.25a.25.25 0 0 1-.25-.25zm0 1a.25.25 0 0 1 .25-.25h.25a.25.25 0 0 1 .25.25v.25a.25.25 0 0 1-.25.25h-.25a.25.25 0 0 1-.25-.25zm1-9a.25.25 0 0 1 .25-.25h.25a.25.25 0 0 1 .25.25v.25a.25.25 0 0 1-.25.25h-.25a.25.25 0 0 1-.25-.25zm0 1a.25.25 0 0 1 .25-.25h.25a.25.25 0 0 1 .25.25v.25a.25.25 0 0 1-.25.25h-.25a.25.25 0 0 1-.25-.25zm0 1a.25.25 0 0 1 .25-.25h.25a.25.25 0 0 1 .25.25v.25a.25.25 0 0 1-.25.25h-.25a.25.25 0 0 1-.25-.25zm0 6a.25.25 0 0 1 .25-.25h.25a.25.25 0 0 1 .25.25v.25a.25.25 0 0 1-.25.25h-.25a.25.25 0 0 1-.25-.25zm0 1a.25.25 0 0 1 .25-.25h.25a.25.25 0 0 1 .25.25v.25a.25.25 0 0 1-.25.25h-.25a.25.25 0 0 1-.25-.25zm0 1a.25.25 0 0 1 .25-.25h.25a.25.25 0 0 1 .25.25v.25a.25.25 0 0 1-.25.25h-.25a.25.25 0 0 1-.25-.25zm1-11a.25.25 0 0 1 .25-.25h.25a.25.25 0 0 1 .25.25v.25a.25.25 0 0 1-.25.25h-.25a.25.25 0 0 1-.25-.25zm0 1a.25.25 0 0 1 .25-.25h.25a.25.25 0 0 1 .25.25v.25a.25.25 0 0 1-.25.25h-.25a.25.25 0 0 1-.25-.25zm0 1a.25.25 0 0 1 .25-.25h.25a.25.25 0 0 1 .25.25v.25a.25.25 0 0 1-.25.25h-.25a.25.25 0 0 1-.25-.25zm0 8a.25.25 0 0 1 .25-.25h.25a.25.25 0 0 1 .25.25v.25a.25.25 0 0 1-.25.25h-.25a.25.25 0 0 1-.25-.25zm0 1a.25.25 0 0 1 .25-.25h.25a.25.25 0 0 1 .25.25v.25a.25.25 0 0 1-.25.25h-.25a.25.25 0 0 1-.25-.25zm0 1a.25.25 0 0 1 .25-.25h.25a.25.25 0 0 1 .25.25v.25a.25.25 0 0 1-.25.25h-.25a.25.25 0 0 1-.25-.25zm1-12a.25.25 0 0 1 .25-.25h.25a.25.25 0 0 1 .25.25v.25a.25.25 0 0 1-.25.25h-.25a.25.25 0 0 1-.25-.25zm0 1a.25.25 0 0 1 .25-.25h.25a.25.25 0 0 1 .25.25v.25a.25.25 0 0 1-.25.25h-.25a.25.25 0 0 1-.25-.25zm0 10a.25.25 0 0 1 .25-.25h.25a.25.25 0 0 1 .25.25v.25a.25.25 0 0 1-.25.25h-.25a.25.25 0 0 1-.25-.25zm0 1a.25.25 0 0 1 .25-.25h.25a.25.25 0 0 1 .25.25v.25a.25.25 0 0 1-.25.25h-.25a.25.25 0 0 1-.25-.25zm1-12a.25.25 0 0 1 .25-.25h.25a.25.25 0 0 1 .25.25v.25a.25.25 0 0 1-.25.25h-.25a.25.25 0 0 1-.25-.25zm0 1a.25.25 0 0 1 .25-.25h.25a.25.25 0 0 1 .25.25v.25a.25.25 0 0 1-.25.25h-.25a.25.25 0 0 1-.25-.25zm0 10a.25.25 0 0 1 .25-.25h.25a.25.25 0 0 1 .25.25v.25a.25.25 0 0 1-.25.25h-.25a.25.25 0 0 1-.25-.25zm0 1a.25.25 0 0 1 .25-.25h.25a.25.25 0 0 1 .25.25v.25a.25.25 0 0 1-.25.25h-.25a.25.25 0 0 1-.25-.25zm1-12a.25.25 0 0 1 .25-.25h.25a.25.25 0 0 1 .25.25v.25a.25.25 0 0 1-.25.25h-.25a.25.25 0 0 1-.25-.25zm0 1a.25.25 0 0 1 .25-.25h.25a.25.25 0 0 1 .25.25v.25a.25.25 0 0 1-.25.25h-.25a.25.25 0 0 1-.25-.25zm0 10a.25.25 0 0 1 .25-.25h.25a.25.25 0 0 1 .25.25v.25a.25.25 0 0 1-.25.25h-.25a.25.25 0 0 1-.25-.25zm0 1a.25.25 0 0 1 .25-.25h.25a.25.25 0 0 1 .25.25v.25a.25.25 0 0 1-.25.25h-.25a.25.25 0 0 1-.25-.25zm1-12a.25.25 0 0 1 .25-.25h.25a.25.25 0 0 1 .25.25v.25a.25.25 0 0 1-.25.25h-.25a.25.25 0 0 1-.25-.25zm0 1a.25.25 0 0 1 .25-.25h.25a.25.25 0 0 1 .25.25v.25a.25.25 0 0 1-.25.25h-.25a.25.25 0 0 1-.25-.25zm0 1a.25.25 0 0 1 .25-.25h.25a.25.25 0 0 1 .25.25v.25a.25.25 0 0 1-.25.25h-.25a.25.25 0 0 1-.25-.25zm0 8a.25.25 0 0 1 .25-.25h.25a.25.25 0 0 1 .25.25v.25a.25.25 0 0 1-.25.25h-.25a.25.25 0 0 1-.25-.25zm0 1a.25.25 0 0 1 .25-.25h.25a.25.25 0 0 1 .25.25v.25a.25.25 0 0 1-.25.25h-.25a.25.25 0 0 1-.25-.25zm0 1a.25.25 0 0 1 .25-.25h.25a.25.25 0 0 1 .25.25v.25a.25.25 0 0 1-.25.25h-.25a.25.25 0 0 1-.25-.25zm1-11a.25.25 0 0 1 .25-.25h.25a.25.25 0 0 1 .25.25v.25a.25.25 0 0 1-.25.25h-.25a.25.25 0 0 1-.25-.25zm0 1a.25.25 0 0 1 .25-.25h.25a.25.25 0 0 1 .25.25v.25a.25.25 0 0 1-.25.25h-.25a.25.25 0 0 1-.25-.25zm0 1a.25.25 0 0 1 .25-.25h.25a.25.25 0 0 1 .25.25v.25a.25.25 0 0 1-.25.25h-.25a.25.25 0 0 1-.25-.25zm0 6a.25.25 0 0 1 .25-.25h.25a.25.25 0 0 1 .25.25v.25a.25.25 0 0 1-.25.25h-.25a.25.25 0 0 1-.25-.25zm0 1a.25.25 0 0 1 .25-.25h.25a.25.25 0 0 1 .25.25v.25a.25.25 0 0 1-.25.25h-.25a.25.25 0 0 1-.25-.25zm0 1a.25.25 0 0 1 .25-.25h.25a.25.25 0 0 1 .25.25v.25a.25.25 0 0 1-.25.25h-.25a.25.25 0 0 1-.25-.25zm1-9a.25.25 0 0 1 .25-.25h.25a.25.25 0 0 1 .25.25v.25a.25.25 0 0 1-.25.25h-.25a.25.25 0 0 1-.25-.25zm0 1a.25.25 0 0 1 .25-.25h.25a.25.25 0 0 1 .25.25v.25a.25.25 0 0 1-.25.25h-.25a.25.25 0 0 1-.25-.25zm0 1a.25.25 0 0 1 .25-.25h.25a.25.25 0 0 1 .25.25v.25a.25.25 0 0 1-.25.25h-.25a.25.25 0 0 1-.25-.25zm0 4a.25.25 0 0 1 .25-.25h.25a.25.25 0 0 1 .25.25v.25a.25.25 0 0 1-.25.25h-.25a.25.25 0 0 1-.25-.25zm0 1a.25.25 0 0 1 .25-.25h.25a.25.25 0 0 1 .25.25v.25a.25.25 0 0 1-.25.25h-.25a.25.25 0 0 1-.25-.25zm1 1a.25.25 0 0 1 .25-.25h.25a.25.25 0 0 1 .25.25v.25a.25.25 0 0 1-.25.25h-.25a.25.25 0 0 1-.25-.25zm1 1a.25.25 0 0 1 .25-.25h.25a.25.25 0 0 1 .25.25v.25a.25.25 0 0 1-.25.25h-.25a.25.25 0 0 1-.25-.25zm1 1a.25.25 0 0 1 .25-.25h.25a.25.25 0 0 1 .25.25v.25a.25.25 0 0 1-.25.25h-.25a.25.25 0 0 1-.25-.25zm1 1a.25.25 0 0 1 .25-.25h.25a.25.25 0 0 1 .25.25v.25a.25.25 0 0 1-.25.25h-.25a.25.25 0 0 1-.25-.25zm1 1a.25.25 0 0 1 .25-.25h.25a.25.25 0 0 1 .25.25v.25a.25.25 0 0 1-.25.25h-.25a.25.25 0 0 1-.25-.25zm1 1a.25.25 0 0 1 .25-.25h.25a.25.25 0 0 1 .25.25v.25a.25.25 0 0 1-.25.25h-.25a.25.25 0 0 1-.25-.25zm1 1a.25.25 0 0 1 .25-.25h.25a.25.25 0 0 1 .25.25v.25a.25.25 0 0 1-.25.25h-.25a.25.25 0 0 1-.25-.25zm-7-6a.25.25 0 0 1 .25-.25h.25a.25.25 0 0 1 .25.25v.25a.25.25 0 0 1-.25.25h-.25a.25.25 0 0 1-.25-.25zm1 1a.25.25 0 0 1 .25-.25h.25a.25.25 0 0 1 .25.25v.25a.25.25 0 0 1-.25.25h-.25a.25.25 0 0 1-.25-.25zm1 1a.25.25 0 0 1 .25-.25h.25a.25.25 0 0 1 .25.25v.25a.25.25 0 0 1-.25.25h-.25a.25.25 0 0 1-.25-.25zm1 1a.25.25 0 0 1 .25-.25h.25a.25.25 0 0 1 .25.25v.25a.25.25 0 0 1-.25.25h-.25a.25.25 0 0 1-.25-.25zm1 1a.25.25 0 0 1 .25-.25h.25a.25.25 0 0 1 .25.25v.25a.25.25 0 0 1-.25.25h-.25a.25.25 0 0 1-.25-.25zm1 1a.25.25 0 0 1 .25-.25h.25a.25.25 0 0 1 .25.25v.25a.25.25 0 0 1-.25.25h-.25a.25.25 0 0 1-.25-.25zm1 1a.25.25 0 0 1 .25-.25h.25a.25.25 0 0 1 .25.25v.25a.25.25 0 0 1-.25.25h-.25a.25.25 0 0 1-.25-.25zm-5-13a.25.25 0 0 1 .25-.25h.25a.25.25 0 0 1 .25.25v.25a.25.25 0 0 1-.25.25h-.25a.25.25 0 0 1-.25-.25zm0 1a.25.25 0 0 1 .25-.25h.25a.25.25 0 0 1 .25.25v.25a.25.25 0 0 1-.25.25h-.25a.25.25 0 0 1-.25-.25zm0 1a.25.25 0 0 1 .25-.25h.25a.25.25 0 0 1 .25.25v.25a.25.25 0 0 1-.25.25h-.25a.25.25 0 0 1-.25-.25zm0 1a.25.25 0 0 1 .25-.25h.25a.25.25 0 0 1 .25.25v.25a.25.25 0 0 1-.25.25h-.25a.25.25 0 0 1-.25-.25zm0 1a.25.25 0 0 1 .25-.25h.25a.25.25 0 0 1 .25.25v.25a.25.25 0 0 1-.25.25h-.25a.25.25 0 0 1-.25-.25zm0 1a.25.25 0 0 1 .25-.25h.25a.25.25 0 0 1 .25.25v.25a.25.25 0 0 1-.25.25h-.25a.25.25 0 0 1-.25-.25zm0 1a.25.25 0 0 1 .25-.25h.25a.25.25 0 0 1 .25.25v.25a.25.25 0 0 1-.25.25h-.25a.25.25 0 0 1-.25-.25zm1 1a.25.25 0 0 1 .25-.25h.25a.25.25 0 0 1 .25.25v.25a.25.25 0 0 1-.25.25h-.25a.25.25 0 0 1-.25-.25zm1 1a.25.25 0 0 1 .25-.25h.25a.25.25 0 0 1 .25.25v.25a.25.25 0 0 1-.25.25h-.25a.25.25 0 0 1-.25-.25zm1 1a.25.25 0 0 1 .25-.25h.25a.25.25 0 0 1 .25.25v.25a.25.25 0 0 1-.25.25h-.25a.25.25 0 0 1-.25-.25zm1 1a.25.25 0 0 1 .25-.25h.25a.25.25 0 0 1 .25.25v.25a.25.25 0 0 1-.25.25h-.25a.25.25 0 0 1-.25-.25zm1 1a.25.25 0 0 1 .25-.25h.25a.25.25 0 0 1 .25.25v.25a.25.25 0 0 1-.25.25h-.25a.25.25 0 0 1-.25-.25zm1 1a.25.25 0 0 1 .25-.25h.25a.25.25 0 0 1 .25.25v.25a.25.25 0 0 1-.25.25h-.25a.25.25 0 0 1-.25-.25zm-5-11a.25.25 0 0 1 .25-.25h.25a.25.25 0 0 1 .25.25v.25a.25.25 0 0 1-.25.25h-.25a.25.25 0 0 1-.25-.25zm0 1a.25.25 0 0 1 .25-.25h.25a.25.25 0 0 1 .25.25v.25a.25.25 0 0 1-.25.25h-.25a.25.25 0 0 1-.25-.25zm0 1a.25.25 0 0 1 .25-.25h.25a.25.25 0 0 1 .25.25v.25a.25.25 0 0 1-.25.25h-.25a.25.25 0 0 1-.25-.25zm0 1a.25.25 0 0 1 .25-.25h.25a.25.25 0 0 1 .25.25v.25a.25.25 0 0 1-.25.25h-.25a.25.25 0 0 1-.25-.25zm0 1a.25.25 0 0 1 .25-.25h.25a.25.25 0 0 1 .25.25v.25a.25.25 0 0 1-.25.25h-.25a.25.25 0 0 1-.25-.25z"/></svg>