<svg width="224" height="219" viewBox="0 0 224 219" fill="none" xmlns="http://www.w3.org/2000/svg">
<path d="M40.3153 202.213L223.448 109.269L220.925 108.15L40.2506 181.018" fill="#2D88BE"/>
<path d="M40.3153 202.147L40.2506 181.018L31.9028 190.167L40.3153 202.147Z" fill="#1F5E82"/>
<path d="M0.0649594 9.67634L0.000244141 34.4262L8.54215 24.7501V0.000183105L0.0649594 9.67634Z" fill="#206085"/>
<path d="M8.54224 0V24.7499L212.642 107.096L216.395 105.582L8.54224 0Z" fill="#2D88BE"/>
<path d="M145.795 80.1734L0.0650635 34.3598L8.60696 24.6837L145.795 80.1734Z" fill="#6DBCEA"/>
<path d="M8.34793 32.4527L32.6147 42.2605L32.55 206.36L8.21851 218.735" fill="#2D88BE"/>
<path d="M0.0649594 42.1287L8.34801 32.4525L8.15388 218.735L0.000244141 206.557L0.0649594 42.1287Z" fill="#1F5E82"/>
<path d="M41.4152 124.541C41.5446 124.344 48.9864 123.488 49.0511 123.488C49.1158 123.488 55.5222 123.225 55.5869 123.225C55.5869 123.225 63.3523 122.106 63.417 122.04C63.5464 122.04 71.7001 121.645 71.7648 121.645C71.8942 121.645 89.4957 118.946 89.5604 118.946C89.5604 118.946 104.315 117.695 104.379 118.354" fill="#82352D"/>
<path d="M41.4152 124.541C41.6093 124.146 49.0511 123.159 49.1805 123.159C49.3747 123.159 55.5869 123.225 55.7164 123.225C55.8458 123.225 63.417 121.711 63.6112 121.711C63.8053 121.711 71.8942 121.711 72.0883 121.711C72.4119 121.711 89.6251 118.024 89.7545 118.024C89.7545 118.024 104.315 117.037 104.379 118.354" fill="#82352D"/>
<path d="M41.4152 124.475C41.7387 123.882 49.1158 122.763 49.31 122.829C49.5688 122.895 55.7164 123.29 55.8458 123.29C56.0399 123.29 63.4817 121.381 63.7406 121.381C64.0641 121.381 72.0236 121.776 72.2825 121.776C72.7355 121.776 89.6898 117.102 89.8839 117.102C89.9487 117.102 104.185 116.313 104.315 118.353" fill="#82352D"/>
<path d="M41.4152 124.475C41.8034 123.751 49.1805 122.435 49.4394 122.5C49.8276 122.632 55.7811 123.29 55.9752 123.29C56.2341 123.29 63.5464 120.987 63.9347 120.987C64.323 120.987 72.2178 121.776 72.606 121.776C73.1884 121.776 89.8192 116.116 90.0781 116.116C90.2075 116.116 104.185 115.589 104.315 118.288" fill="#82352D"/>
<path d="M41.4152 124.475C41.9329 123.553 49.2452 122.105 49.5688 122.171C50.0218 122.303 55.8458 123.29 56.1046 123.356C56.4282 123.356 63.6112 120.723 64.1288 120.657C64.6465 120.657 72.4119 121.842 72.9296 121.842C73.7061 121.842 90.0134 115.194 90.3369 115.194C90.4664 115.194 104.185 114.864 104.379 118.287" fill="#82352D"/>
<path d="M41.4152 124.475C42.0623 123.356 49.3099 121.777 49.6982 121.908C50.2806 122.04 55.9752 123.422 56.2988 123.422C56.687 123.422 63.7406 120.394 64.323 120.328C64.9701 120.328 72.606 121.974 73.1884 121.908C74.0944 121.908 90.0781 114.273 90.4664 114.338C90.6605 114.338 104.12 114.273 104.315 118.354" fill="#82352D"/>
<path d="M41.4152 124.475C42.127 123.158 49.3747 121.447 49.8276 121.579C50.4747 121.776 56.0399 123.422 56.4282 123.488C56.8812 123.488 63.8053 120.065 64.5171 119.999C65.2289 119.933 72.8649 122.039 73.512 121.974C74.5474 121.974 90.2722 113.417 90.7252 113.417C90.9193 113.417 104.12 113.548 104.379 118.353" fill="#82352D"/>
<path d="M41.4152 124.475C42.2564 122.961 49.4394 121.118 49.9571 121.25C50.7336 121.447 56.1046 123.488 56.5576 123.488C57.0106 123.488 63.87 119.67 64.6465 119.604C65.4878 119.538 72.9943 122.04 73.7061 121.974C74.8709 121.974 90.2722 112.429 90.7899 112.429C91.0488 112.429 103.926 112.824 104.25 118.222" fill="#82352D"/>
<path d="M41.4152 124.475C42.3211 122.764 49.5041 120.789 50.1512 120.986C50.9924 121.25 56.2988 123.553 56.7518 123.619C57.2694 123.619 63.9994 119.407 64.9054 119.341C65.8113 119.275 73.2531 122.171 74.0944 122.105C75.4533 122.039 90.5311 111.573 91.1135 111.573C91.3723 111.573 104.056 112.166 104.379 118.288" fill="#82352D"/>
<path d="M41.4152 124.475C42.4505 122.566 49.5688 120.46 50.2806 120.657C51.2513 120.92 56.3635 123.619 56.8812 123.619C57.4636 123.619 64.0641 119.077 65.0995 118.946C66.1349 118.814 73.4473 122.171 74.4179 122.171C75.9063 122.105 90.6605 110.652 91.3723 110.652C91.6959 110.652 104.056 111.508 104.444 118.287" fill="#82352D"/>
<path d="M41.4152 124.475C42.5153 122.435 49.5688 120.131 50.41 120.328C51.4454 120.591 56.4282 123.619 57.0106 123.685C57.6577 123.685 64.1288 118.748 65.2289 118.617C66.329 118.485 73.5767 122.237 74.6121 122.237C76.2299 122.171 90.7252 109.73 91.437 109.796C91.7606 109.796 103.926 110.849 104.315 118.353" fill="#82352D"/>
<path d="M41.4152 124.475C42.6447 122.237 49.6335 119.801 50.5395 120.065C51.7043 120.394 56.4929 123.751 57.14 123.751C57.8518 123.751 64.1936 118.419 65.4231 118.287C66.6526 118.156 73.7708 122.368 74.9356 122.303C76.7476 122.237 90.8546 108.875 91.6959 108.875C92.0841 108.875 103.926 110.191 104.379 118.353" fill="#82352D"/>
<path d="M41.4152 124.475C42.7741 122.039 49.6982 119.472 50.6689 119.736C51.8984 120.065 56.6223 123.751 57.3342 123.817C58.1107 123.817 64.323 118.09 65.6172 117.958C66.9761 117.827 74.0297 122.434 75.2592 122.369C77.2005 122.237 91.0488 107.953 91.89 107.953C92.2783 107.953 103.926 109.467 104.379 118.353" fill="#82352D"/>
<path d="M41.4152 124.475C42.8388 121.842 49.7629 119.143 50.7983 119.406C52.1572 119.801 56.687 123.751 57.4636 123.817C58.3048 123.817 64.3877 117.761 65.8113 117.629C67.235 117.497 74.2238 122.5 75.518 122.434C77.5888 122.303 91.1135 107.031 92.0841 107.031C92.4724 107.031 103.862 108.809 104.379 118.287" fill="#82352D"/>
<path d="M41.4152 124.475C42.9682 121.644 49.8276 118.814 50.9277 119.143C52.3514 119.538 56.7517 123.882 57.593 123.882C58.499 123.882 64.4524 117.432 66.0055 117.3C67.5585 117.168 74.4179 122.566 75.8416 122.5C78.1065 122.368 91.3076 106.11 92.2783 106.11C92.7313 106.11 103.862 108.085 104.379 118.287" fill="#82352D"/>
<path d="M41.4152 124.475C43.0329 121.447 49.8924 118.485 51.0572 118.814C52.6102 119.209 56.8812 123.883 57.7224 123.948C58.6931 123.948 64.5171 117.103 66.1349 116.971C67.7527 116.839 74.5474 122.632 76.1004 122.566C78.4948 122.434 91.3723 105.188 92.4724 105.254C92.9254 105.254 103.797 107.492 104.379 118.353" fill="#82352D"/>
<path d="M41.4152 124.475C43.1624 121.249 49.9571 118.156 51.1866 118.485C52.8044 118.946 56.9459 123.948 57.8518 123.948C58.8872 123.948 64.5818 116.708 66.329 116.576C68.0762 116.378 74.7415 122.632 76.3593 122.566C78.883 122.434 91.5017 104.267 92.6018 104.267C93.1195 104.267 103.732 106.702 104.315 118.287" fill="#82352D"/>
<path d="M41.4152 124.475C43.2918 121.118 50.0218 117.827 51.316 118.221C53.0632 118.682 57.0106 124.014 57.9813 124.08C59.0814 124.08 64.6465 116.51 66.5232 116.313C68.3998 116.115 74.9356 122.829 76.6828 122.698C79.4007 122.566 91.6312 103.411 92.8607 103.411C93.3784 103.411 103.732 106.11 104.379 118.353" fill="#82352D"/>
<path d="M41.4152 124.475C43.3565 120.92 50.0865 117.498 51.4454 117.892C53.2573 118.419 57.14 124.08 58.1107 124.08C59.2755 124.08 64.7112 116.115 66.6526 115.918C68.5939 115.72 75.1298 122.829 76.9417 122.698C79.789 122.566 91.7606 102.424 92.9901 102.424C93.5725 102.424 103.603 105.32 104.315 118.287" fill="#82352D"/>
<path d="M41.4152 124.409C43.4859 120.657 50.1512 117.103 51.5748 117.498C53.5162 118.024 57.2047 124.014 58.3048 124.08C59.5343 124.146 64.8407 115.72 66.9114 115.523C68.9822 115.325 75.3886 122.829 77.2652 122.698C80.242 122.566 91.89 101.436 93.2489 101.436C93.8313 101.436 103.667 104.596 104.379 118.156" fill="#82352D"/>
<path d="M41.4152 124.409C43.5506 120.46 50.2159 116.839 51.769 117.234C53.775 117.761 57.3342 124.08 58.499 124.146C59.7932 124.212 64.9701 115.391 67.1056 115.194C69.241 114.996 75.5827 122.895 77.5888 122.764C80.7596 122.632 92.0841 100.515 93.5078 100.581C94.1549 100.581 103.667 103.938 104.444 118.222" fill="#82352D"/>
<path d="M41.4152 124.409C43.6801 120.262 50.2806 116.51 51.8984 116.905C54.0339 117.497 57.3989 124.146 58.6284 124.211C59.9873 124.277 65.0995 115.128 67.2997 114.864C69.5646 114.667 75.7769 122.961 77.8477 122.895C81.1479 122.698 92.1489 99.7249 93.6372 99.7249C94.2843 99.7249 103.603 103.345 104.379 118.287" fill="#82352D"/>
<path d="M41.4152 124.409C43.7448 120.065 50.3453 116.181 52.0278 116.576C54.228 117.168 57.5283 124.146 58.7578 124.212C60.1814 124.277 65.1642 114.733 67.4938 114.47C69.8234 114.272 75.971 122.961 78.1712 122.895C81.6009 122.698 92.343 98.7376 93.896 98.7376C94.6079 98.7376 103.603 102.555 104.444 118.222" fill="#82352D"/>
<path d="M41.4152 124.409C43.8742 119.867 50.41 115.852 52.1572 116.313C54.4869 116.905 57.593 124.277 58.8872 124.343C60.3109 124.409 65.2289 114.469 67.6233 114.206C70.0823 113.943 76.1652 123.092 78.43 123.027C81.9892 122.829 92.4077 97.8818 94.0255 97.8818C94.7373 97.8818 103.538 101.963 104.379 118.287" fill="#82352D"/>
<path d="M41.4152 124.41C44.0036 119.736 50.4747 115.523 52.2867 115.984C54.681 116.642 57.6577 124.278 59.0167 124.344C60.505 124.41 65.2937 114.075 67.8174 113.878C70.4058 113.614 76.3593 123.225 78.6889 123.093C82.4422 122.896 92.5371 96.9609 94.2196 96.9609C94.9314 96.9609 103.473 101.24 104.379 118.288" fill="#82352D"/>
<path d="M41.4152 124.409C44.0683 119.538 50.5395 115.194 52.4161 115.654C54.9398 116.313 57.7871 124.343 59.1461 124.409C60.6991 124.475 65.3584 113.745 67.9468 113.548C70.6 113.285 76.4887 123.29 78.9477 123.158C82.8304 122.961 92.6665 96.0387 94.349 96.1046C95.1256 96.1046 103.409 100.646 104.315 118.287" fill="#82352D"/>
<path d="M41.4152 124.41C44.1977 119.341 50.6042 114.865 52.5455 115.392C55.134 116.116 57.8518 124.41 59.3402 124.475C60.958 124.541 65.4878 113.483 68.2056 113.22C70.9882 112.956 76.7475 123.356 79.336 123.225C83.3481 123.027 92.8607 95.1179 94.6726 95.1837C95.4491 95.1837 103.473 99.9231 104.444 118.288" fill="#82352D"/>
<path d="M41.4152 124.409C44.2625 119.143 50.6689 114.535 52.6749 115.062C55.3281 115.786 57.9166 124.409 59.4696 124.54C61.1521 124.606 65.5525 113.153 68.3998 112.89C71.2471 112.626 76.9417 123.421 79.5948 123.29C83.8011 123.092 92.9901 94.2614 94.802 94.2614C95.6433 94.2614 103.344 99.264 104.379 118.287" fill="#82352D"/>
<path d="M41.4152 124.409C44.3919 118.945 50.7336 114.206 52.8044 114.733C55.5869 115.457 58.046 124.475 59.599 124.541C61.3463 124.606 65.6172 112.758 68.5292 112.495C71.5059 112.231 77.0711 123.422 79.8537 123.29C84.1893 123.092 93.0548 93.274 94.9962 93.274C95.8374 93.274 103.344 98.4742 104.379 118.221" fill="#82352D"/>
<path d="M41.4152 124.41C44.5213 118.749 50.7983 113.878 52.9338 114.47C55.7811 115.26 58.1107 124.541 59.7285 124.673C61.5404 124.805 65.6819 112.495 68.7234 112.232C71.8295 111.903 77.3299 123.554 80.1772 123.422C84.6423 123.159 93.2489 92.419 95.1903 92.419C96.0962 92.419 103.279 97.8824 104.379 118.288" fill="#82352D"/>
<path d="M41.4152 124.409C44.586 118.551 50.863 113.548 53.0632 114.14C56.0399 114.93 58.1754 124.606 59.8579 124.672C61.7345 124.804 65.7466 112.166 68.8528 111.836C72.0236 111.507 77.4594 123.619 80.3714 123.422C85.0306 123.158 93.249 91.431 95.3197 91.4968C96.2257 91.4968 103.214 97.1577 104.315 118.287" fill="#82352D"/>
<path d="M41.4152 124.41C44.7154 118.42 50.9277 113.22 53.2573 113.812C56.2988 114.668 58.3695 124.607 60.052 124.739C61.9934 124.87 65.8761 111.837 69.1116 111.508C72.4119 111.179 77.7182 123.686 80.7597 123.488C85.5483 123.225 93.5078 90.5102 95.5786 90.576C96.5492 90.576 103.214 96.5002 104.379 118.222" fill="#82352D"/>
<path d="M41.4152 124.409C44.7801 118.221 50.9924 112.89 53.3868 113.548C56.5576 114.404 58.4342 124.738 60.1814 124.804C62.1875 124.935 65.9408 111.507 69.3057 111.178C72.6707 110.849 77.9124 123.751 81.0832 123.553C86.0013 123.29 93.6372 89.6536 95.8374 89.6536C96.8081 89.6536 103.279 95.7753 104.444 118.221" fill="#82352D"/>
<path d="M41.4152 124.41C44.9096 118.025 51.0572 112.561 53.5162 113.219C56.7518 114.075 58.499 124.739 60.3756 124.87C62.4463 125.002 66.0702 111.179 69.4999 110.85C72.9943 110.521 78.1065 123.817 81.3421 123.62C86.4542 123.356 93.7666 88.7328 96.0315 88.7328C97.0669 88.7328 103.214 95.1178 104.444 118.222" fill="#82352D"/>
<path d="M41.4152 124.41C45.039 117.827 51.1219 112.232 53.6456 112.89C57.0106 113.812 58.5637 124.804 60.505 124.87C62.6405 125.002 66.1349 110.85 69.694 110.455C73.3179 110.126 78.3006 123.817 81.6656 123.685C86.9072 123.422 93.896 87.8113 96.2257 87.8113C97.261 87.8113 103.214 94.3937 104.444 118.222" fill="#82352D"/>
<path d="M41.4152 124.409C45.1037 117.629 51.1866 111.903 53.775 112.627C57.2047 113.548 58.6931 124.87 60.6344 125.002C62.8346 125.133 66.1996 110.586 69.8234 110.257C73.512 109.928 78.4948 124.014 81.8597 123.883C87.2308 123.619 93.9608 87.0212 96.3551 87.087C97.4552 87.087 103.085 93.9327 104.379 118.419" fill="#82352D"/>
<path d="M41.4152 124.344C45.2331 117.366 51.2513 111.508 53.9045 112.232C57.4636 113.219 58.7578 124.804 60.7639 124.936C63.0288 125.068 66.2643 110.126 70.0176 109.797C73.8355 109.402 78.6889 123.949 82.1833 123.817C87.7485 123.554 94.0902 85.9682 96.5492 86.034C97.6493 86.034 103.085 93.0772 104.379 118.288" fill="#82352D"/>
<path d="M41.4152 124.344C45.2978 117.169 51.316 111.179 54.0339 111.903C57.6577 112.89 58.8225 124.87 60.8933 125.002C63.2229 125.134 66.329 109.796 70.2117 109.467C74.0944 109.072 78.883 124.08 82.5069 123.883C88.2014 123.62 94.2843 85.1124 96.8081 85.1124C97.9081 85.1124 103.085 92.4189 104.444 118.288" fill="#82352D"/>
<path d="M41.4152 124.344C45.4273 117.037 51.3807 110.85 54.1633 111.64C57.9166 112.627 58.9519 124.936 61.0227 125.068C63.3523 125.199 66.3937 109.533 70.3411 109.138C74.3532 108.743 79.0125 124.146 82.701 123.949C88.525 123.62 94.2843 84.1909 96.8728 84.1909C98.0376 84.1909 102.891 91.6948 104.315 118.222" fill="#82352D"/>
<path d="M41.4152 124.343C45.492 116.839 51.4454 110.52 54.2927 111.31C58.1107 112.363 59.0166 125.001 61.2168 125.133C63.6111 125.264 66.5232 109.203 70.6 108.808C74.6768 108.413 79.2713 124.211 83.0892 124.014C89.0427 123.685 94.5432 83.2686 97.1963 83.2686C98.3611 83.2686 103.02 91.0359 104.444 118.221" fill="#82352D"/>
<path d="M41.4152 124.344C45.6214 116.642 51.5101 110.191 54.4221 110.981C58.3695 112.035 59.0814 125.002 61.3463 125.134C63.8053 125.265 66.5879 108.809 70.7294 108.414C74.9356 108.019 79.4007 124.212 83.3481 124.015C89.4957 123.685 94.6079 82.282 97.3257 82.3479C98.5553 82.3479 102.891 90.3126 104.379 118.222" fill="#82352D"/>
<path d="M41.4152 124.344C45.7508 116.445 51.5748 109.862 54.5516 110.718C58.5637 111.837 59.2108 125.134 61.4757 125.199C63.9994 125.331 66.6526 108.48 70.9235 108.085C75.2592 107.69 79.6596 124.278 83.607 124.08C89.884 123.751 94.7373 81.3605 97.5199 81.4263C98.7494 81.4263 102.891 89.6544 104.379 118.222" fill="#82352D"/>
<path d="M41.4152 124.344C45.8155 116.247 51.6396 109.533 54.681 110.389C58.8225 111.508 59.2755 125.133 61.6051 125.265C64.1936 125.397 66.7173 108.217 71.1177 107.756C75.518 107.361 79.8537 124.344 83.9305 124.146C90.3369 123.817 94.8667 80.5047 97.714 80.5047C99.0082 80.5047 102.826 88.9302 104.379 118.222" fill="#82352D"/>
<path d="M41.4152 124.344C45.945 116.05 51.7043 109.204 54.8751 110.06C59.0814 111.179 59.4049 125.134 61.7992 125.265C64.4524 125.397 66.8467 107.822 71.3118 107.361C75.8416 106.9 80.0478 124.41 84.2541 124.146C90.8546 123.817 95.0608 79.5175 97.9729 79.5175C99.2671 79.5175 102.891 88.2062 104.444 118.156" fill="#82352D"/>
<path d="M41.4152 124.343C46.0097 115.852 51.7043 108.874 55.0045 109.796C59.3402 110.981 59.5343 125.264 61.9287 125.396C64.6465 125.528 66.9114 107.558 71.5059 107.097C76.1004 106.636 80.242 124.54 84.5129 124.277C91.2429 123.948 95.1256 78.6609 98.1023 78.6609C99.4612 78.6609 102.762 87.5472 104.379 118.155" fill="#82352D"/>
<path d="M41.4152 124.344C46.1391 115.721 51.769 108.546 55.134 109.467C59.5343 110.652 59.5991 125.265 62.0581 125.397C64.8407 125.529 67.0409 107.164 71.6354 106.703C76.3593 106.242 80.3714 124.541 84.7718 124.278C91.6312 123.949 95.255 77.6744 98.2964 77.7402C99.6554 77.7402 102.762 86.8897 104.379 118.156" fill="#82352D"/>
<path d="M41.4152 124.344C46.2685 115.523 51.8337 108.217 55.2634 109.138C59.7932 110.389 59.6638 125.331 62.2522 125.463C65.0995 125.594 67.1703 106.834 71.8942 106.374C76.7475 105.913 80.6949 124.607 85.0953 124.409C92.1488 124.014 95.3844 76.8185 98.5553 76.8843C99.9789 76.8843 102.761 86.2314 104.444 118.222" fill="#82352D"/>
<path d="M41.4152 124.343C46.3332 115.326 51.8984 107.887 55.3928 108.875C59.9873 110.125 59.7285 125.397 62.3816 125.528C65.2936 125.66 67.235 106.571 72.0883 106.11C77.0064 105.649 80.8891 124.738 85.4189 124.541C92.6018 124.146 95.5785 75.9627 98.7494 76.0285C100.173 76.0285 102.697 85.6388 104.444 118.288" fill="#82352D"/>
<path d="M41.4152 124.343C46.4626 115.128 51.9631 107.558 55.5222 108.546C60.2462 109.796 59.8579 125.462 62.5111 125.594C65.4878 125.726 67.2997 106.242 72.2178 105.781C77.2652 105.32 81.0185 124.804 85.6777 124.607C92.9901 124.212 95.6432 75.1069 98.9435 75.1069C100.432 75.1069 102.697 84.9147 104.444 118.288" fill="#82352D"/>
<path d="M41.4152 124.343C46.5274 114.931 52.0278 107.229 55.6517 108.217C60.4403 109.533 59.9226 125.462 62.6405 125.594C65.6819 125.792 67.3644 105.847 72.4119 105.386C77.5241 104.86 81.2126 124.87 85.9366 124.607C93.4431 124.212 95.7727 74.1196 99.073 74.1196C100.561 74.1196 102.567 84.1907 104.379 118.222" fill="#82352D"/>
<path d="M41.4152 124.343C46.6568 114.733 52.0925 106.9 55.7811 107.953C60.6991 109.27 59.9873 125.594 62.7699 125.726C65.876 125.923 67.4291 105.583 72.5413 105.123C77.7829 104.596 81.3421 125.002 86.1954 124.738C93.8313 124.343 95.8374 73.2638 99.2671 73.3296C100.755 73.3296 102.567 83.5982 104.379 118.288" fill="#82352D"/>
<path d="M41.2212 124.541C46.4628 114.93 52.028 106.9 55.7165 107.887C60.6346 109.204 59.9228 125.528 62.7054 125.66C65.8115 125.857 67.3646 105.517 72.4768 105.057C77.7184 104.53 81.3422 124.936 86.1956 124.672C93.8315 124.277 95.7729 73.1978 99.2025 73.1978C100.691 73.1978 102.568 83.598 104.379 118.287" fill="#D05546"/>
<path d="M104.444 118.353C104.444 118.353 169.608 111.968 171.291 111.771L104.444 118.353Z" fill="#82352D"/>
<path d="M104.444 118.353C104.444 118.682 106.968 118.682 111.045 118.287C115.186 117.892 120.816 115.983 127.093 115.391C131.04 114.996 135.117 115.654 139.259 115.259C142.688 114.93 146.053 113.811 149.289 113.482C151.878 113.218 154.272 113.613 156.601 113.35C158.607 113.153 160.484 112.494 162.167 112.363C163.784 112.231 165.143 112.363 166.373 112.363C167.279 112.297 168.055 112.034 168.702 111.968C169.673 111.902 170.385 111.968 170.838 111.968C171.291 111.968 171.161 111.968 171.226 111.968" fill="#82352D"/>
<path d="M104.444 118.353C104.444 119.011 106.968 119.209 111.045 118.879C115.186 118.484 120.816 115.259 126.964 114.667C130.911 114.272 134.923 115.917 139.065 115.522C142.494 115.193 145.859 113.284 149.095 112.955C151.683 112.692 154.078 113.679 156.407 113.482C158.413 113.284 160.29 112.231 162.037 112.034C163.655 111.902 165.014 112.429 166.243 112.363C167.149 112.297 167.926 111.902 168.638 111.836C169.673 111.77 170.385 111.968 170.838 111.902C171.291 111.836 171.161 111.902 171.226 111.902" fill="#82352D"/>
<path d="M104.444 118.353C104.509 119.34 106.968 119.801 110.98 119.406C115.121 119.011 120.687 114.403 126.834 113.877C130.782 113.547 134.729 116.18 138.935 115.786C142.365 115.456 145.795 112.758 149.03 112.428C151.619 112.231 154.013 113.745 156.343 113.547C158.413 113.35 160.29 111.836 161.972 111.704C163.59 111.573 164.884 112.494 166.179 112.363C167.085 112.297 167.861 111.704 168.638 111.639C169.414 111.573 170.385 111.902 170.903 111.902C171.42 111.902 171.226 111.902 171.291 111.902" fill="#82352D"/>
<path d="M104.444 118.353C104.509 119.669 106.968 120.327 110.915 119.998C114.863 119.669 120.557 113.679 126.705 113.152C130.652 112.823 134.6 116.444 138.741 116.115C142.236 115.785 145.601 112.297 148.901 112.033C151.554 111.836 153.884 113.942 156.213 113.745C158.284 113.547 160.161 111.573 161.843 111.441C163.461 111.309 164.755 112.56 166.049 112.428C166.955 112.363 167.796 111.573 168.508 111.573C169.22 111.573 170.256 111.968 170.838 111.968C171.42 111.968 171.161 111.968 171.291 111.902" fill="#82352D"/>
<path d="M104.444 118.353C104.574 119.998 106.968 120.92 110.851 120.591C114.733 120.262 120.428 112.955 126.511 112.429C130.458 112.099 134.341 116.773 138.547 116.378C142.041 116.115 145.406 111.77 148.707 111.507C151.36 111.309 153.625 114.008 156.019 113.811C158.09 113.613 159.966 111.178 161.714 111.046C163.331 110.915 164.626 112.494 165.92 112.429C166.891 112.363 167.667 111.441 168.444 111.375C169.22 111.309 170.191 111.902 170.838 111.902C171.485 111.902 171.161 111.902 171.291 111.836" fill="#82352D"/>
<path d="M104.444 118.352C104.574 120.327 106.968 121.512 110.786 121.117C114.604 120.722 120.298 112.165 126.381 111.573C130.329 111.243 134.147 116.904 138.353 116.575C141.847 116.312 145.277 111.178 148.577 110.914C151.23 110.717 153.495 114.074 155.89 113.876C157.96 113.679 159.837 110.849 161.584 110.717C163.202 110.585 164.431 112.56 165.726 112.428C166.696 112.362 167.473 111.243 168.249 111.243C169.026 111.243 169.997 111.902 170.709 111.902C171.42 111.902 171.032 111.902 171.161 111.836" fill="#82352D"/>
<path d="M104.444 118.353C104.574 120.657 106.968 122.039 110.786 121.71C114.604 121.381 120.234 111.375 126.252 110.849C130.199 110.52 133.952 117.234 138.223 116.905C141.783 116.641 145.148 110.717 148.448 110.454C151.166 110.256 153.366 114.206 155.76 114.008C157.831 113.811 159.772 110.52 161.455 110.388C163.073 110.256 164.302 112.56 165.596 112.495C166.567 112.429 167.344 111.178 168.185 111.112C169.026 111.046 169.932 111.968 170.644 111.902C171.356 111.836 171.032 111.902 171.161 111.77" fill="#82352D"/>
<path d="M104.444 118.353C104.638 120.986 106.968 122.632 110.721 122.302C114.474 121.973 120.104 110.652 126.122 110.125C130.07 109.796 133.823 117.497 138.029 117.168C141.588 116.905 144.953 110.125 148.318 109.927C151.036 109.73 153.236 114.272 155.631 114.074C157.766 113.943 159.643 110.125 161.39 109.993C163.008 109.862 164.237 112.56 165.532 112.429C166.502 112.363 167.344 110.915 168.185 110.915C169.026 110.915 169.997 111.902 170.709 111.902C171.42 111.902 171.097 111.902 171.226 111.771" fill="#82352D"/>
<path d="M104.444 118.353C104.638 121.315 106.968 123.158 110.656 122.895C114.345 122.632 119.975 109.927 125.993 109.401C132.011 108.874 133.629 117.826 137.9 117.497C141.459 117.234 144.889 109.664 148.254 109.467C150.972 109.269 153.172 114.403 155.566 114.206C157.702 114.074 159.578 109.796 161.325 109.73C162.943 109.598 164.108 112.626 165.467 112.56C166.438 112.56 167.279 110.915 168.12 110.849C168.961 110.783 169.932 111.968 170.709 111.968C171.485 111.968 171.097 111.968 171.226 111.836" fill="#82352D"/>
<path d="M104.444 118.353C104.638 121.645 106.968 123.751 110.592 123.422C114.216 123.093 119.845 109.072 125.799 108.611C131.752 108.151 133.37 118.024 137.641 117.761C141.265 117.498 144.63 109.138 147.995 108.941C150.713 108.743 152.848 114.47 155.307 114.338C157.443 114.206 159.319 109.533 161.067 109.401C162.684 109.27 163.849 112.627 165.208 112.561C166.243 112.561 167.02 110.718 167.926 110.718C168.832 110.718 169.738 111.968 170.579 111.968C171.42 111.968 170.967 111.968 171.161 111.837" fill="#82352D"/>
<path d="M104.444 118.353C104.703 121.973 106.968 124.277 110.592 124.014C114.216 123.751 119.781 108.348 125.734 107.887C131.688 107.426 133.241 118.353 137.576 118.024C141.2 117.761 144.565 108.611 147.995 108.414C150.777 108.282 152.848 114.535 155.307 114.404C157.443 114.272 159.384 109.138 161.067 109.006C162.684 108.94 163.784 112.626 165.208 112.495C166.243 112.495 167.02 110.52 167.991 110.454C168.961 110.388 169.803 111.836 170.709 111.836C171.614 111.836 171.097 111.771 171.291 111.705" fill="#82352D"/>
<path d="M104.444 118.353C104.703 122.302 106.968 124.87 110.527 124.606C114.086 124.343 119.651 107.624 125.54 107.163C131.429 106.702 133.047 118.616 137.317 118.353C140.941 118.09 144.371 108.15 147.801 107.953C150.583 107.821 152.654 114.733 155.113 114.535C157.249 114.404 159.19 108.809 160.937 108.743C162.555 108.677 163.655 112.692 165.014 112.626C166.049 112.626 166.891 110.454 167.796 110.454C168.702 110.454 169.608 111.968 170.579 112.034C171.55 112.1 170.967 111.968 171.161 111.902" fill="#82352D"/>
<path d="M104.444 118.353C104.703 122.632 106.968 125.462 110.462 125.199C113.957 124.935 119.522 106.834 125.411 106.439C131.299 106.044 132.852 118.945 137.188 118.682C140.877 118.485 144.242 107.69 147.671 107.492C150.454 107.36 152.525 114.864 154.984 114.667C157.184 114.535 159.06 108.479 160.808 108.414C162.425 108.348 163.526 112.692 164.884 112.626C165.92 112.626 166.761 110.322 167.732 110.257C168.702 110.191 169.544 111.968 170.514 111.968C171.485 111.968 170.967 111.902 171.161 111.836" fill="#82352D"/>
<path d="M104.444 118.353C104.768 122.961 106.968 125.989 110.398 125.725C113.827 125.462 119.392 106.044 125.216 105.649C131.04 105.254 132.594 119.143 136.929 118.88C140.618 118.682 143.983 107.097 147.477 106.9C150.324 106.768 152.33 114.864 154.79 114.667C156.99 114.535 158.866 108.084 160.614 107.953C162.231 107.887 163.267 112.626 164.69 112.56C165.726 112.56 166.567 110.059 167.602 110.059C168.638 110.059 169.479 111.902 170.45 111.902C171.42 111.902 170.903 111.836 171.097 111.705" fill="#82352D"/>
<path d="M104.444 118.353C104.768 123.29 106.968 126.581 110.333 126.318C113.698 126.054 119.328 105.32 125.087 104.925C130.846 104.53 132.399 119.472 136.8 119.209C140.553 119.011 143.918 106.636 147.348 106.504C150.195 106.373 152.136 115.062 154.66 114.93C156.86 114.798 158.737 107.887 160.549 107.821C162.167 107.755 163.202 112.824 164.626 112.758C165.726 112.758 166.502 110.125 167.538 110.059C168.573 109.993 169.414 112.034 170.45 112.034C171.485 112.034 170.903 111.968 171.097 111.836" fill="#82352D"/>
<path d="M104.444 118.353C104.768 123.619 106.968 127.107 110.333 126.91C113.698 126.712 119.263 104.595 125.022 104.201C130.782 103.806 132.27 119.735 136.67 119.538C140.424 119.34 143.789 106.175 147.283 106.044C150.13 105.912 152.072 115.193 154.595 115.062C156.796 114.93 158.737 107.558 160.484 107.492C162.102 107.426 163.137 112.889 164.561 112.823C165.661 112.823 166.502 109.993 167.538 109.993C168.573 109.993 169.414 112.099 170.514 112.165C171.614 112.231 170.967 112.099 171.226 111.968" fill="#82352D"/>
<path d="M104.444 118.353C104.832 123.948 106.968 127.7 110.268 127.437C113.568 127.173 119.134 103.74 124.828 103.345C130.523 102.95 132.076 119.933 136.476 119.669C140.229 119.472 143.594 105.517 147.154 105.386C150.066 105.254 151.942 115.128 154.466 114.996C156.666 114.864 158.607 107.031 160.355 106.965C161.972 106.9 162.943 112.692 164.431 112.626C165.532 112.626 166.373 109.664 167.408 109.598C168.444 109.533 169.285 111.836 170.45 111.902C171.614 111.968 170.903 111.836 171.161 111.705" fill="#82352D"/>
<path d="M104.444 118.353C104.832 124.277 106.968 128.292 110.203 128.029C113.439 127.766 119.004 103.016 124.699 102.621C130.393 102.226 131.882 120.262 136.282 119.999C140.1 119.801 143.465 105.057 146.959 104.925C149.871 104.793 151.748 115.325 154.272 115.128C156.472 114.996 158.413 106.768 160.225 106.702C161.843 106.702 162.814 112.758 164.237 112.692C165.337 112.692 166.179 109.533 167.279 109.533C168.379 109.533 169.155 111.902 170.385 111.968C171.614 112.034 170.838 111.902 171.097 111.771" fill="#82352D"/>
<path d="M104.444 118.353C104.832 124.606 106.968 128.819 110.139 128.622C113.31 128.424 118.875 102.292 124.505 101.897C130.134 101.502 131.623 120.525 136.088 120.328C139.906 120.13 143.271 104.596 146.83 104.464C149.742 104.398 151.619 115.457 154.142 115.325C156.407 115.193 158.284 106.505 160.096 106.439C161.714 106.439 162.62 112.89 164.108 112.824C165.208 112.824 166.049 109.533 167.214 109.467C168.379 109.401 169.091 111.968 170.385 112.034C171.679 112.1 170.838 111.968 171.161 111.836" fill="#82352D"/>
<path d="M104.444 118.353C104.897 124.935 106.968 129.411 110.139 129.214C113.31 129.016 118.81 101.502 124.44 101.173C130.07 100.844 131.493 120.854 135.959 120.591C139.776 120.393 143.141 104.069 146.701 103.937C149.613 103.872 151.425 115.522 154.013 115.391C156.278 115.259 158.219 106.11 159.966 106.044C161.584 106.044 162.49 112.824 163.979 112.758C165.143 112.758 165.985 109.269 167.085 109.269C168.185 109.269 169.026 111.968 170.256 111.968C171.485 111.968 170.773 111.836 171.032 111.77" fill="#82352D"/>
<path d="M104.444 118.353C104.897 125.33 106.968 129.938 110.074 129.74C113.18 129.543 118.681 100.712 124.31 100.382C129.94 100.053 131.364 121.051 135.829 120.854C139.712 120.722 143.077 103.542 146.636 103.41C149.613 103.345 151.36 115.588 153.948 115.456C156.213 115.325 158.155 105.714 159.902 105.714C161.519 105.714 162.425 112.889 163.914 112.823C165.079 112.823 165.92 109.203 167.085 109.137C168.249 109.071 169.026 111.968 170.32 112.033C171.614 112.099 170.838 111.902 171.097 111.836" fill="#82352D"/>
<path d="M104.444 118.353C104.897 125.659 106.968 130.53 110.009 130.333C113.051 130.135 118.551 99.9878 124.116 99.6587C129.682 99.3296 131.105 121.381 135.635 121.183C139.518 121.052 142.883 103.082 146.506 102.95C149.483 102.884 151.23 115.72 153.819 115.588C156.084 115.456 158.025 105.451 159.837 105.385C161.455 105.385 162.296 112.889 163.849 112.824C165.014 112.824 165.855 109.006 167.085 109.006C168.314 109.006 169.026 111.968 170.385 112.034C171.744 112.099 170.903 111.902 171.226 111.77" fill="#82352D"/>
<path d="M104.444 118.353C104.962 125.989 106.968 131.123 109.945 130.925C112.921 130.728 118.422 99.264 123.987 98.9349C129.552 98.6058 130.911 121.644 135.441 121.447C139.324 121.315 142.688 102.555 146.312 102.424C149.289 102.424 151.036 115.786 153.625 115.72C155.89 115.588 157.831 105.122 159.643 105.057C161.261 105.057 162.102 112.89 163.655 112.89C164.82 112.89 165.661 108.94 166.891 108.874C168.12 108.809 168.832 111.968 170.256 112.034C171.679 112.1 170.773 111.902 171.097 111.771" fill="#82352D"/>
<path d="M104.444 118.353C104.962 126.318 106.968 131.649 109.88 131.518C112.792 131.386 118.292 98.4739 123.793 98.2106C129.293 97.9473 130.652 121.973 135.247 121.776C139.194 121.644 142.559 102.028 146.183 101.963C149.224 101.963 150.842 115.983 153.495 115.852C155.825 115.786 157.702 104.793 159.513 104.793C161.131 104.793 161.972 113.021 163.461 112.955C164.69 112.955 165.532 108.808 166.761 108.808C167.991 108.808 168.702 112.034 170.191 112.1C171.679 112.165 170.709 111.968 171.032 111.836" fill="#82352D"/>
<path d="M104.444 118.353C104.962 126.647 106.968 132.242 109.88 132.045C112.792 131.847 118.228 97.6845 123.728 97.4212C129.229 97.1579 130.587 122.171 135.117 122.039C139.065 121.908 142.43 101.502 146.118 101.436C149.16 101.436 150.777 116.049 153.431 115.918C155.76 115.852 157.702 104.399 159.513 104.399C161.131 104.399 161.908 112.956 163.461 112.89C164.69 112.89 165.532 108.611 166.826 108.545C168.12 108.48 168.767 111.903 170.32 112.034C171.873 112.166 170.838 111.903 171.226 111.771" fill="#82352D"/>
<path d="M104.444 118.353C105.026 126.976 106.968 132.768 109.815 132.637C113.892 132.439 118.098 96.96 123.534 96.6967C128.97 96.4334 130.329 122.5 134.923 122.302C138.871 122.171 142.236 100.975 145.924 100.975C148.965 100.975 150.583 116.181 153.236 116.049C155.566 115.983 157.507 104.135 159.319 104.069C160.937 104.069 161.714 112.955 163.267 112.955C164.496 112.955 165.337 108.479 166.632 108.479C167.926 108.479 168.638 111.968 170.191 112.1C171.744 112.231 170.773 111.968 171.097 111.836" fill="#82352D"/>
<path d="M104.444 118.353C105.026 127.305 106.968 133.361 109.75 133.229C113.827 133.032 117.969 96.1704 123.405 95.9729C128.84 95.7755 130.135 122.763 134.729 122.632C138.741 122.5 142.106 100.515 145.795 100.515C148.836 100.515 150.454 116.313 153.107 116.247C155.437 116.181 157.378 103.872 159.19 103.872C160.808 103.872 161.519 113.153 163.137 113.087C164.367 113.087 165.273 108.48 166.567 108.414C167.861 108.348 168.573 112.034 170.126 112.166C171.679 112.297 170.709 112.034 171.032 111.902" fill="#82352D"/>
<path d="M104.444 118.353C105.026 127.634 106.968 133.953 109.686 133.756C113.763 133.558 117.904 95.3803 123.275 95.1828C128.646 94.9853 129.94 123.026 134.6 122.895C138.612 122.763 141.977 99.988 145.665 99.988C148.771 99.988 150.324 116.378 152.978 116.312C155.307 116.247 157.249 103.477 159.06 103.477C160.678 103.477 161.39 113.087 163.008 113.087C164.237 113.087 165.143 108.282 166.438 108.282C167.732 108.282 168.444 112.1 170.061 112.165C171.679 112.231 170.644 112.034 171.032 111.902" fill="#82352D"/>
<path d="M104.444 118.353C105.091 127.963 106.968 134.48 109.686 134.348C113.763 134.151 117.839 94.656 123.146 94.3927C128.452 94.1294 129.811 123.224 134.405 123.092C138.418 122.96 141.783 99.3953 145.536 99.3953C148.642 99.3953 150.13 116.378 152.848 116.312C155.242 116.246 157.184 103.016 158.996 103.016C160.614 103.016 161.325 113.021 162.943 112.955C164.237 112.955 165.079 108.018 166.438 107.952C167.796 107.887 168.444 111.902 170.126 112.034C171.809 112.165 170.708 111.902 171.097 111.704" fill="#82352D"/>
<path d="M104.444 118.353C105.091 128.292 106.968 135.072 109.621 134.941C113.698 134.743 117.71 93.9322 123.016 93.669C128.323 93.4057 129.617 123.553 134.276 123.421C138.353 123.356 141.718 98.9349 145.471 98.9349C148.577 98.9349 150.066 116.576 152.783 116.444C155.178 116.378 157.119 102.753 158.931 102.753C160.549 102.753 161.196 113.087 162.814 113.087C164.108 113.087 164.949 107.953 166.373 107.953C167.797 107.953 168.379 112.034 170.126 112.166C171.873 112.297 170.709 112.034 171.097 111.836" fill="#82352D"/>
<path d="M104.444 118.353C105.091 128.622 106.968 135.599 109.556 135.534C113.633 135.336 117.581 93.1427 122.822 92.9453C128.064 92.7478 129.358 123.817 134.017 123.751C138.094 123.685 141.459 98.4745 145.212 98.4745C148.383 98.4745 149.807 116.708 152.525 116.642C154.919 116.576 156.86 102.49 158.672 102.49C160.29 102.49 160.937 113.153 162.555 113.153C163.849 113.153 164.755 107.822 166.114 107.822C167.473 107.822 168.12 112.034 169.932 112.166C171.744 112.298 170.514 112.034 170.967 111.837" fill="#82352D"/>
<path d="M104.444 118.353C105.156 128.951 106.968 136.192 109.492 136.06C113.504 135.862 117.451 92.3526 122.693 92.1551C127.934 91.9577 129.164 124.08 133.888 123.948C137.965 123.882 141.33 97.8819 145.148 97.8819C148.318 97.8819 149.742 116.708 152.46 116.642C154.854 116.642 156.796 102.029 158.672 102.029C160.29 102.029 160.937 113.087 162.555 113.021C163.849 113.021 164.755 107.558 166.179 107.558C167.602 107.558 168.249 111.902 170.061 112.034C171.873 112.166 170.708 111.902 171.097 111.705" fill="#82352D"/>
<path d="M104.444 118.354C105.156 129.28 106.968 136.784 109.427 136.653C113.439 136.521 117.322 91.629 122.563 91.4315C127.805 91.234 129.034 124.344 133.694 124.278C137.835 124.212 141.2 97.4215 144.953 97.4215C148.124 97.4215 149.548 116.84 152.266 116.774C154.66 116.774 156.601 101.7 158.478 101.766C160.096 101.766 160.678 113.153 162.361 113.153C163.655 113.153 164.561 107.493 166.049 107.558C167.538 107.624 168.12 112.034 169.932 112.166C171.744 112.298 170.579 112.034 170.967 111.837" fill="#82352D"/>
<path d="M104.444 118.353C105.156 129.609 106.968 137.31 109.427 137.244C113.439 137.113 117.257 90.8383 122.434 90.7066C127.611 90.575 128.84 124.672 133.564 124.606C137.706 124.606 141.071 96.9599 144.889 96.9599C148.124 96.9599 149.418 116.97 152.201 116.905C154.595 116.905 156.601 101.436 158.413 101.436C160.031 101.436 160.614 113.153 162.296 113.153C163.655 113.153 164.496 107.36 165.985 107.36C167.473 107.36 168.055 111.968 169.932 112.165C171.809 112.363 170.579 112.034 171.032 111.836" fill="#82352D"/>
<path d="M104.444 118.353C105.221 129.938 106.968 137.903 109.362 137.837C113.374 137.706 117.128 90.1146 122.304 89.983C127.481 89.8513 128.646 125.001 133.37 124.87C137.512 124.87 140.877 96.4337 144.759 96.4337C147.995 96.4337 149.289 117.037 152.072 117.037C154.531 117.037 156.472 101.107 158.349 101.173C159.966 101.173 160.484 113.285 162.231 113.285C163.59 113.285 164.496 107.295 165.985 107.361C167.473 107.426 168.055 112.166 169.997 112.297C171.938 112.429 170.644 112.166 171.097 111.968" fill="#82352D"/>
<path d="M104.444 118.353C105.221 130.267 106.968 138.429 109.297 138.364C113.31 138.232 116.998 89.3245 122.11 89.1929C127.222 89.0612 128.387 125.199 133.176 125.133C137.382 125.133 140.747 95.9069 144.565 95.9069C147.801 95.9069 149.095 117.168 151.878 117.102C154.337 117.102 156.278 100.712 158.154 100.778C159.772 100.778 160.29 113.219 161.972 113.219C163.331 113.219 164.237 107.097 165.79 107.097C167.344 107.097 167.861 112.034 169.867 112.166C171.873 112.297 170.514 112.034 170.967 111.771" fill="#82352D"/>
<path d="M104.444 118.353C105.221 130.596 106.903 139.021 109.233 138.956C113.245 138.824 116.869 88.6001 121.981 88.4684C127.093 88.3368 128.193 125.527 132.982 125.462C137.188 125.462 140.553 95.4458 144.436 95.5116C147.671 95.5116 148.965 117.365 151.748 117.299C154.207 117.299 156.148 100.448 158.025 100.514C159.708 100.514 160.161 113.35 161.843 113.35C163.202 113.35 164.108 107.031 165.661 107.097C167.214 107.162 167.732 112.165 169.803 112.297C171.873 112.428 170.45 112.165 170.967 111.902" fill="#82352D"/>
<path d="M104.444 118.353C105.285 130.925 106.903 139.614 109.233 139.548C113.245 139.417 116.804 87.8104 121.851 87.7445C126.899 87.6787 128.064 125.791 132.852 125.791C137.059 125.791 140.424 94.9852 144.371 95.051C147.671 95.051 148.836 117.497 151.683 117.431C154.142 117.431 156.148 100.185 157.96 100.251C159.643 100.251 160.031 113.416 161.778 113.416C163.137 113.416 164.043 106.965 165.661 106.965C167.279 106.965 167.796 112.165 169.867 112.363C171.938 112.56 170.579 112.165 171.032 111.968" fill="#82352D"/>
<path d="M104.444 118.353C105.285 131.255 106.903 140.141 109.168 140.075C113.18 139.944 116.675 87.021 121.722 86.9552C126.77 86.8893 127.87 126.055 132.658 125.989C136.929 125.989 140.294 94.3933 144.177 94.4591C147.477 94.5249 148.642 117.498 151.489 117.498C153.948 117.498 155.954 99.7909 157.831 99.8567C159.513 99.8567 159.902 113.351 161.649 113.351C163.073 113.351 163.979 106.702 165.532 106.768C167.085 106.834 167.667 112.1 169.803 112.297C171.938 112.495 170.514 112.1 170.967 111.903" fill="#82352D"/>
<path d="M104.444 118.353C105.285 131.583 106.903 140.733 109.103 140.667C113.115 140.601 116.61 86.2962 121.593 86.1646C126.575 86.0329 127.675 126.251 132.529 126.251C136.8 126.251 140.165 93.866 144.112 93.9318C147.412 93.9976 148.577 117.563 151.425 117.563C153.948 117.563 155.89 99.3952 157.766 99.461C159.449 99.461 159.837 113.35 161.584 113.35C163.008 113.35 163.914 106.57 165.532 106.57C167.149 106.57 167.667 112.033 169.803 112.231C171.938 112.428 170.514 112.033 171.032 111.836" fill="#82352D"/>
<path d="M104.444 118.353C105.35 131.913 106.903 141.326 109.039 141.26C113.051 141.194 116.48 85.5726 121.398 85.4409C126.317 85.3093 127.417 126.581 132.27 126.581C136.541 126.581 139.906 93.3398 143.853 93.4715C147.218 93.5373 148.318 117.695 151.166 117.695C153.689 117.695 155.631 99.0665 157.507 99.1982C159.19 99.1982 159.513 113.416 161.325 113.416C162.749 113.416 163.655 106.439 165.337 106.505C167.02 106.57 167.473 112.1 169.673 112.297C171.873 112.495 170.385 112.1 170.903 111.902" fill="#82352D"/>
<path d="M104.444 118.353C105.35 132.242 106.903 141.852 108.974 141.852C112.986 141.787 116.351 84.7829 121.269 84.7171C126.187 84.6512 127.287 126.845 132.141 126.845C136.476 126.845 139.841 92.8134 143.789 92.9451C147.154 93.0109 148.254 117.827 151.101 117.761C153.625 117.761 155.631 98.7376 157.507 98.8034C159.19 98.8034 159.513 113.416 161.325 113.416C162.749 113.416 163.655 106.242 165.337 106.307C167.02 106.373 167.473 112.1 169.738 112.297C172.003 112.495 170.45 112.1 170.967 111.902" fill="#82352D"/>
<path d="M104.444 118.353C105.35 132.571 106.903 142.445 108.974 142.379C112.986 142.379 116.286 83.9928 121.14 83.927C125.993 83.8611 127.093 127.108 131.946 127.108C136.282 127.108 139.647 92.2866 143.659 92.4183C147.024 92.5499 148.06 117.892 150.972 117.826C153.495 117.826 155.501 98.3425 157.378 98.4083C159.06 98.4741 159.319 113.35 161.131 113.35C162.555 113.35 163.526 106.044 165.208 106.11C166.891 106.176 167.344 112.034 169.673 112.231C170.256 112.231 170.385 112.034 170.967 111.771" fill="#82352D"/>
<path d="M104.444 118.353C105.415 132.901 106.903 142.972 108.909 142.972C112.921 142.972 116.157 83.2691 121.01 83.2033C125.864 83.1374 126.899 127.371 131.817 127.437C136.153 127.437 139.518 91.8262 143.53 91.9579C146.895 92.0895 147.93 118.024 150.842 118.024C153.366 118.024 155.372 98.0795 157.249 98.2112C158.931 98.277 159.19 113.482 161.002 113.548C162.49 113.548 163.396 106.044 165.143 106.11C166.891 106.176 167.344 112.166 169.673 112.363C170.256 112.363 170.45 112.166 170.967 111.903" fill="#82352D"/>
<path d="M104.444 118.353C105.415 133.229 106.903 143.564 108.844 143.564C112.857 143.564 116.027 82.5446 120.881 82.4788C124.893 82.4788 126.705 127.7 131.623 127.7C136.023 127.7 139.388 91.2993 143.4 91.4309C146.83 91.5626 147.801 118.09 150.713 118.09C153.301 118.09 155.242 97.6842 157.184 97.8158C158.866 97.8817 159.125 113.482 160.937 113.482C162.425 113.482 163.331 105.846 165.079 105.912C166.696 105.912 167.279 112.1 169.673 112.297C170.256 112.297 170.45 112.1 170.967 111.836" fill="#82352D"/>
<path d="M104.444 118.353C105.479 133.558 106.903 144.09 108.78 144.156C112.792 144.156 115.898 81.7545 120.687 81.7545C124.699 81.7545 126.511 127.963 131.429 128.029C135.829 128.029 139.194 90.8382 143.206 90.9698C146.636 91.1015 147.607 118.221 150.519 118.221C153.107 118.221 155.048 97.4206 156.99 97.4864C158.672 97.5523 158.866 113.482 160.743 113.482C162.231 113.482 163.137 105.649 164.949 105.714C166.567 105.714 167.149 112.034 169.608 112.231C170.191 112.231 170.385 112.034 170.967 111.77" fill="#82352D"/>
<path d="M104.444 118.352C105.479 133.887 106.903 144.682 108.78 144.682C112.792 144.682 115.833 80.9644 120.622 80.9644C124.634 80.9644 126.381 128.226 131.299 128.292C135.7 128.292 139.065 90.3114 143.141 90.5089C146.571 90.6405 147.542 118.352 150.454 118.352C153.042 118.352 155.048 97.0913 156.925 97.2229C158.607 97.2888 158.802 113.547 160.678 113.613C162.167 113.613 163.137 105.648 164.949 105.714C166.567 105.714 167.149 112.165 169.608 112.428C170.191 112.428 170.385 112.231 170.967 111.968" fill="#82352D"/>
<path d="M104.444 118.353C105.479 134.217 106.903 145.275 108.715 145.275C112.727 145.275 115.704 80.2407 120.428 80.2407C124.44 80.2407 126.122 128.49 131.105 128.556C135.57 128.556 138.935 89.7852 143.012 89.9827C146.506 90.1143 147.348 118.485 150.324 118.485C152.913 118.485 154.919 96.7626 156.796 96.8942C158.478 96.9601 158.672 113.614 160.549 113.614C162.037 113.614 163.008 105.451 164.82 105.517C166.502 105.517 167.02 112.1 169.544 112.363C170.126 112.363 170.32 112.165 170.903 111.902" fill="#82352D"/>
<path d="M104.444 118.353C105.544 134.546 106.903 145.868 108.65 145.868C112.662 145.868 115.574 79.5171 120.298 79.5171C124.31 79.5171 125.928 128.819 130.911 128.885C135.376 128.885 138.741 89.3249 142.818 89.5224C146.312 89.654 147.154 118.617 150.13 118.617C152.719 118.617 154.725 96.4339 156.666 96.5656C158.349 96.6972 158.478 113.614 160.355 113.68C161.908 113.68 162.814 105.386 164.69 105.452C166.373 105.452 166.891 112.166 169.479 112.429C170.126 112.429 170.256 112.232 170.903 111.968" fill="#82352D"/>
<path d="M104.444 118.353C105.544 134.875 106.903 146.394 108.586 146.394C112.598 146.394 115.445 78.6612 120.104 78.727C124.116 78.727 125.734 129.017 130.717 129.148C135.182 129.214 138.547 88.7981 142.688 88.9956C146.183 89.1273 147.024 118.682 150.001 118.682C152.589 118.682 154.595 96.1046 156.537 96.2363C158.219 96.3679 158.349 113.68 160.225 113.68C161.778 113.68 162.684 105.188 164.561 105.254C166.243 105.254 166.826 112.166 169.414 112.363C170.061 112.363 170.256 112.166 170.838 111.837" fill="#82352D"/>
<path d="M104.444 118.353C105.544 135.204 106.903 146.986 108.586 146.986C112.598 146.986 115.38 77.9368 120.04 77.9368C124.052 77.9368 125.605 129.28 130.587 129.346C135.117 129.411 138.482 88.2054 142.624 88.4029C146.183 88.6003 146.959 118.682 149.936 118.682C152.589 118.682 154.595 95.6435 156.472 95.7752C158.155 95.9068 158.219 113.548 160.161 113.614C162.102 113.679 162.684 104.991 164.561 105.056C166.243 105.056 166.826 112.1 169.479 112.363C170.126 112.363 170.32 112.165 170.903 111.836" fill="#82352D"/>
<path d="M104.444 118.353C105.544 135.204 106.903 146.986 108.586 146.986C112.598 146.986 115.38 77.9368 120.04 77.9368C124.052 77.9368 125.605 129.28 130.588 129.345C135.117 129.411 138.482 88.2053 142.624 88.4028C146.183 88.6003 146.96 118.682 149.936 118.682C152.589 118.682 154.596 95.6435 156.472 95.7751C158.155 95.9068 158.219 113.482 160.161 113.613C161.52 113.613 162.684 104.99 164.561 105.056C166.244 105.056 166.826 112.1 169.479 112.363C170.126 112.363 171.097 112.1 171.42 111.836" fill="#CF5447"/>
</svg>
