<svg xmlns="http://www.w3.org/2000/svg" width="16" height="16" fill="none" viewBox="0 0 16 16"><path fill="#2d88be" d="M6.42 2.92c0-.092.075-.167.167-.167h.166c.092 0 .167.075.167.167v.167a.167.167 0 0 1-.167.166h-.166a.167.167 0 0 1-.167-.166zm0 .667c0-.092.075-.167.167-.167h.166c.092 0 .167.075.167.167v.166a.167.167 0 0 1-.167.167h-.166a.167.167 0 0 1-.167-.167zm0 3.333c0-.092.075-.167.167-.167h.166c.092 0 .167.075.167.167v.167a.167.167 0 0 1-.167.166h-.166a.167.167 0 0 1-.167-.166zm0 .667c0-.092.075-.167.167-.167h.166c.092 0 .167.075.167.167v.166a.167.167 0 0 1-.167.167h-.166a.167.167 0 0 1-.167-.167zm.667-4.667c0-.092.074-.167.166-.167h.167c.092 0 .167.075.167.167v.167a.167.167 0 0 1-.167.166h-.167a.167.167 0 0 1-.166-.166zm0 .667c0-.092.074-.167.166-.167h.167c.092 0 .167.075.167.167v.166a.167.167 0 0 1-.167.167h-.167a.167.167 0 0 1-.166-.167zm.666 0c0-.092.075-.167.167-.167h.167c.092 0 .166.075.166.167v.166a.167.167 0 0 1-.166.167H7.92a.167.167 0 0 1-.167-.167zm0 3.5c0 .092.075.166.167.166h.167a.167.167 0 0 0 .166-.166V6.92a.167.167 0 0 0-.166-.167H7.92a.167.167 0 0 0-.167.167zm-1.5 0a.167.167 0 0 1-.166.166H5.92a.167.167 0 0 1-.167-.166V6.92c0-.092.075-.167.167-.167h.167c.092 0 .166.075.166.167zm0-3.5a.167.167 0 0 0-.166-.167H5.92a.167.167 0 0 0-.167.167v.166c0 .092.075.167.167.167h.167a.167.167 0 0 0 .166-.167zm.834 3.333c0-.092.074-.167.166-.167h.167c.092 0 .167.075.167.167v.167a.167.167 0 0 1-.167.166h-.167a.167.167 0 0 1-.166-.166zm0 .667c0-.092.074-.167.166-.167h.167c.092 0 .167.075.167.167v.166a.167.167 0 0 1-.167.167h-.167a.167.167 0 0 1-.166-.167zM9.42 4.753c.092 0 .167.075.167.167v.167a.167.167 0 0 1-.167.166h-.167a.167.167 0 0 1-.166-.166V4.92c0-.092.074-.167.166-.167zm4.667 2c.092 0 .166.075.166.167v.167a.167.167 0 0 1-.166.166h-.167a.167.167 0 0 1-.167-.166V6.92c0-.092.075-.167.167-.167zm-.667 0c.092 0 .167.075.167.167v.167a.167.167 0 0 1-.167.166h-.167a.167.167 0 0 1-.166-.166V6.92c0-.092.074-.167.166-.167zm-.667 0c.092 0 .167.075.167.167v.167a.167.167 0 0 1-.167.166h-.166a.167.167 0 0 1-.167-.166V6.92c0-.092.075-.167.167-.167zm0 1.334c.092 0 .167.074.167.166v.167a.167.167 0 0 1-.167.167h-.166a.167.167 0 0 1-.167-.167v-.167c0-.092.075-.166.167-.166zm0 1.333c.092 0 .167.075.167.167v.166a.167.167 0 0 1-.167.167h-.166a.167.167 0 0 1-.167-.167v-.166c0-.092.075-.167.167-.167zm0 1.333c.092 0 .167.075.167.167v.167a.167.167 0 0 1-.167.166h-.166a.167.167 0 0 1-.167-.166v-.167c0-.092.075-.167.167-.167zm0 1.334c.092 0 .167.074.167.166v.167a.167.167 0 0 1-.167.167h-.166a.167.167 0 0 1-.167-.167v-.167c0-.092.075-.166.167-.166zm-.666 0c.092 0 .166.074.166.166v.167a.167.167 0 0 1-.166.167h-.167a.167.167 0 0 1-.167-.167v-.167c0-.092.075-.166.167-.166zm-.667 0c.092 0 .167.074.167.166v.167a.167.167 0 0 1-.167.167h-.167a.167.167 0 0 1-.166-.167v-.167c0-.092.074-.166.166-.166zm-.667 0c.092 0 .167.074.167.166v.167a.167.167 0 0 1-.167.167h-.166a.167.167 0 0 1-.167-.167v-.167c0-.092.075-.166.167-.166zm-.666 0c.092 0 .166.074.166.166v.167a.167.167 0 0 1-.166.167H9.92a.167.167 0 0 1-.167-.167v-.167c0-.092.075-.166.167-.166zm0-1.334c.092 0 .166.075.166.167v.167a.167.167 0 0 1-.166.166H9.92a.167.167 0 0 1-.167-.166v-.167c0-.092.075-.167.167-.167zm-2 1.334c.092 0 .166.074.166.166v.167a.167.167 0 0 1-.166.167H7.92a.167.167 0 0 1-.167-.167v-.167c0-.092.075-.166.167-.166zm-.667 0c.092 0 .167.074.167.166v.167a.167.167 0 0 1-.167.167h-.167a.167.167 0 0 1-.166-.167v-.167c0-.092.074-.166.166-.166zm-.667 0c.092 0 .167.074.167.166v.167a.167.167 0 0 1-.167.167h-.166a.167.167 0 0 1-.167-.167v-.167c0-.092.075-.166.167-.166zm-.666 0c.092 0 .166.074.166.166v.167a.167.167 0 0 1-.166.167H5.92a.167.167 0 0 1-.167-.167v-.167c0-.092.075-.166.167-.166zm-.667 0c.092 0 .167.074.167.166v.167a.167.167 0 0 1-.167.167h-.167a.167.167 0 0 1-.166-.167v-.167c0-.092.074-.166.166-.166zm-.667 0c.092 0 .167.074.167.166v.167a.167.167 0 0 1-.167.167h-.166a.167.167 0 0 1-.167-.167v-.167c0-.092.075-.166.167-.166zm-.666 0c.092 0 .166.074.166.166v.167a.167.167 0 0 1-.166.167H3.92a.167.167 0 0 1-.167-.167v-.167c0-.092.075-.166.167-.166zm-.667 0c.092 0 .167.074.167.166v.167a.167.167 0 0 1-.167.167h-.167a.167.167 0 0 1-.166-.167v-.167c0-.092.074-.166.166-.166zm-.667 0c.092 0 .167.074.167.166v.167a.167.167 0 0 1-.167.167h-.166a.167.167 0 0 1-.167-.167v-.167c0-.092.075-.166.167-.166zm-.666 0c.092 0 .166.074.166.166v.167a.167.167 0 0 1-.166.167H1.92a.167.167 0 0 1-.167-.167v-.167c0-.092.075-.166.167-.166zm8.666-1.334c.092 0 .167.075.167.167v.167a.167.167 0 0 1-.167.166h-.166a.167.167 0 0 1-.167-.166v-.167c0-.092.075-.167.167-.167zm0-.666c.092 0 .167.074.167.166v.167a.167.167 0 0 1-.167.167h-.166a.167.167 0 0 1-.167-.167v-.167c0-.092.075-.166.167-.166zm.667.666c.092 0 .167.075.167.167v.167a.167.167 0 0 1-.167.166h-.167a.167.167 0 0 1-.166-.166v-.167c0-.092.074-.167.166-.167zm0-.666c.092 0 .167.074.167.166v.167a.167.167 0 0 1-.167.167h-.167a.167.167 0 0 1-.166-.167v-.167c0-.092.074-.166.166-.166zm.667 0c.092 0 .166.074.166.166v.167a.167.167 0 0 1-.166.167h-.167a.167.167 0 0 1-.167-.167v-.167c0-.092.075-.166.167-.166zm0 .666c.092 0 .166.075.166.167v.167a.167.167 0 0 1-.166.166h-.167a.167.167 0 0 1-.167-.166v-.167c0-.092.075-.167.167-.167zm-3.334-6c.092 0 .167.075.167.167v.167a.167.167 0 0 1-.167.166h-.166a.167.167 0 0 1-.167-.166V4.92c0-.092.075-.167.167-.167zm0-.666c.092 0 .167.074.167.166v.167a.167.167 0 0 1-.167.167h-.166a.167.167 0 0 1-.167-.167v-.167c0-.092.075-.166.167-.166zm0 2.5a.167.167 0 0 0 .167-.167v-.167a.167.167 0 0 0-.167-.166h-.166a.167.167 0 0 0-.167.166v.167c0 .092.075.167.167.167zm-3.5 0a.167.167 0 0 1-.166-.167v-.167c0-.092.074-.166.166-.166h.167c.092 0 .167.074.167.166v.167a.167.167 0 0 1-.167.167zm0-2.5a.167.167 0 0 0-.166.166v.167c0 .092.074.167.166.167h.167a.167.167 0 0 0 .167-.167v-.167a.167.167 0 0 0-.167-.166zm0-.667a.167.167 0 0 0-.166.167v.166c0 .092.074.167.166.167h.167a.167.167 0 0 0 .167-.167v-.166a.167.167 0 0 0-.167-.167zm2.834.667c.092 0 .166.074.166.166v.167a.167.167 0 0 1-.166.167H7.92a.167.167 0 0 1-.167-.167v-.167c0-.092.075-.166.167-.166zm.666-.667c.092 0 .167.075.167.167v.166a.167.167 0 0 1-.167.167h-.166a.167.167 0 0 1-.167-.167v-.166c0-.092.075-.167.167-.167zm-.666 3.167a.167.167 0 0 0 .166-.167v-.167a.167.167 0 0 0-.166-.166H7.92a.167.167 0 0 0-.167.166v.167c0 .092.075.167.167.167zm.666.666a.167.167 0 0 0 .167-.166V6.92a.167.167 0 0 0-.167-.167h-.166a.167.167 0 0 0-.167.167v.167c0 .092.075.166.167.166zM5.92 6.587a.167.167 0 0 1-.167-.167v-.167c0-.092.075-.166.167-.166h.167c.092 0 .166.074.166.166v.167a.167.167 0 0 1-.166.167zm-.667.666a.167.167 0 0 1-.166-.166V6.92c0-.092.074-.167.166-.167h.167c.092 0 .167.075.167.167v.167a.167.167 0 0 1-.167.166zm.667-3.166a.167.167 0 0 0-.167.166v.167c0 .092.075.167.167.167h.167a.167.167 0 0 0 .166-.167v-.167a.167.167 0 0 0-.166-.166zm-.5.666c.092 0 .167.075.167.167v.167a.167.167 0 0 1-.167.166h-.167a.167.167 0 0 1-.166-.166V4.92c0-.092.074-.167.166-.167zm-.667 0c.092 0 .167.075.167.167v.167a.167.167 0 0 1-.167.166h-.166a.167.167 0 0 1-.167-.166V4.92c0-.092.075-.167.167-.167zm4.667.667c.092 0 .167.075.167.167v.166a.167.167 0 0 1-.167.167h-.167a.167.167 0 0 1-.166-.167v-.166c0-.092.074-.167.166-.167zm4.667 2c.092 0 .166.075.166.167v.166a.167.167 0 0 1-.166.167h-.167a.167.167 0 0 1-.167-.167v-.166c0-.092.075-.167.167-.167zm-.667 0c.092 0 .167.075.167.167v.166a.167.167 0 0 1-.167.167h-.167a.167.167 0 0 1-.166-.167v-.166c0-.092.074-.167.166-.167zm-.667 0c.092 0 .167.075.167.167v.166a.167.167 0 0 1-.167.167h-.166a.167.167 0 0 1-.167-.167v-.166c0-.092.075-.167.167-.167zm0 1.333c.092 0 .167.075.167.167v.167a.167.167 0 0 1-.167.166h-.166a.167.167 0 0 1-.167-.166V8.92c0-.092.075-.167.167-.167zm0 1.334c.092 0 .167.074.167.166v.167a.167.167 0 0 1-.167.167h-.166a.167.167 0 0 1-.167-.167v-.167c0-.092.075-.166.167-.166zm0 1.333c.092 0 .167.075.167.167v.166a.167.167 0 0 1-.167.167h-.166a.167.167 0 0 1-.167-.167v-.166c0-.092.075-.167.167-.167zm-.666 1.333c.092 0 .166.075.166.167v.167a.167.167 0 0 1-.166.166h-.167a.167.167 0 0 1-.167-.166v-.167c0-.092.075-.167.167-.167zm-.667 0c.092 0 .167.075.167.167v.167a.167.167 0 0 1-.167.166h-.167a.167.167 0 0 1-.166-.166v-.167c0-.092.074-.167.166-.167zm-.667 0c.092 0 .167.075.167.167v.167a.167.167 0 0 1-.167.166h-.166a.167.167 0 0 1-.167-.166v-.167c0-.092.075-.167.167-.167zm-.666-1.333c.092 0 .166.075.166.167v.166a.167.167 0 0 1-.166.167H9.92a.167.167 0 0 1-.167-.167v-.166c0-.092.075-.167.167-.167zm-2 1.333c.092 0 .166.075.166.167v.167a.167.167 0 0 1-.166.166H7.92a.167.167 0 0 1-.167-.166v-.167c0-.092.075-.167.167-.167zm.666 0c.092 0 .167.075.167.167v.167a.167.167 0 0 1-.167.166h-.166a.167.167 0 0 1-.167-.166v-.167c0-.092.075-.167.167-.167zM9.42 9.42c.092 0 .167.075.167.167v.166a.167.167 0 0 1-.167.167h-.167a.167.167 0 0 1-.166-.167v-.166c0-.092.074-.167.166-.167zm-.667 0c.092 0 .167.075.167.167v.166a.167.167 0 0 1-.167.167h-.166a.167.167 0 0 1-.167-.167v-.166c0-.092.075-.167.167-.167zm-.666 0c.092 0 .166.075.166.167v.166a.167.167 0 0 1-.166.167H7.92a.167.167 0 0 1-.167-.167v-.166c0-.092.075-.167.167-.167zm-.667 0c.092 0 .167.075.167.167v.166a.167.167 0 0 1-.167.167h-.167a.167.167 0 0 1-.166-.167v-.166c0-.092.074-.167.166-.167zm-.667 0c.092 0 .167.075.167.167v.166a.167.167 0 0 1-.167.167h-.166a.167.167 0 0 1-.167-.167v-.166c0-.092.075-.167.167-.167zm-.666 0c.092 0 .166.075.166.167v.166a.167.167 0 0 1-.166.167H5.92a.167.167 0 0 1-.167-.167v-.166c0-.092.075-.167.167-.167zm-.667 0c.092 0 .167.075.167.167v.166a.167.167 0 0 1-.167.167h-.167a.167.167 0 0 1-.166-.167v-.166c0-.092.074-.167.166-.167zm-.667 0c.092 0 .167.075.167.167v.166a.167.167 0 0 1-.167.167h-.166a.167.167 0 0 1-.167-.167v-.166c0-.092.075-.167.167-.167zm-.666 0c.092 0 .166.075.166.167v.166a.167.167 0 0 1-.166.167H3.92a.167.167 0 0 1-.167-.167v-.166c0-.092.075-.167.167-.167zm-.667 0c.092 0 .167.075.167.167v.166a.167.167 0 0 1-.167.167h-.167a.167.167 0 0 1-.166-.167v-.166c0-.092.074-.167.166-.167zm0-.667c.092 0 .167.075.167.167v.167a.167.167 0 0 1-.167.166h-.167a.167.167 0 0 1-.166-.166V8.92c0-.092.074-.167.166-.167zm-.667.667c.092 0 .167.075.167.167v.166a.167.167 0 0 1-.167.167h-.166a.167.167 0 0 1-.167-.167v-.166c0-.092.075-.167.167-.167zm0 .667c.092 0 .167.074.167.166v.167a.167.167 0 0 1-.167.167h-.166a.167.167 0 0 1-.167-.167v-.167c0-.092.075-.166.167-.166zm-.666 0c.092 0 .166.074.166.166v.167a.167.167 0 0 1-.166.167H1.92a.167.167 0 0 1-.167-.167v-.167c0-.092.075-.166.167-.166zm.666.666c.092 0 .167.075.167.167v.167a.167.167 0 0 1-.167.166h-.166a.167.167 0 0 1-.167-.166v-.167c0-.092.075-.167.167-.167zm0 .667c.092 0 .167.075.167.167v.166a.167.167 0 0 1-.167.167h-.166a.167.167 0 0 1-.167-.167v-.166c0-.092.075-.167.167-.167zm-.666-.667c.092 0 .166.075.166.167v.167a.167.167 0 0 1-.166.166H1.92a.167.167 0 0 1-.167-.166v-.167c0-.092.075-.167.167-.167zm0 .667c.092 0 .166.075.166.167v.166a.167.167 0 0 1-.166.167H1.92a.167.167 0 0 1-.167-.167v-.166c0-.092.075-.167.167-.167zm6.666-2.667c.092 0 .167.075.167.167v.167a.167.167 0 0 1-.167.166h-.166a.167.167 0 0 1-.167-.166V8.92c0-.092.075-.167.167-.167zm-.666 0c.092 0 .166.075.166.167v.167a.167.167 0 0 1-.166.166H7.92a.167.167 0 0 1-.167-.166V8.92c0-.092.075-.167.167-.167zm-.667 0c.092 0 .167.075.167.167v.167a.167.167 0 0 1-.167.166h-.167a.167.167 0 0 1-.166-.166V8.92c0-.092.074-.167.166-.167zm-.667 0c.092 0 .167.075.167.167v.167a.167.167 0 0 1-.167.166h-.166a.167.167 0 0 1-.167-.166V8.92c0-.092.075-.167.167-.167zm-.666 0c.092 0 .166.075.166.167v.167a.167.167 0 0 1-.166.166H5.92a.167.167 0 0 1-.167-.166V8.92c0-.092.075-.167.167-.167zm-.667 0c.092 0 .167.075.167.167v.167a.167.167 0 0 1-.167.166h-.167a.167.167 0 0 1-.166-.166V8.92c0-.092.074-.167.166-.167zm-.667 0c.092 0 .167.075.167.167v.167a.167.167 0 0 1-.167.166h-.166a.167.167 0 0 1-.167-.166V8.92c0-.092.075-.167.167-.167zm-.666 0c.092 0 .166.075.166.167v.167a.167.167 0 0 1-.166.166H3.92a.167.167 0 0 1-.167-.166V8.92c0-.092.075-.167.167-.167zm3.333 4c.092 0 .167.075.167.167v.167a.167.167 0 0 1-.167.166h-.167a.167.167 0 0 1-.166-.166v-.167c0-.092.074-.167.166-.167zm-.667 0c.092 0 .167.075.167.167v.167a.167.167 0 0 1-.167.166h-.166a.167.167 0 0 1-.167-.166v-.167c0-.092.075-.167.167-.167zm-.666 0c.092 0 .166.075.166.167v.167a.167.167 0 0 1-.166.166H5.92a.167.167 0 0 1-.167-.166v-.167c0-.092.075-.167.167-.167zm-.667 0c.092 0 .167.075.167.167v.167a.167.167 0 0 1-.167.166h-.167a.167.167 0 0 1-.166-.166v-.167c0-.092.074-.167.166-.167zm-.667 0c.092 0 .167.075.167.167v.167a.167.167 0 0 1-.167.166h-.166a.167.167 0 0 1-.167-.166v-.167c0-.092.075-.167.167-.167zm-.666 0c.092 0 .166.075.166.167v.167a.167.167 0 0 1-.166.166H3.92a.167.167 0 0 1-.167-.166v-.167c0-.092.075-.167.167-.167zm-.667 0c.092 0 .167.075.167.167v.167a.167.167 0 0 1-.167.166h-.167a.167.167 0 0 1-.166-.166v-.167c0-.092.074-.167.166-.167zm-.667 0c.092 0 .167.075.167.167v.167a.167.167 0 0 1-.167.166h-.166a.167.167 0 0 1-.167-.166v-.167c0-.092.075-.167.167-.167zm-.666 0c.092 0 .166.075.166.167v.167a.167.167 0 0 1-.166.166H1.92a.167.167 0 0 1-.167-.166v-.167c0-.092.075-.167.167-.167zm8.666-1.333c.092 0 .167.075.167.167v.166a.167.167 0 0 1-.167.167h-.166a.167.167 0 0 1-.167-.167v-.166c0-.092.075-.167.167-.167zm.667 0c.092 0 .167.075.167.167v.166a.167.167 0 0 1-.167.167h-.167a.167.167 0 0 1-.166-.167v-.166c0-.092.074-.167.166-.167zm.667 0c.092 0 .166.075.166.167v.166a.167.167 0 0 1-.166.167h-.167a.167.167 0 0 1-.167-.167v-.166c0-.092.075-.167.167-.167zm-3.334-6c.092 0 .167.075.167.167v.166a.167.167 0 0 1-.167.167h-.166a.167.167 0 0 1-.167-.167v-.166c0-.092.075-.167.167-.167zm-3.333 0c.092 0 .167.075.167.167v.166a.167.167 0 0 1-.167.167h-.167a.167.167 0 0 1-.166-.167v-.166c0-.092.074-.167.166-.167zm-.667 0c.092 0 .167.075.167.167v.166a.167.167 0 0 1-.167.167h-.166a.167.167 0 0 1-.167-.167v-.166c0-.092.075-.167.167-.167z"/></svg>