<svg xmlns="http://www.w3.org/2000/svg" width="24" height="24" fill="none" viewBox="0 0 24 24"><path fill="#ae463b" d="M11.63 17.38a.25.25 0 0 1 .25-.25h.25a.25.25 0 0 1 .25.25v.25a.25.25 0 0 1-.25.25h-.25a.25.25 0 0 1-.25-.25zm-2 0a.25.25 0 0 1 .25-.25h.25a.25.25 0 0 1 .25.25v.25a.25.25 0 0 1-.25.25h-.25a.25.25 0 0 1-.25-.25zm-2 0a.25.25 0 0 1 .25-.25h.25a.25.25 0 0 1 .25.25v.25a.25.25 0 0 1-.25.25h-.25a.25.25 0 0 1-.25-.25zm-2 0a.25.25 0 0 1 .25-.25h.25a.25.25 0 0 1 .25.25v.25a.25.25 0 0 1-.25.25h-.25a.25.25 0 0 1-.25-.25zm-2 0a.25.25 0 0 1 .25-.25h.25a.25.25 0 0 1 .25.25v.25a.25.25 0 0 1-.25.25h-.25a.25.25 0 0 1-.25-.25zm0-1a.25.25 0 0 1 .25-.25h.25a.25.25 0 0 1 .25.25v.25a.25.25 0 0 1-.25.25h-.25a.25.25 0 0 1-.25-.25zm1-1a.25.25 0 0 1 .25-.25h.25a.25.25 0 0 1 .25.25v.25a.25.25 0 0 1-.25.25h-.25a.25.25 0 0 1-.25-.25zm1-1a.25.25 0 0 1 .25-.25h.25a.25.25 0 0 1 .25.25v.25a.25.25 0 0 1-.25.25h-.25a.25.25 0 0 1-.25-.25zm0 1a.25.25 0 0 1 .25-.25h.25a.25.25 0 0 1 .25.25v.25a.25.25 0 0 1-.25.25h-.25a.25.25 0 0 1-.25-.25zm-1 1a.25.25 0 0 1 .25-.25h.25a.25.25 0 0 1 .25.25v.25a.25.25 0 0 1-.25.25h-.25a.25.25 0 0 1-.25-.25zm0 3a.25.25 0 0 1 .25-.25h.25a.25.25 0 0 1 .25.25v.25a.25.25 0 0 1-.25.25h-.25a.25.25 0 0 1-.25-.25zm0 1a.25.25 0 0 1 .25-.25h.25a.25.25 0 0 1 .25.25v.25a.25.25 0 0 1-.25.25h-.25a.25.25 0 0 1-.25-.25zm1 0a.25.25 0 0 1 .25-.25h.25a.25.25 0 0 1 .25.25v.25a.25.25 0 0 1-.25.25h-.25a.25.25 0 0 1-.25-.25zm0 1a.25.25 0 0 1 .25-.25h.25a.25.25 0 0 1 .25.25v.25a.25.25 0 0 1-.25.25h-.25a.25.25 0 0 1-.25-.25zm8-4a.25.25 0 0 1 .25-.25h.25a.25.25 0 0 1 .25.25v.25a.25.25 0 0 1-.25.25h-.25a.25.25 0 0 1-.25-.25zm3 0a.25.25 0 0 1 .25-.25h.25a.25.25 0 0 1 .25.25v.25a.25.25 0 0 1-.25.25h-.25a.25.25 0 0 1-.25-.25zm-1 0a.25.25 0 0 1 .25-.25h.25a.25.25 0 0 1 .25.25v.25a.25.25 0 0 1-.25.25h-.25a.25.25 0 0 1-.25-.25zm3 0a.25.25 0 0 1 .25-.25h.25a.25.25 0 0 1 .25.25v.25a.25.25 0 0 1-.25.25h-.25a.25.25 0 0 1-.25-.25zm2 0a.25.25 0 0 1 .25-.25h.25a.25.25 0 0 1 .25.25v.25a.25.25 0 0 1-.25.25h-.25a.25.25 0 0 1-.25-.25zm1 .5a.25.25 0 0 1 .25-.25h.25a.25.25 0 0 1 .25.25v.25a.25.25 0 0 1-.25.25h-.25a.25.25 0 0 1-.25-.25zm-2-1.5a.25.25 0 0 1 .25-.25h.25a.25.25 0 0 1 .25.25v.25a.25.25 0 0 1-.25.25h-.25a.25.25 0 0 1-.25-.25zm-1-1a.25.25 0 0 1 .25-.25h.25a.25.25 0 0 1 .25.25v.25a.25.25 0 0 1-.25.25h-.25a.25.25 0 0 1-.25-.25zm-1-1a.25.25 0 0 1 .25-.25h.25a.25.25 0 0 1 .25.25v.25a.25.25 0 0 1-.25.25h-.25a.25.25 0 0 1-.25-.25zm-6 4a.25.25 0 0 1 .25-.25h.25a.25.25 0 0 1 .25.25v.25a.25.25 0 0 1-.25.25h-.25a.25.25 0 0 1-.25-.25zm-2 0a.25.25 0 0 1 .25-.25h.25a.25.25 0 0 1 .25.25v.25a.25.25 0 0 1-.25.25h-.25a.25.25 0 0 1-.25-.25zm-2 0a.25.25 0 0 1 .25-.25h.25a.25.25 0 0 1 .25.25v.25a.25.25 0 0 1-.25.25h-.25a.25.25 0 0 1-.25-.25zm-2 0a.25.25 0 0 1 .25-.25h.25a.25.25 0 0 1 .25.25v.25a.25.25 0 0 1-.25.25h-.25a.25.25 0 0 1-.25-.25zm-2 0a.25.25 0 0 1 .25-.25h.25a.25.25 0 0 1 .25.25v.25a.25.25 0 0 1-.25.25h-.25a.25.25 0 0 1-.25-.25zm0 1a.25.25 0 0 1 .25-.25h.25a.25.25 0 0 1 .25.25v.25a.25.25 0 0 1-.25.25h-.25a.25.25 0 0 1-.25-.25zm10-1a.25.25 0 0 1 .25-.25h.25a.25.25 0 0 1 .25.25v.25a.25.25 0 0 1-.25.25h-.25a.25.25 0 0 1-.25-.25zm3 0a.25.25 0 0 1 .25-.25h.25a.25.25 0 0 1 .25.25v.25a.25.25 0 0 1-.25.25h-.25a.25.25 0 0 1-.25-.25zm-1 0a.25.25 0 0 1 .25-.25h.25a.25.25 0 0 1 .25.25v.25a.25.25 0 0 1-.25.25h-.25a.25.25 0 0 1-.25-.25zm3 0a.25.25 0 0 1 .25-.25h.25a.25.25 0 0 1 .25.25v.25a.25.25 0 0 1-.25.25h-.25a.25.25 0 0 1-.25-.25zm2 0a.25.25 0 0 1 .25-.25h.25a.25.25 0 0 1 .25.25v.25a.25.25 0 0 1-.25.25h-.25a.25.25 0 0 1-.25-.25zm-2 2a.25.25 0 0 1 .25-.25h.25a.25.25 0 0 1 .25.25v.25a.25.25 0 0 1-.25.25h-.25a.25.25 0 0 1-.25-.25zm1-1a.25.25 0 0 1 .25-.25h.25a.25.25 0 0 1 .25.25v.25a.25.25 0 0 1-.25.25h-.25a.25.25 0 0 1-.25-.25zm-2 1a.25.25 0 0 1 .25-.25h.25a.25.25 0 0 1 .25.25v.25a.25.25 0 0 1-.25.25h-.25a.25.25 0 0 1-.25-.25zm0 1a.25.25 0 0 1 .25-.25h.25a.25.25 0 0 1 .25.25v.25a.25.25 0 0 1-.25.25h-.25a.25.25 0 0 1-.25-.25zm-7-4a.25.25 0 0 1 .25-.25h.25a.25.25 0 0 1 .25.25v.25a.25.25 0 0 1-.25.25h-.25a.25.25 0 0 1-.25-.25zm-2 0a.25.25 0 0 1 .25-.25h.25a.25.25 0 0 1 .25.25v.25a.25.25 0 0 1-.25.25h-.25a.25.25 0 0 1-.25-.25zm-2 0a.25.25 0 0 1 .25-.25h.25a.25.25 0 0 1 .25.25v.25a.25.25 0 0 1-.25.25h-.25a.25.25 0 0 1-.25-.25zm-2 0a.25.25 0 0 1 .25-.25h.25a.25.25 0 0 1 .25.25v.25a.25.25 0 0 1-.25.25h-.25a.25.25 0 0 1-.25-.25zm-2 0a.25.25 0 0 1 .25-.25h.25a.25.25 0 0 1 .25.25v.25a.25.25 0 0 1-.25.25h-.25a.25.25 0 0 1-.25-.25zm-1 .5a.25.25 0 0 1 .25-.25h.25a.25.25 0 0 1 .25.25v.25a.25.25 0 0 1-.25.25h-.25a.25.25 0 0 1-.25-.25zm11-.5a.25.25 0 0 1 .25-.25h.25a.25.25 0 0 1 .25.25v.25a.25.25 0 0 1-.25.25h-.25a.25.25 0 0 1-.25-.25zm2 0a.25.25 0 0 1 .25-.25h.25a.25.25 0 0 1 .25.25v.25a.25.25 0 0 1-.25.25h-.25a.25.25 0 0 1-.25-.25zm3 0a.25.25 0 0 1 .25-.25h.25a.25.25 0 0 1 .25.25v.25a.25.25 0 0 1-.25.25h-.25a.25.25 0 0 1-.25-.25zm2 0a.25.25 0 0 1 .25-.25h.25a.25.25 0 0 1 .25.25v.25a.25.25 0 0 1-.25.25h-.25a.25.25 0 0 1-.25-.25zm-1-1a.25.25 0 0 1 .25-.25h.25a.25.25 0 0 1 .25.25v.25a.25.25 0 0 1-.25.25h-.25a.25.25 0 0 1-.25-.25zm-1-1a.25.25 0 0 1 .25-.25h.25a.25.25 0 0 1 .25.25v.25a.25.25 0 0 1-.25.25h-.25a.25.25 0 0 1-.25-.25zm-7 3a.25.25 0 0 1 .25-.25h.25a.25.25 0 0 1 .25.25v.25a.25.25 0 0 1-.25.25h-.25a.25.25 0 0 1-.25-.25zm-2 0a.25.25 0 0 1 .25-.25h.25a.25.25 0 0 1 .25.25v.25a.25.25 0 0 1-.25.25h-.25a.25.25 0 0 1-.25-.25zm-2 0a.25.25 0 0 1 .25-.25h.25a.25.25 0 0 1 .25.25v.25a.25.25 0 0 1-.25.25h-.25a.25.25 0 0 1-.25-.25zm-2 0a.25.25 0 0 1 .25-.25h.25a.25.25 0 0 1 .25.25v.25a.25.25 0 0 1-.25.25h-.25a.25.25 0 0 1-.25-.25zm-2 0a.25.25 0 0 1 .25-.25h.25a.25.25 0 0 1 .25.25v.25a.25.25 0 0 1-.25.25h-.25a.25.25 0 0 1-.25-.25zm10 0a.25.25 0 0 1 .25-.25h.25a.25.25 0 0 1 .25.25v.25a.25.25 0 0 1-.25.25h-.25a.25.25 0 0 1-.25-.25zm2 0a.25.25 0 0 1 .25-.25h.25a.25.25 0 0 1 .25.25v.25a.25.25 0 0 1-.25.25h-.25a.25.25 0 0 1-.25-.25zm3 0a.25.25 0 0 1 .25-.25h.25a.25.25 0 0 1 .25.25v.25a.25.25 0 0 1-.25.25h-.25a.25.25 0 0 1-.25-.25zm2 0a.25.25 0 0 1 .25-.25h.25a.25.25 0 0 1 .25.25v.25a.25.25 0 0 1-.25.25h-.25a.25.25 0 0 1-.25-.25zm-1 1a.25.25 0 0 1 .25-.25h.25a.25.25 0 0 1 .25.25v.25a.25.25 0 0 1-.25.25h-.25a.25.25 0 0 1-.25-.25zm-2-17a.25.25 0 0 1 .25-.25h.25a.25.25 0 0 1 .25.25v.25a.25.25 0 0 1-.25.25h-.25a.25.25 0 0 1-.25-.25zm-1 0a.25.25 0 0 1 .25-.25h.25a.25.25 0 0 1 .25.25v.25a.25.25 0 0 1-.25.25h-.25a.25.25 0 0 1-.25-.25zm-1 0a.25.25 0 0 1 .25-.25h.25a.25.25 0 0 1 .25.25v.25a.25.25 0 0 1-.25.25h-.25a.25.25 0 0 1-.25-.25zm-1 0a.25.25 0 0 1 .25-.25h.25a.25.25 0 0 1 .25.25v.25a.25.25 0 0 1-.25.25h-.25a.25.25 0 0 1-.25-.25zm-1 0a.25.25 0 0 1 .25-.25h.25a.25.25 0 0 1 .25.25v.25a.25.25 0 0 1-.25.25h-.25a.25.25 0 0 1-.25-.25zm4 1a.25.25 0 0 1 .25-.25h.25a.25.25 0 0 1 .25.25v.25a.25.25 0 0 1-.25.25h-.25a.25.25 0 0 1-.25-.25zm-1 0a.25.25 0 0 1 .25-.25h.25a.25.25 0 0 1 .25.25v.25a.25.25 0 0 1-.25.25h-.25a.25.25 0 0 1-.25-.25zm-1 0a.25.25 0 0 1 .25-.25h.25a.25.25 0 0 1 .25.25v.25a.25.25 0 0 1-.25.25h-.25a.25.25 0 0 1-.25-.25zm-1 0a.25.25 0 0 1 .25-.25h.25a.25.25 0 0 1 .25.25v.25a.25.25 0 0 1-.25.25h-.25a.25.25 0 0 1-.25-.25zm-1 0a.25.25 0 0 1 .25-.25h.25a.25.25 0 0 1 .25.25v.25a.25.25 0 0 1-.25.25h-.25a.25.25 0 0 1-.25-.25zm4 1a.25.25 0 0 1 .25-.25h.25a.25.25 0 0 1 .25.25v.25a.25.25 0 0 1-.25.25h-.25a.25.25 0 0 1-.25-.25zm-1 0a.25.25 0 0 1 .25-.25h.25a.25.25 0 0 1 .25.25v.25a.25.25 0 0 1-.25.25h-.25a.25.25 0 0 1-.25-.25zm-1 0a.25.25 0 0 1 .25-.25h.25a.25.25 0 0 1 .25.25v.25a.25.25 0 0 1-.25.25h-.25a.25.25 0 0 1-.25-.25zm-1 0a.25.25 0 0 1 .25-.25h.25a.25.25 0 0 1 .25.25v.25a.25.25 0 0 1-.25.25h-.25a.25.25 0 0 1-.25-.25zm-1 0a.25.25 0 0 1 .25-.25h.25a.25.25 0 0 1 .25.25v.25a.25.25 0 0 1-.25.25h-.25a.25.25 0 0 1-.25-.25z"/><path fill="#ae463b" d="M13.63 2.38a.25.25 0 0 1 .25-.25h.25a.25.25 0 0 1 .25.25v.25a.25.25 0 0 1-.25.25h-.25a.25.25 0 0 1-.25-.25zm0 1a.25.25 0 0 1 .25-.25h.25a.25.25 0 0 1 .25.25v.25a.25.25 0 0 1-.25.25h-.25a.25.25 0 0 1-.25-.25zm0 1a.25.25 0 0 1 .25-.25h.25a.25.25 0 0 1 .25.25v.25a.25.25 0 0 1-.25.25h-.25a.25.25 0 0 1-.25-.25z"/><path fill="#ae463b" d="M13.63 4.38a.25.25 0 0 1 .25-.25h.25a.25.25 0 0 1 .25.25v.25a.25.25 0 0 1-.25.25h-.25a.25.25 0 0 1-.25-.25zm0 1a.25.25 0 0 1 .25-.25h.25a.25.25 0 0 1 .25.25v.25a.25.25 0 0 1-.25.25h-.25a.25.25 0 0 1-.25-.25zm0 1a.25.25 0 0 1 .25-.25h.25a.25.25 0 0 1 .25.25v.25a.25.25 0 0 1-.25.25h-.25a.25.25 0 0 1-.25-.25zm0 1a.25.25 0 0 1 .25-.25h.25a.25.25 0 0 1 .25.25v.25a.25.25 0 0 1-.25.25h-.25a.25.25 0 0 1-.25-.25zm0 1a.25.25 0 0 1 .25-.25h.25a.25.25 0 0 1 .25.25v.25a.25.25 0 0 1-.25.25h-.25a.25.25 0 0 1-.25-.25zm0 1a.25.25 0 0 1 .25-.25h.25a.25.25 0 0 1 .25.25v.25a.25.25 0 0 1-.25.25h-.25a.25.25 0 0 1-.25-.25zm0 1a.25.25 0 0 1 .25-.25h.25a.25.25 0 0 1 .25.25v.25a.25.25 0 0 1-.25.25h-.25a.25.25 0 0 1-.25-.25zm0 1a.25.25 0 0 1 .25-.25h.25a.25.25 0 0 1 .25.25v.25a.25.25 0 0 1-.25.25h-.25a.25.25 0 0 1-.25-.25zm0 1a.25.25 0 0 1 .25-.25h.25a.25.25 0 0 1 .25.25v.25a.25.25 0 0 1-.25.25h-.25a.25.25 0 0 1-.25-.25z"/><path fill="#ae463b" d="M13.63 12.38a.25.25 0 0 1 .25-.25h.25a.25.25 0 0 1 .25.25v.25a.25.25 0 0 1-.25.25h-.25a.25.25 0 0 1-.25-.25zm-2 1a.25.25 0 0 1 .25-.25h.25a.25.25 0 0 1 .25.25v.25a.25.25 0 0 1-.25.25h-.25a.25.25 0 0 1-.25-.25zm-1 0a.25.25 0 0 1 .25-.25h.25a.25.25 0 0 1 .25.25v.25a.25.25 0 0 1-.25.25h-.25a.25.25 0 0 1-.25-.25zm1-3a.25.25 0 0 1 .25-.25h.25a.25.25 0 0 1 .25.25v.25a.25.25 0 0 1-.25.25h-.25a.25.25 0 0 1-.25-.25zm0 2a.25.25 0 0 1 .25-.25h.25a.25.25 0 0 1 .25.25v.25a.25.25 0 0 1-.25.25h-.25a.25.25 0 0 1-.25-.25zm-1 0a.25.25 0 0 1 .25-.25h.25a.25.25 0 0 1 .25.25v.25a.25.25 0 0 1-.25.25h-.25a.25.25 0 0 1-.25-.25zm0-2a.25.25 0 0 1 .25-.25h.25a.25.25 0 0 1 .25.25v.25a.25.25 0 0 1-.25.25h-.25a.25.25 0 0 1-.25-.25zm0-1a.25.25 0 0 1 .25-.25h.25a.25.25 0 0 1 .25.25v.25a.25.25 0 0 1-.25.25h-.25a.25.25 0 0 1-.25-.25zm1 0a.25.25 0 0 1 .25-.25h.25a.25.25 0 0 1 .25.25v.25a.25.25 0 0 1-.25.25h-.25a.25.25 0 0 1-.25-.25zm0 2a.25.25 0 0 1 .25-.25h.25a.25.25 0 0 1 .25.25v.25a.25.25 0 0 1-.25.25h-.25a.25.25 0 0 1-.25-.25z"/><path fill="#ae463b" d="M11.63 12.38a.25.25 0 0 1 .25-.25h.25a.25.25 0 0 1 .25.25v.25a.25.25 0 0 1-.25.25h-.25a.25.25 0 0 1-.25-.25zm-1 0a.25.25 0 0 1 .25-.25h.25a.25.25 0 0 1 .25.25v.25a.25.25 0 0 1-.25.25h-.25a.25.25 0 0 1-.25-.25zm0-1a.25.25 0 0 1 .25-.25h.25a.25.25 0 0 1 .25.25v.25a.25.25 0 0 1-.25.25h-.25a.25.25 0 0 1-.25-.25zm2-9a.25.25 0 0 1 .25-.25h.25a.25.25 0 0 1 .25.25v.25a.25.25 0 0 1-.25.25h-.25a.25.25 0 0 1-.25-.25zm0 1a.25.25 0 0 1 .25-.25h.25a.25.25 0 0 1 .25.25v.25a.25.25 0 0 1-.25.25h-.25a.25.25 0 0 1-.25-.25zm0 1a.25.25 0 0 1 .25-.25h.25a.25.25 0 0 1 .25.25v.25a.25.25 0 0 1-.25.25h-.25a.25.25 0 0 1-.25-.25z"/><path fill="#ae463b" d="M12.63 4.38a.25.25 0 0 1 .25-.25h.25a.25.25 0 0 1 .25.25v.25a.25.25 0 0 1-.25.25h-.25a.25.25 0 0 1-.25-.25zm0 1a.25.25 0 0 1 .25-.25h.25a.25.25 0 0 1 .25.25v.25a.25.25 0 0 1-.25.25h-.25a.25.25 0 0 1-.25-.25zm0 1a.25.25 0 0 1 .25-.25h.25a.25.25 0 0 1 .25.25v.25a.25.25 0 0 1-.25.25h-.25a.25.25 0 0 1-.25-.25zm0 1a.25.25 0 0 1 .25-.25h.25a.25.25 0 0 1 .25.25v.25a.25.25 0 0 1-.25.25h-.25a.25.25 0 0 1-.25-.25zm0 1a.25.25 0 0 1 .25-.25h.25a.25.25 0 0 1 .25.25v.25a.25.25 0 0 1-.25.25h-.25a.25.25 0 0 1-.25-.25zm0 1a.25.25 0 0 1 .25-.25h.25a.25.25 0 0 1 .25.25v.25a.25.25 0 0 1-.25.25h-.25a.25.25 0 0 1-.25-.25zm0 1a.25.25 0 0 1 .25-.25h.25a.25.25 0 0 1 .25.25v.25a.25.25 0 0 1-.25.25h-.25a.25.25 0 0 1-.25-.25zm0 1a.25.25 0 0 1 .25-.25h.25a.25.25 0 0 1 .25.25v.25a.25.25 0 0 1-.25.25h-.25a.25.25 0 0 1-.25-.25zm0 1a.25.25 0 0 1 .25-.25h.25a.25.25 0 0 1 .25.25v.25a.25.25 0 0 1-.25.25h-.25a.25.25 0 0 1-.25-.25z"/><path fill="#ae463b" d="M12.63 12.38a.25.25 0 0 1 .25-.25h.25a.25.25 0 0 1 .25.25v.25a.25.25 0 0 1-.25.25h-.25a.25.25 0 0 1-.25-.25zm0 1a.25.25 0 0 1 .25-.25h.25a.25.25 0 0 1 .25.25v.25a.25.25 0 0 1-.25.25h-.25a.25.25 0 0 1-.25-.25zm-2 0a.25.25 0 0 1 .25-.25h.25a.25.25 0 0 1 .25.25v.25a.25.25 0 0 1-.25.25h-.25a.25.25 0 0 1-.25-.25zm0-3a.25.25 0 0 1 .25-.25h.25a.25.25 0 0 1 .25.25v.25a.25.25 0 0 1-.25.25h-.25a.25.25 0 0 1-.25-.25zm0 2a.25.25 0 0 1 .25-.25h.25a.25.25 0 0 1 .25.25v.25a.25.25 0 0 1-.25.25h-.25a.25.25 0 0 1-.25-.25zm-1 0a.25.25 0 0 1 .25-.25h.25a.25.25 0 0 1 .25.25v.25a.25.25 0 0 1-.25.25h-.25a.25.25 0 0 1-.25-.25zm0-2a.25.25 0 0 1 .25-.25h.25a.25.25 0 0 1 .25.25v.25a.25.25 0 0 1-.25.25h-.25a.25.25 0 0 1-.25-.25zm1-1a.25.25 0 0 1 .25-.25h.25a.25.25 0 0 1 .25.25v.25a.25.25 0 0 1-.25.25h-.25a.25.25 0 0 1-.25-.25zm0 2a.25.25 0 0 1 .25-.25h.25a.25.25 0 0 1 .25.25v.25a.25.25 0 0 1-.25.25h-.25a.25.25 0 0 1-.25-.25z"/><path fill="#ae463b" d="M10.63 12.38a.25.25 0 0 1 .25-.25h.25a.25.25 0 0 1 .25.25v.25a.25.25 0 0 1-.25.25h-.25a.25.25 0 0 1-.25-.25zm-1 0a.25.25 0 0 1 .25-.25h.25a.25.25 0 0 1 .25.25v.25a.25.25 0 0 1-.25.25h-.25a.25.25 0 0 1-.25-.25zm0-1a.25.25 0 0 1 .25-.25h.25a.25.25 0 0 1 .25.25v.25a.25.25 0 0 1-.25.25h-.25a.25.25 0 0 1-.25-.25z"/></svg>