<svg xmlns="http://www.w3.org/2000/svg" width="14" height="14" fill="none" viewBox="0 0 14 14"><defs><path id="a" fill="#2d88be" d="M10.576 6.347c0-.08.065-.146.146-.146h.145c.08 0 .146.065.146.146v.146c0 .08-.065.146-.146.146h-.146a.146.146 0 0 1-.145-.146z"/></defs><path fill="#2d88be" d="M6.492 2.847c0-.08.066-.146.146-.146h.146c.08 0 .146.065.146.146v.146c0 .08-.065.146-.146.146h-.146a.146.146 0 0 1-.146-.146zm.292-.583c0-.081.065-.146.146-.146h.146c.08 0 .146.065.146.146v.145c0 .08-.066.146-.146.146H6.93a.146.146 0 0 1-.146-.146zM6.492 3.43c0-.08.066-.146.146-.146h.146c.08 0 .146.066.146.146v.146c0 .08-.065.146-.146.146h-.146a.146.146 0 0 1-.146-.146zm-.583 1.167c0-.08.065-.146.146-.146H6.2c.08 0 .146.065.146.146v.146c0 .08-.066.146-.146.146h-.146a.146.146 0 0 1-.146-.146zm0-.583c0-.081.065-.146.146-.146H6.2c.08 0 .146.065.146.146v.145c0 .08-.066.146-.146.146h-.146a.146.146 0 0 1-.146-.146zM5.326 5.18c0-.08.065-.146.146-.146h.145c.08 0 .146.066.146.146v.146c0 .08-.065.146-.146.146h-.145a.146.146 0 0 1-.146-.146zm-.584.584c0-.081.066-.146.146-.146h.146c.08 0 .146.065.146.146v.145c0 .08-.065.146-.146.146h-.146a.146.146 0 0 1-.146-.146zm-.583 0c0-.081.065-.146.146-.146h.146c.08 0 .146.065.146.146v.145c0 .08-.066.146-.146.146h-.146a.146.146 0 0 1-.146-.146zm-.583 0c0-.081.065-.146.146-.146h.145c.08 0 .146.065.146.146v.145c0 .08-.065.146-.146.146h-.145a.146.146 0 0 1-.146-.146zm-.584 0c0-.081.066-.146.146-.146h.146c.08 0 .146.065.146.146v.145c0 .08-.065.146-.146.146h-.146a.146.146 0 0 1-.146-.146zm-.583 0c0-.081.065-.146.146-.146H2.7c.08 0 .146.065.146.146v.145c0 .08-.066.146-.146.146h-.146a.146.146 0 0 1-.146-.146zm3.5-.584c0-.08.065-.146.146-.146H6.2c.08 0 .146.066.146.146v.146c0 .08-.066.146-.146.146h-.146a.146.146 0 0 1-.146-.146zm-.583.584c0-.081.065-.146.146-.146h.145c.08 0 .146.065.146.146v.145c0 .08-.065.146-.146.146h-.145a.146.146 0 0 1-.146-.146zM3.576 6.93c0-.08.065-.146.146-.146h.145c.08 0 .146.066.146.146v.146c0 .08-.065.146-.146.146h-.145a.146.146 0 0 1-.146-.146zm.583.584c0-.081.065-.146.146-.146h.146c.08 0 .146.065.146.146v.145c0 .08-.066.146-.146.146h-.146a.146.146 0 0 1-.146-.146zm.583.583c0-.08.066-.146.146-.146h.146c.08 0 .146.065.146.146v.146c0 .08-.065.146-.146.146h-.146a.146.146 0 0 1-.146-.146zm0 .583c0-.08.066-.146.146-.146h.146c.08 0 .146.066.146.146v.146c0 .08-.065.146-.146.146h-.146a.146.146 0 0 1-.146-.146zm0 .584c0-.081.066-.146.146-.146h.146c.08 0 .146.065.146.146v.145c0 .08-.065.146-.146.146h-.146a.146.146 0 0 1-.146-.146zm0 1.166c0-.08.066-.146.146-.146h.146c.08 0 .146.066.146.146v.146c0 .08-.065.146-.146.146h-.146a.146.146 0 0 1-.146-.146zm.584 0c0-.08.065-.146.146-.146h.145c.08 0 .146.066.146.146v.146c0 .08-.065.146-.146.146h-.145a.146.146 0 0 1-.146-.146zm.583-.583c0-.08.065-.146.146-.146H6.2c.08 0 .146.065.146.146v.146c0 .08-.066.146-.146.146h-.146a.146.146 0 0 1-.146-.146zm.583-.583c0-.081.066-.146.146-.146h.146c.08 0 .146.065.146.146v.145c0 .08-.065.146-.146.146h-.146a.146.146 0 0 1-.146-.146zm.584 0c0-.081.065-.146.146-.146h.145c.08 0 .146.065.146.146v.145c0 .08-.065.146-.146.146h-.145a.146.146 0 0 1-.146-.146zm.583.583c0-.08.065-.146.146-.146h.146c.08 0 .146.065.146.146v.146c0 .08-.066.146-.146.146h-.146a.146.146 0 0 1-.146-.146zm.583.583c0-.08.066-.146.146-.146h.146c.08 0 .146.066.146.146v.146c0 .08-.065.146-.146.146h-.146a.146.146 0 0 1-.146-.146zm-4.083.584c0-.081.065-.146.146-.146h.146c.08 0 .146.065.146.146v.145c0 .08-.066.146-.146.146h-.146a.146.146 0 0 1-.146-.146zm.583 0c0-.081.066-.146.146-.146h.146c.08 0 .146.065.146.146v.145c0 .08-.065.146-.146.146h-.146a.146.146 0 0 1-.146-.146zm.584 0c0-.081.065-.146.146-.146h.145c.08 0 .146.065.146.146v.145c0 .08-.065.146-.146.146h-.145a.146.146 0 0 1-.146-.146zm.583-.584c0-.08.065-.146.146-.146H6.2c.08 0 .146.066.146.146v.146c0 .08-.066.146-.146.146h-.146a.146.146 0 0 1-.146-.146zm.583-.583c0-.08.066-.146.146-.146h.146c.08 0 .146.065.146.146v.146c0 .08-.065.146-.146.146h-.146a.146.146 0 0 1-.146-.146zm.584 0c0-.08.065-.146.146-.146h.145c.08 0 .146.065.146.146v.146c0 .08-.065.146-.146.146h-.145a.146.146 0 0 1-.146-.146zm.583.583c0-.08.065-.146.146-.146h.146c.08 0 .146.066.146.146v.146c0 .08-.066.146-.146.146h-.146a.146.146 0 0 1-.146-.146zm.583.584c0-.081.066-.146.146-.146h.146c.08 0 .146.065.146.146v.145c0 .08-.065.146-.146.146h-.146a.146.146 0 0 1-.146-.146zm-4.083.583c0-.08.065-.146.146-.146h.146c.08 0 .146.065.146.146v.146c0 .08-.066.146-.146.146h-.146a.146.146 0 0 1-.146-.146zM2.992 6.93c0-.08.066-.146.146-.146h.146c.08 0 .146.066.146.146v.146c0 .08-.065.146-.146.146h-.146a.146.146 0 0 1-.146-.146zm.584.584c0-.081.065-.146.146-.146h.145c.08 0 .146.065.146.146v.145c0 .08-.065.146-.146.146h-.145a.146.146 0 0 1-.146-.146zm.583.583c0-.08.065-.146.146-.146h.146c.08 0 .146.065.146.146v.146c0 .08-.066.146-.146.146h-.146a.146.146 0 0 1-.146-.146zm0 1.167c0-.081.065-.146.146-.146h.146c.08 0 .146.065.146.146v.145c0 .08-.066.146-.146.146h-.146a.146.146 0 0 1-.146-.146zm0 .583c0-.08.065-.146.146-.146h.146c.08 0 .146.065.146.146v.146c0 .08-.066.146-.146.146h-.146a.146.146 0 0 1-.146-.146zm0 .583c0-.08.065-.146.146-.146h.146c.08 0 .146.066.146.146v.146c0 .08-.066.146-.146.146h-.146a.146.146 0 0 1-.146-.146zm-.583.584c0-.081.065-.146.146-.146h.145c.08 0 .146.065.146.146v.145c0 .08-.065.146-.146.146h-.145a.146.146 0 0 1-.146-.146zm0 .583c0-.08.065-.146.146-.146h.145c.08 0 .146.065.146.146v.146c0 .08-.065.146-.146.146h-.145a.146.146 0 0 1-.146-.146zm-1.167-5.25c0-.08.065-.146.146-.146H2.7c.08 0 .146.065.146.146v.146c0 .08-.066.146-.146.146h-.146a.146.146 0 0 1-.146-.146zm-.583-.292c0-.08.065-.146.146-.146h.145c.08 0 .146.066.146.146v.146c0 .08-.065.146-.146.146h-.145a.146.146 0 0 1-.146-.146zm9.916 0c0-.08.066-.146.146-.146h.146c.08 0 .146.066.146.146v.146c0 .08-.065.146-.146.146h-.146a.146.146 0 0 1-.146-.146zM7.076 2.847c0-.08.065-.146.146-.146h.145c.08 0 .146.065.146.146v.146c0 .08-.065.146-.146.146h-.145a.146.146 0 0 1-.146-.146zm0 .583c0-.08.065-.146.146-.146h.145c.08 0 .146.066.146.146v.146c0 .08-.065.146-.146.146h-.145a.146.146 0 0 1-.146-.146zm.583.584c0-.081.065-.146.146-.146h.146c.08 0 .146.065.146.146v.145c0 .08-.066.146-.146.146h-.146a.146.146 0 0 1-.146-.146zm0 .583c0-.08.065-.146.146-.146h.146c.08 0 .146.065.146.146v.146c0 .08-.066.146-.146.146h-.146a.146.146 0 0 1-.146-.146zm0 .583c0-.08.065-.146.146-.146h.146c.08 0 .146.066.146.146v.146c0 .08-.066.146-.146.146h-.146a.146.146 0 0 1-.146-.146zm.583 0c0-.08.066-.146.146-.146h.146c.08 0 .146.066.146.146v.146c0 .08-.065.146-.146.146h-.146a.146.146 0 0 1-.146-.146zm.584.584c0-.081.065-.146.146-.146h.145c.08 0 .146.065.146.146v.145c0 .08-.065.146-.146.146h-.145a.146.146 0 0 1-.146-.146zm.583 0c0-.081.065-.146.146-.146H9.7c.08 0 .146.065.146.146v.145c0 .08-.066.146-.146.146h-.146a.146.146 0 0 1-.146-.146zm.583 0c0-.081.066-.146.146-.146h.146c.08 0 .146.065.146.146v.145c0 .08-.065.146-.146.146h-.146a.146.146 0 0 1-.146-.146zm.584 0c0-.081.065-.146.146-.146h.145c.08 0 .146.065.146.146v.145c0 .08-.065.146-.146.146h-.146a.146.146 0 0 1-.145-.146zm.583 0c0-.081.065-.146.146-.146h.146c.08 0 .146.065.146.146v.145c0 .08-.066.146-.146.146h-.146a.146.146 0 0 1-.146-.146zm-2.917 0c0-.081.066-.146.146-.146h.146c.08 0 .146.065.146.146v.145c0 .08-.065.146-.146.146h-.146a.146.146 0 0 1-.146-.146zm1.75 1.166c0-.08.066-.146.146-.146h.146c.08 0 .146.066.146.146v.146c0 .08-.065.146-.146.146h-.146a.146.146 0 0 1-.146-.146zm-.583.584c0-.081.065-.146.146-.146H9.7c.08 0 .146.065.146.146v.145c0 .08-.066.146-.146.146h-.146a.146.146 0 0 1-.146-.146zm-.583.583c0-.08.065-.146.146-.146h.145c.08 0 .146.065.146.146v.146c0 .08-.065.146-.146.146h-.145a.146.146 0 0 1-.146-.146zm0 .583c0-.08.065-.146.146-.146h.145c.08 0 .146.066.146.146v.146c0 .08-.065.146-.146.146h-.145a.146.146 0 0 1-.146-.146zm0 .584c0-.081.065-.146.146-.146h.145c.08 0 .146.065.146.146v.145c0 .08-.065.146-.146.146h-.145a.146.146 0 0 1-.146-.146zm0 1.166c0-.08.065-.146.146-.146h.145c.08 0 .146.066.146.146v.146c0 .08-.065.146-.146.146h-.145a.146.146 0 0 1-.146-.146zm.583.584c0-.081.065-.146.146-.146H9.7c.08 0 .146.065.146.146v.145c0 .08-.066.146-.146.146h-.146a.146.146 0 0 1-.146-.146zm-.583 0c0-.081.065-.146.146-.146h.145c.08 0 .146.065.146.146v.145c0 .08-.065.146-.146.146h-.145a.146.146 0 0 1-.146-.146zm.583.583c0-.08.065-.146.146-.146H9.7c.08 0 .146.065.146.146v.146c0 .08-.066.146-.146.146h-.146a.146.146 0 0 1-.146-.146zm1.75-5.25c0-.08.065-.146.146-.146h.146c.08 0 .146.065.146.146v.146c0 .08-.066.146-.146.146h-.146a.146.146 0 0 1-.146-.146zm-.583.583c0-.08.065-.146.146-.146h.145c.08 0 .146.066.146.146v.146c0 .08-.065.146-.146.146h-.146a.146.146 0 0 1-.145-.146zm-.584.584c0-.081.066-.146.146-.146h.146c.08 0 .146.065.146.146v.145c0 .08-.065.146-.146.146h-.146a.146.146 0 0 1-.146-.146zm-.583.583c0-.08.065-.146.146-.146H9.7c.08 0 .146.065.146.146v.146c0 .08-.066.146-.146.146h-.146a.146.146 0 0 1-.146-.146zm0 1.167c0-.081.065-.146.146-.146H9.7c.08 0 .146.065.146.146v.145c0 .08-.066.146-.146.146h-.146a.146.146 0 0 1-.146-.146zm0 .583c0-.08.065-.146.146-.146H9.7c.08 0 .146.065.146.146v.146c0 .08-.066.146-.146.146h-.146a.146.146 0 0 1-.146-.146zm0 .583c0-.08.065-.146.146-.146H9.7c.08 0 .146.066.146.146v.146c0 .08-.066.146-.146.146h-.146a.146.146 0 0 1-.146-.146zm.583.584c0-.081.066-.146.146-.146h.146c.08 0 .146.065.146.146v.145c0 .08-.065.146-.146.146h-.146a.146.146 0 0 1-.146-.146zm0 .583c0-.08.066-.146.146-.146h.146c.08 0 .146.065.146.146v.146c0 .08-.065.146-.146.146h-.146a.146.146 0 0 1-.146-.146z"/><path fill="#2d88be" d="M7.076 3.43c0-.08.065-.146.146-.146h.145c.08 0 .146.066.146.146v.146c0 .08-.065.146-.146.146h-.145a.146.146 0 0 1-.146-.146zm-.584 1.167c0-.08.066-.146.146-.146h.146c.08 0 .146.065.146.146v.146c0 .08-.065.146-.146.146h-.146a.146.146 0 0 1-.146-.146zm0-.583c0-.081.066-.146.146-.146h.146c.08 0 .146.065.146.146v.145c0 .08-.065.146-.146.146h-.146a.146.146 0 0 1-.146-.146zm0 1.166c0-.08.066-.146.146-.146h.146c.08 0 .146.066.146.146v.146c0 .08-.065.146-.146.146h-.146a.146.146 0 0 1-.146-.146zm-.583.584c0-.081.065-.146.146-.146H6.2c.08 0 .146.065.146.146v.145c0 .08-.066.146-.146.146h-.146a.146.146 0 0 1-.146-.146zm0-.584c0-.08.065-.146.146-.146H6.2c.08 0 .146.066.146.146v.146c0 .08-.066.146-.146.146h-.146a.146.146 0 0 1-.146-.146zm0 1.167c0-.08.065-.146.146-.146H6.2c.08 0 .146.065.146.146v.146c0 .08-.066.146-.146.146h-.146a.146.146 0 0 1-.146-.146zm.583-.583c0-.081.066-.146.146-.146h.146c.08 0 .146.065.146.146v.145c0 .08-.065.146-.146.146h-.146a.146.146 0 0 1-.146-.146z"/><path fill="#2d88be" d="M6.492 5.18c0-.08.066-.146.146-.146h.146c.08 0 .146.066.146.146v.146c0 .08-.065.146-.146.146h-.146a.146.146 0 0 1-.146-.146zm0 1.167c0-.08.066-.146.146-.146h.146c.08 0 .146.065.146.146v.146c0 .08-.065.146-.146.146h-.146a.146.146 0 0 1-.146-.146zm-.583-.583c0-.081.065-.146.146-.146H6.2c.08 0 .146.065.146.146v.145c0 .08-.066.146-.146.146h-.146a.146.146 0 0 1-.146-.146zm.583 0c0-.081.066-.146.146-.146h.146c.08 0 .146.065.146.146v.145c0 .08-.065.146-.146.146h-.146a.146.146 0 0 1-.146-.146zm-.583.583c0-.08.065-.146.146-.146H6.2c.08 0 .146.065.146.146v.146c0 .08-.066.146-.146.146h-.146a.146.146 0 0 1-.146-.146z"/><path fill="#2d88be" d="M5.909 5.764c0-.081.065-.146.146-.146H6.2c.08 0 .146.065.146.146v.145c0 .08-.066.146-.146.146h-.146a.146.146 0 0 1-.146-.146zm0 1.166c0-.08.065-.146.146-.146H6.2c.08 0 .146.066.146.146v.146c0 .08-.066.146-.146.146h-.146a.146.146 0 0 1-.146-.146zm.583-.583c0-.08.066-.146.146-.146h.146c.08 0 .146.065.146.146v.146c0 .08-.065.146-.146.146h-.146a.146.146 0 0 1-.146-.146zm0-.583c0-.081.066-.146.146-.146h.146c.08 0 .146.065.146.146v.145c0 .08-.065.146-.146.146h-.146a.146.146 0 0 1-.146-.146zm0 1.166c0-.08.066-.146.146-.146h.146c.08 0 .146.066.146.146v.146c0 .08-.065.146-.146.146h-.146a.146.146 0 0 1-.146-.146z"/><path fill="#2d88be" d="M5.909 6.93c0-.08.065-.146.146-.146H6.2c.08 0 .146.066.146.146v.146c0 .08-.066.146-.146.146h-.146a.146.146 0 0 1-.146-.146zm0-.583c0-.08.065-.146.146-.146H6.2c.08 0 .146.065.146.146v.146c0 .08-.066.146-.146.146h-.146a.146.146 0 0 1-.146-.146zm0 1.167c0-.081.065-.146.146-.146H6.2c.08 0 .146.065.146.146v.145c0 .08-.066.146-.146.146h-.146a.146.146 0 0 1-.146-.146zm.583-.584c0-.08.066-.146.146-.146h.146c.08 0 .146.066.146.146v.146c0 .08-.065.146-.146.146h-.146a.146.146 0 0 1-.146-.146zm0-.583c0-.08.066-.146.146-.146h.146c.08 0 .146.065.146.146v.146c0 .08-.065.146-.146.146h-.146a.146.146 0 0 1-.146-.146zm0 1.167c0-.081.066-.146.146-.146h.146c.08 0 .146.065.146.146v.145c0 .08-.065.146-.146.146h-.146a.146.146 0 0 1-.146-.146zm-.583.583c0-.08.065-.146.146-.146H6.2c.08 0 .146.065.146.146v.146c0 .08-.066.146-.146.146h-.146a.146.146 0 0 1-.146-.146z"/><path fill="#2d88be" d="M5.909 7.514c0-.081.065-.146.146-.146H6.2c.08 0 .146.065.146.146v.145c0 .08-.066.146-.146.146h-.146a.146.146 0 0 1-.146-.146zm0 1.166c0-.08.065-.146.146-.146H6.2c.08 0 .146.066.146.146v.146c0 .08-.066.146-.146.146h-.146a.146.146 0 0 1-.146-.146zm.583-.583c0-.08.066-.146.146-.146h.146c.08 0 .146.065.146.146v.146c0 .08-.065.146-.146.146h-.146a.146.146 0 0 1-.146-.146zm0-.583c0-.081.066-.146.146-.146h.146c.08 0 .146.065.146.146v.145c0 .08-.065.146-.146.146h-.146a.146.146 0 0 1-.146-.146zm0 1.166c0-.08.066-.146.146-.146h.146c.08 0 .146.066.146.146v.146c0 .08-.065.146-.146.146h-.146a.146.146 0 0 1-.146-.146zm-.583-.583c0-.08.065-.146.146-.146H6.2c.08 0 .146.065.146.146v.146c0 .08-.066.146-.146.146h-.146a.146.146 0 0 1-.146-.146z"/><path fill="#2d88be" d="M6.492 8.097c0-.08.066-.146.146-.146h.146c.08 0 .146.065.146.146v.146c0 .08-.065.146-.146.146h-.146a.146.146 0 0 1-.146-.146zm-.583.583c0-.08.065-.146.146-.146H6.2c.08 0 .146.066.146.146v.146c0 .08-.066.146-.146.146h-.146a.146.146 0 0 1-.146-.146zm0-.583c0-.08.065-.146.146-.146H6.2c.08 0 .146.065.146.146v.146c0 .08-.066.146-.146.146h-.146a.146.146 0 0 1-.146-.146zm0 1.167c0-.081.065-.146.146-.146H6.2c.08 0 .146.065.146.146v.145c0 .08-.066.146-.146.146h-.146a.146.146 0 0 1-.146-.146zm.583-.584c0-.08.066-.146.146-.146h.146c.08 0 .146.066.146.146v.146c0 .08-.065.146-.146.146h-.146a.146.146 0 0 1-.146-.146z"/><path fill="#2d88be" d="M6.492 8.097c0-.08.066-.146.146-.146h.146c.08 0 .146.065.146.146v.146c0 .08-.065.146-.146.146h-.146a.146.146 0 0 1-.146-.146zm0 1.167c0-.081.066-.146.146-.146h.146c.08 0 .146.065.146.146v.145c0 .08-.065.146-.146.146h-.146a.146.146 0 0 1-.146-.146zm-1.166 0c0-.081.065-.146.146-.146h.145c.08 0 .146.065.146.146v.145c0 .08-.065.146-.146.146h-.145a.146.146 0 0 1-.146-.146zm-.584-2.917c0-.08.066-.146.146-.146h.146c.08 0 .146.065.146.146v.146c0 .08-.065.146-.146.146h-.146a.146.146 0 0 1-.146-.146zm.584 0c0-.08.065-.146.146-.146h.145c.08 0 .146.065.146.146v.146c0 .08-.065.146-.146.146h-.145a.146.146 0 0 1-.146-.146z"/><path fill="#2d88be" d="M4.742 6.347c0-.08.066-.146.146-.146h.146c.08 0 .146.065.146.146v.146c0 .08-.065.146-.146.146h-.146a.146.146 0 0 1-.146-.146zm0 .583c0-.08.066-.146.146-.146h.146c.08 0 .146.066.146.146v.146c0 .08-.065.146-.146.146h-.146a.146.146 0 0 1-.146-.146zm.584-.583c0-.08.065-.146.146-.146h.145c.08 0 .146.065.146.146v.146c0 .08-.065.146-.146.146h-.145a.146.146 0 0 1-.146-.146zm0 .583c0-.08.065-.146.146-.146h.145c.08 0 .146.066.146.146v.146c0 .08-.065.146-.146.146h-.145a.146.146 0 0 1-.146-.146z"/><path fill="#2d88be" d="M4.742 6.93c0-.08.066-.146.146-.146h.146c.08 0 .146.066.146.146v.146c0 .08-.065.146-.146.146h-.146a.146.146 0 0 1-.146-.146zm0-.583c0-.08.066-.146.146-.146h.146c.08 0 .146.065.146.146v.146c0 .08-.065.146-.146.146h-.146a.146.146 0 0 1-.146-.146zm0 1.167c0-.081.066-.146.146-.146h.146c.08 0 .146.065.146.146v.145c0 .08-.065.146-.146.146h-.146a.146.146 0 0 1-.146-.146zm.584-.584c0-.08.065-.146.146-.146h.145c.08 0 .146.066.146.146v.146c0 .08-.065.146-.146.146h-.145a.146.146 0 0 1-.146-.146zm0-.583c0-.08.065-.146.146-.146h.145c.08 0 .146.065.146.146v.146c0 .08-.065.146-.146.146h-.145a.146.146 0 0 1-.146-.146zm0 1.167c0-.081.065-.146.146-.146h.145c.08 0 .146.065.146.146v.145c0 .08-.065.146-.146.146h-.145a.146.146 0 0 1-.146-.146zm-.584.583c0-.08.066-.146.146-.146h.146c.08 0 .146.065.146.146v.146c0 .08-.065.146-.146.146h-.146a.146.146 0 0 1-.146-.146z"/><path fill="#2d88be" d="M4.742 7.514c0-.081.066-.146.146-.146h.146c.08 0 .146.065.146.146v.145c0 .08-.065.146-.146.146h-.146a.146.146 0 0 1-.146-.146zm0 1.166c0-.08.066-.146.146-.146h.146c.08 0 .146.066.146.146v.146c0 .08-.065.146-.146.146h-.146a.146.146 0 0 1-.146-.146zm.584-.583c0-.08.065-.146.146-.146h.145c.08 0 .146.065.146.146v.146c0 .08-.065.146-.146.146h-.145a.146.146 0 0 1-.146-.146zm0-.583c0-.081.065-.146.146-.146h.145c.08 0 .146.065.146.146v.145c0 .08-.065.146-.146.146h-.145a.146.146 0 0 1-.146-.146zm0 1.166c0-.08.065-.146.146-.146h.145c.08 0 .146.066.146.146v.146c0 .08-.065.146-.146.146h-.145a.146.146 0 0 1-.146-.146zm-.584-.583c0-.08.066-.146.146-.146h.146c.08 0 .146.065.146.146v.146c0 .08-.065.146-.146.146h-.146a.146.146 0 0 1-.146-.146z"/><path fill="#2d88be" d="M5.326 8.097c0-.08.065-.146.146-.146h.145c.08 0 .146.065.146.146v.146c0 .08-.065.146-.146.146h-.145a.146.146 0 0 1-.146-.146zm-.584.583c0-.08.066-.146.146-.146h.146c.08 0 .146.066.146.146v.146c0 .08-.065.146-.146.146h-.146a.146.146 0 0 1-.146-.146zm0-.583c0-.08.066-.146.146-.146h.146c.08 0 .146.065.146.146v.146c0 .08-.065.146-.146.146h-.146a.146.146 0 0 1-.146-.146zm0 1.167c0-.081.066-.146.146-.146h.146c.08 0 .146.065.146.146v.145c0 .08-.065.146-.146.146h-.146a.146.146 0 0 1-.146-.146zm.584-.584c0-.08.065-.146.146-.146h.145c.08 0 .146.066.146.146v.146c0 .08-.065.146-.146.146h-.145a.146.146 0 0 1-.146-.146z"/><path fill="#2d88be" d="M5.326 8.097c0-.08.065-.146.146-.146h.145c.08 0 .146.065.146.146v.146c0 .08-.065.146-.146.146h-.145a.146.146 0 0 1-.146-.146zm0 1.167c0-.081.065-.146.146-.146h.145c.08 0 .146.065.146.146v.145c0 .08-.065.146-.146.146h-.145a.146.146 0 0 1-.146-.146zM4.159 6.347c0-.08.065-.146.146-.146h.146c.08 0 .146.065.146.146v.146c0 .08-.066.146-.146.146h-.146a.146.146 0 0 1-.146-.146zm.583 0c0-.08.066-.146.146-.146h.146c.08 0 .146.065.146.146v.146c0 .08-.065.146-.146.146h-.146a.146.146 0 0 1-.146-.146z"/><path fill="#2d88be" d="M4.159 6.347c0-.08.065-.146.146-.146h.146c.08 0 .146.065.146.146v.146c0 .08-.066.146-.146.146h-.146a.146.146 0 0 1-.146-.146zm0 .583c0-.08.065-.146.146-.146h.146c.08 0 .146.066.146.146v.146c0 .08-.066.146-.146.146h-.146a.146.146 0 0 1-.146-.146zm.583-.583c0-.08.066-.146.146-.146h.146c.08 0 .146.065.146.146v.146c0 .08-.065.146-.146.146h-.146a.146.146 0 0 1-.146-.146zm0 .583c0-.08.066-.146.146-.146h.146c.08 0 .146.066.146.146v.146c0 .08-.065.146-.146.146h-.146a.146.146 0 0 1-.146-.146z"/><path fill="#2d88be" d="M4.159 6.93c0-.08.065-.146.146-.146h.146c.08 0 .146.066.146.146v.146c0 .08-.066.146-.146.146h-.146a.146.146 0 0 1-.146-.146zm0-.583c0-.08.065-.146.146-.146h.146c.08 0 .146.065.146.146v.146c0 .08-.066.146-.146.146h-.146a.146.146 0 0 1-.146-.146zm.583.583c0-.08.066-.146.146-.146h.146c.08 0 .146.066.146.146v.146c0 .08-.065.146-.146.146h-.146a.146.146 0 0 1-.146-.146zm0-.583c0-.08.066-.146.146-.146h.146c.08 0 .146.065.146.146v.146c0 .08-.065.146-.146.146h-.146a.146.146 0 0 1-.146-.146zm-1.166 0c0-.08.065-.146.146-.146h.145c.08 0 .146.065.146.146v.146c0 .08-.065.146-.146.146h-.145a.146.146 0 0 1-.146-.146z"/><path fill="#2d88be" d="M3.576 6.347c0-.08.065-.146.146-.146h.145c.08 0 .146.065.146.146v.146c0 .08-.065.146-.146.146h-.145a.146.146 0 0 1-.146-.146zm0 .583c0-.08.065-.146.146-.146h.145c.08 0 .146.066.146.146v.146c0 .08-.065.146-.146.146h-.145a.146.146 0 0 1-.146-.146z"/><path fill="#2d88be" d="M3.576 6.93c0-.08.065-.146.146-.146h.145c.08 0 .146.066.146.146v.146c0 .08-.065.146-.146.146h-.145a.146.146 0 0 1-.146-.146zm0-.583c0-.08.065-.146.146-.146h.145c.08 0 .146.065.146.146v.146c0 .08-.065.146-.146.146h-.145a.146.146 0 0 1-.146-.146zm-.584 0c0-.08.066-.146.146-.146h.146c.08 0 .146.065.146.146v.146c0 .08-.065.146-.146.146h-.146a.146.146 0 0 1-.146-.146z"/><path fill="#2d88be" d="M3.576 6.347c0-.08.065-.146.146-.146h.145c.08 0 .146.065.146.146v.146c0 .08-.065.146-.146.146h-.145a.146.146 0 0 1-.146-.146zm-.584 0c0-.08.066-.146.146-.146h.146c.08 0 .146.065.146.146v.146c0 .08-.065.146-.146.146h-.146a.146.146 0 0 1-.146-.146zm0 .583c0-.08.066-.146.146-.146h.146c.08 0 .146.066.146.146v.146c0 .08-.065.146-.146.146h-.146a.146.146 0 0 1-.146-.146z"/><path fill="#2d88be" d="M3.576 6.347c0-.08.065-.146.146-.146h.145c.08 0 .146.065.146.146v.146c0 .08-.065.146-.146.146h-.145a.146.146 0 0 1-.146-.146zm0 .583c0-.08.065-.146.146-.146h.145c.08 0 .146.066.146.146v.146c0 .08-.065.146-.146.146h-.145a.146.146 0 0 1-.146-.146zm-.584 0c0-.08.066-.146.146-.146h.146c.08 0 .146.066.146.146v.146c0 .08-.065.146-.146.146h-.146a.146.146 0 0 1-.146-.146zm0-.583c0-.08.066-.146.146-.146h.146c.08 0 .146.065.146.146v.146c0 .08-.065.146-.146.146h-.146a.146.146 0 0 1-.146-.146z"/><path fill="#2d88be" d="M3.576 6.93c0-.08.065-.146.146-.146h.145c.08 0 .146.066.146.146v.146c0 .08-.065.146-.146.146h-.145a.146.146 0 0 1-.146-.146zm0-.583c0-.08.065-.146.146-.146h.145c.08 0 .146.065.146.146v.146c0 .08-.065.146-.146.146h-.145a.146.146 0 0 1-.146-.146zm1.166 2.917c0-.081.066-.146.146-.146h.146c.08 0 .146.065.146.146v.145c0 .08-.065.146-.146.146h-.146a.146.146 0 0 1-.146-.146zm0 .583c0-.08.066-.146.146-.146h.146c.08 0 .146.065.146.146v.146c0 .08-.065.146-.146.146h-.146a.146.146 0 0 1-.146-.146zm.584 0c0-.08.065-.146.146-.146h.145c.08 0 .146.065.146.146v.146c0 .08-.065.146-.146.146h-.145a.146.146 0 0 1-.146-.146z"/><path fill="#2d88be" d="M4.742 9.264c0-.081.066-.146.146-.146h.146c.08 0 .146.065.146.146v.145c0 .08-.065.146-.146.146h-.146a.146.146 0 0 1-.146-.146zm.584 0c0-.081.065-.146.146-.146h.145c.08 0 .146.065.146.146v.145c0 .08-.065.146-.146.146h-.145a.146.146 0 0 1-.146-.146z"/><path fill="#2d88be" d="M4.742 9.264c0-.081.066-.146.146-.146h.146c.08 0 .146.065.146.146v.145c0 .08-.065.146-.146.146h-.146a.146.146 0 0 1-.146-.146zm0 .583c0-.08.066-.146.146-.146h.146c.08 0 .146.065.146.146v.146c0 .08-.065.146-.146.146h-.146a.146.146 0 0 1-.146-.146zm.584-.583c0-.081.065-.146.146-.146h.145c.08 0 .146.065.146.146v.145c0 .08-.065.146-.146.146h-.145a.146.146 0 0 1-.146-.146zm0 .583c0-.08.065-.146.146-.146h.145c.08 0 .146.065.146.146v.146c0 .08-.065.146-.146.146h-.145a.146.146 0 0 1-.146-.146zm1.75-5.25c0-.08.065-.146.146-.146h.145c.08 0 .146.065.146.146v.146c0 .08-.065.146-.146.146h-.145a.146.146 0 0 1-.146-.146zm0-.583c0-.081.065-.146.146-.146h.145c.08 0 .146.065.146.146v.145c0 .08-.065.146-.146.146h-.145a.146.146 0 0 1-.146-.146zm0 1.166c0-.08.065-.146.146-.146h.145c.08 0 .146.066.146.146v.146c0 .08-.065.146-.146.146h-.145a.146.146 0 0 1-.146-.146zm.583 4.084c0-.081.065-.146.146-.146h.146c.08 0 .146.065.146.146v.145c0 .08-.066.146-.146.146h-.146a.146.146 0 0 1-.146-.146zm0-4.667c0-.08.065-.146.146-.146h.146c.08 0 .146.065.146.146v.146c0 .08-.066.146-.146.146h-.146a.146.146 0 0 1-.146-.146zm0-.583c0-.081.065-.146.146-.146h.146c.08 0 .146.065.146.146v.145c0 .08-.066.146-.146.146h-.146a.146.146 0 0 1-.146-.146zm0 1.166c0-.08.065-.146.146-.146h.146c.08 0 .146.066.146.146v.146c0 .08-.066.146-.146.146h-.146a.146.146 0 0 1-.146-.146zm-.583.584c0-.081.065-.146.146-.146h.145c.08 0 .146.065.146.146v.145c0 .08-.065.146-.146.146h-.145a.146.146 0 0 1-.146-.146z"/><path fill="#2d88be" d="M7.076 5.18c0-.08.065-.146.146-.146h.145c.08 0 .146.066.146.146v.146c0 .08-.065.146-.146.146h-.145a.146.146 0 0 1-.146-.146zm0 1.167c0-.08.065-.146.146-.146h.145c.08 0 .146.065.146.146v.146c0 .08-.065.146-.146.146h-.145a.146.146 0 0 1-.146-.146zm.583-.583c0-.081.065-.146.146-.146h.146c.08 0 .146.065.146.146v.145c0 .08-.066.146-.146.146h-.146a.146.146 0 0 1-.146-.146zm0-.584c0-.08.065-.146.146-.146h.146c.08 0 .146.066.146.146v.146c0 .08-.066.146-.146.146h-.146a.146.146 0 0 1-.146-.146zm0 1.167c0-.08.065-.146.146-.146h.146c.08 0 .146.065.146.146v.146c0 .08-.066.146-.146.146h-.146a.146.146 0 0 1-.146-.146zm-.583-.583c0-.081.065-.146.146-.146h.145c.08 0 .146.065.146.146v.145c0 .08-.065.146-.146.146h-.145a.146.146 0 0 1-.146-.146z"/><path fill="#2d88be" d="M7.659 5.764c0-.081.065-.146.146-.146h.146c.08 0 .146.065.146.146v.145c0 .08-.066.146-.146.146h-.146a.146.146 0 0 1-.146-.146zm-.583.583c0-.08.065-.146.146-.146h.145c.08 0 .146.065.146.146v.146c0 .08-.065.146-.146.146h-.145a.146.146 0 0 1-.146-.146zm0-.583c0-.081.065-.146.146-.146h.145c.08 0 .146.065.146.146v.145c0 .08-.065.146-.146.146h-.145a.146.146 0 0 1-.146-.146zm0 1.166c0-.08.065-.146.146-.146h.145c.08 0 .146.066.146.146v.146c0 .08-.065.146-.146.146h-.145a.146.146 0 0 1-.146-.146zm.583-.583c0-.08.065-.146.146-.146h.146c.08 0 .146.065.146.146v.146c0 .08-.066.146-.146.146h-.146a.146.146 0 0 1-.146-.146z"/><path fill="#2d88be" d="M7.659 5.764c0-.081.065-.146.146-.146h.146c.08 0 .146.065.146.146v.145c0 .08-.066.146-.146.146h-.146a.146.146 0 0 1-.146-.146zm0 1.166c0-.08.065-.146.146-.146h.146c.08 0 .146.066.146.146v.146c0 .08-.066.146-.146.146h-.146a.146.146 0 0 1-.146-.146zm-.583 0c0-.08.065-.146.146-.146h.145c.08 0 .146.066.146.146v.146c0 .08-.065.146-.146.146h-.145a.146.146 0 0 1-.146-.146zm0-.583c0-.08.065-.146.146-.146h.145c.08 0 .146.065.146.146v.146c0 .08-.065.146-.146.146h-.145a.146.146 0 0 1-.146-.146zm0 1.167c0-.081.065-.146.146-.146h.145c.08 0 .146.065.146.146v.145c0 .08-.065.146-.146.146h-.145a.146.146 0 0 1-.146-.146z"/><path fill="#2d88be" d="M7.659 6.93c0-.08.065-.146.146-.146h.146c.08 0 .146.066.146.146v.146c0 .08-.066.146-.146.146h-.146a.146.146 0 0 1-.146-.146zm0-.583c0-.08.065-.146.146-.146h.146c.08 0 .146.065.146.146v.146c0 .08-.066.146-.146.146h-.146a.146.146 0 0 1-.146-.146zm0 1.167c0-.081.065-.146.146-.146h.146c.08 0 .146.065.146.146v.145c0 .08-.066.146-.146.146h-.146a.146.146 0 0 1-.146-.146zm-.583.583c0-.08.065-.146.146-.146h.145c.08 0 .146.065.146.146v.146c0 .08-.065.146-.146.146h-.145a.146.146 0 0 1-.146-.146zm0-.583c0-.081.065-.146.146-.146h.145c.08 0 .146.065.146.146v.145c0 .08-.065.146-.146.146h-.145a.146.146 0 0 1-.146-.146zm0 1.166c0-.08.065-.146.146-.146h.145c.08 0 .146.066.146.146v.146c0 .08-.065.146-.146.146h-.145a.146.146 0 0 1-.146-.146zm.583-.583c0-.08.065-.146.146-.146h.146c.08 0 .146.065.146.146v.146c0 .08-.066.146-.146.146h-.146a.146.146 0 0 1-.146-.146z"/><path fill="#2d88be" d="M7.659 7.514c0-.081.065-.146.146-.146h.146c.08 0 .146.065.146.146v.145c0 .08-.066.146-.146.146h-.146a.146.146 0 0 1-.146-.146zm0 1.166c0-.08.065-.146.146-.146h.146c.08 0 .146.066.146.146v.146c0 .08-.066.146-.146.146h-.146a.146.146 0 0 1-.146-.146zm-.583-.583c0-.08.065-.146.146-.146h.145c.08 0 .146.065.146.146v.146c0 .08-.065.146-.146.146h-.145a.146.146 0 0 1-.146-.146zm.583 0c0-.08.065-.146.146-.146h.146c.08 0 .146.065.146.146v.146c0 .08-.066.146-.146.146h-.146a.146.146 0 0 1-.146-.146zm-.583.583c0-.08.065-.146.146-.146h.145c.08 0 .146.066.146.146v.146c0 .08-.065.146-.146.146h-.145a.146.146 0 0 1-.146-.146z"/><path fill="#2d88be" d="M7.076 8.097c0-.08.065-.146.146-.146h.145c.08 0 .146.065.146.146v.146c0 .08-.065.146-.146.146h-.145a.146.146 0 0 1-.146-.146zm0 1.167c0-.081.065-.146.146-.146h.145c.08 0 .146.065.146.146v.145c0 .08-.065.146-.146.146h-.145a.146.146 0 0 1-.146-.146zm.583-.584c0-.08.065-.146.146-.146h.146c.08 0 .146.066.146.146v.146c0 .08-.066.146-.146.146h-.146a.146.146 0 0 1-.146-.146zm0-.583c0-.08.065-.146.146-.146h.146c.08 0 .146.065.146.146v.146c0 .08-.066.146-.146.146h-.146a.146.146 0 0 1-.146-.146zm0 1.167c0-.081.065-.146.146-.146h.146c.08 0 .146.065.146.146v.145c0 .08-.066.146-.146.146h-.146a.146.146 0 0 1-.146-.146zm.583 0c0-.081.066-.146.146-.146h.146c.08 0 .146.065.146.146v.145c0 .08-.065.146-.146.146h-.146a.146.146 0 0 1-.146-.146zm.584.583c0-.08.065-.146.146-.146h.145c.08 0 .146.065.146.146v.146c0 .08-.065.146-.146.146h-.145a.146.146 0 0 1-.146-.146zm-.584 0c0-.08.066-.146.146-.146h.146c.08 0 .146.065.146.146v.146c0 .08-.065.146-.146.146h-.146a.146.146 0 0 1-.146-.146zm.584-.583c0-.081.065-.146.146-.146h.145c.08 0 .146.065.146.146v.145c0 .08-.065.146-.146.146h-.145a.146.146 0 0 1-.146-.146zm-.584-2.917c0-.08.066-.146.146-.146h.146c.08 0 .146.065.146.146v.146c0 .08-.065.146-.146.146h-.146a.146.146 0 0 1-.146-.146zm.584 0c0-.08.065-.146.146-.146h.145c.08 0 .146.065.146.146v.146c0 .08-.065.146-.146.146h-.145a.146.146 0 0 1-.146-.146z"/><path fill="#2d88be" d="M8.242 6.347c0-.08.066-.146.146-.146h.146c.08 0 .146.065.146.146v.146c0 .08-.065.146-.146.146h-.146a.146.146 0 0 1-.146-.146zm0 .583c0-.08.066-.146.146-.146h.146c.08 0 .146.066.146.146v.146c0 .08-.065.146-.146.146h-.146a.146.146 0 0 1-.146-.146zm.584-.583c0-.08.065-.146.146-.146h.145c.08 0 .146.065.146.146v.146c0 .08-.065.146-.146.146h-.145a.146.146 0 0 1-.146-.146zm0 .583c0-.08.065-.146.146-.146h.145c.08 0 .146.066.146.146v.146c0 .08-.065.146-.146.146h-.145a.146.146 0 0 1-.146-.146z"/><path fill="#2d88be" d="M8.242 6.93c0-.08.066-.146.146-.146h.146c.08 0 .146.066.146.146v.146c0 .08-.065.146-.146.146h-.146a.146.146 0 0 1-.146-.146zm0-.583c0-.08.066-.146.146-.146h.146c.08 0 .146.065.146.146v.146c0 .08-.065.146-.146.146h-.146a.146.146 0 0 1-.146-.146zm0 1.167c0-.081.066-.146.146-.146h.146c.08 0 .146.065.146.146v.145c0 .08-.065.146-.146.146h-.146a.146.146 0 0 1-.146-.146zm.584-.584c0-.08.065-.146.146-.146h.145c.08 0 .146.066.146.146v.146c0 .08-.065.146-.146.146h-.145a.146.146 0 0 1-.146-.146zm0-.583c0-.08.065-.146.146-.146h.145c.08 0 .146.065.146.146v.146c0 .08-.065.146-.146.146h-.145a.146.146 0 0 1-.146-.146zm0 1.167c0-.081.065-.146.146-.146h.145c.08 0 .146.065.146.146v.145c0 .08-.065.146-.146.146h-.145a.146.146 0 0 1-.146-.146zm-.584.583c0-.08.066-.146.146-.146h.146c.08 0 .146.065.146.146v.146c0 .08-.065.146-.146.146h-.146a.146.146 0 0 1-.146-.146z"/><path fill="#2d88be" d="M8.242 7.514c0-.081.066-.146.146-.146h.146c.08 0 .146.065.146.146v.145c0 .08-.065.146-.146.146h-.146a.146.146 0 0 1-.146-.146zm0 1.166c0-.08.066-.146.146-.146h.146c.08 0 .146.066.146.146v.146c0 .08-.065.146-.146.146h-.146a.146.146 0 0 1-.146-.146zm.584-.583c0-.08.065-.146.146-.146h.145c.08 0 .146.065.146.146v.146c0 .08-.065.146-.146.146h-.145a.146.146 0 0 1-.146-.146zm0-.583c0-.081.065-.146.146-.146h.145c.08 0 .146.065.146.146v.145c0 .08-.065.146-.146.146h-.145a.146.146 0 0 1-.146-.146zm0 1.166c0-.08.065-.146.146-.146h.145c.08 0 .146.066.146.146v.146c0 .08-.065.146-.146.146h-.145a.146.146 0 0 1-.146-.146zm-.584-.583c0-.08.066-.146.146-.146h.146c.08 0 .146.065.146.146v.146c0 .08-.065.146-.146.146h-.146a.146.146 0 0 1-.146-.146z"/><path fill="#2d88be" d="M8.826 8.097c0-.08.065-.146.146-.146h.145c.08 0 .146.065.146.146v.146c0 .08-.065.146-.146.146h-.145a.146.146 0 0 1-.146-.146zm-.584.583c0-.08.066-.146.146-.146h.146c.08 0 .146.066.146.146v.146c0 .08-.065.146-.146.146h-.146a.146.146 0 0 1-.146-.146zm0-.583c0-.08.066-.146.146-.146h.146c.08 0 .146.065.146.146v.146c0 .08-.065.146-.146.146h-.146a.146.146 0 0 1-.146-.146zm0 1.167c0-.081.066-.146.146-.146h.146c.08 0 .146.065.146.146v.145c0 .08-.065.146-.146.146h-.146a.146.146 0 0 1-.146-.146zm.584-.584c0-.08.065-.146.146-.146h.145c.08 0 .146.066.146.146v.146c0 .08-.065.146-.146.146h-.145a.146.146 0 0 1-.146-.146z"/><path fill="#2d88be" d="M8.826 8.097c0-.08.065-.146.146-.146h.145c.08 0 .146.065.146.146v.146c0 .08-.065.146-.146.146h-.145a.146.146 0 0 1-.146-.146zm0 1.167c0-.081.065-.146.146-.146h.145c.08 0 .146.065.146.146v.145c0 .08-.065.146-.146.146h-.145a.146.146 0 0 1-.146-.146zm.583-2.917c0-.08.065-.146.146-.146H9.7c.08 0 .146.065.146.146v.146c0 .08-.066.146-.146.146h-.146a.146.146 0 0 1-.146-.146zm.583 0c0-.08.066-.146.146-.146h.146c.08 0 .146.065.146.146v.146c0 .08-.065.146-.146.146h-.146a.146.146 0 0 1-.146-.146z"/><path fill="#2d88be" d="M9.409 6.347c0-.08.065-.146.146-.146H9.7c.08 0 .146.065.146.146v.146c0 .08-.066.146-.146.146h-.146a.146.146 0 0 1-.146-.146zm0 .583c0-.08.065-.146.146-.146H9.7c.08 0 .146.066.146.146v.146c0 .08-.066.146-.146.146h-.146a.146.146 0 0 1-.146-.146zm.583-.583c0-.08.066-.146.146-.146h.146c.08 0 .146.065.146.146v.146c0 .08-.065.146-.146.146h-.146a.146.146 0 0 1-.146-.146zm0 .583c0-.08.066-.146.146-.146h.146c.08 0 .146.066.146.146v.146c0 .08-.065.146-.146.146h-.146a.146.146 0 0 1-.146-.146z"/><path fill="#2d88be" d="M9.409 6.93c0-.08.065-.146.146-.146H9.7c.08 0 .146.066.146.146v.146c0 .08-.066.146-.146.146h-.146a.146.146 0 0 1-.146-.146zm0-.583c0-.08.065-.146.146-.146H9.7c.08 0 .146.065.146.146v.146c0 .08-.066.146-.146.146h-.146a.146.146 0 0 1-.146-.146zm.583.583c0-.08.066-.146.146-.146h.146c.08 0 .146.066.146.146v.146c0 .08-.065.146-.146.146h-.146a.146.146 0 0 1-.146-.146zm0-.583c0-.08.066-.146.146-.146h.146c.08 0 .146.065.146.146v.146c0 .08-.065.146-.146.146h-.146a.146.146 0 0 1-.146-.146zm.584 0c0-.08.065-.146.146-.146h.145c.08 0 .146.065.146.146v.146c0 .08-.065.146-.146.146h-.146a.146.146 0 0 1-.145-.146z"/><use href="#a"/><use href="#a"/></svg>